%TF.GenerationSoftware,KiCad,Pcbnew,10.0.6*%
%TF.CreationDate,2026-10-04T11:57:38+05:45*%
%TF.ProjectId,RCoV(PCB),52436f56-2850-4434-9229-2e6b69636164,rev?*%
%TF.SameCoordinates,Original*%
%TF.FileFunction,Soldermask,Top*%
%TF.FilePolarity,Negative*%
%FSLAX46Y46*%
G04 Gerber Fmt 4.6, Leading zero omitted, Abs format (unit mm)*
G04 Created by KiCad (PCBNEW 10.0.6) date 2026-10-04 11:57:38*
%MOMM*%
%LPD*%
G01*
G04 APERTURE LIST*
G04 Aperture macros list*
%AMRoundRect*
0 Rectangle with rounded corners*
0 $1 Rounding radius*
0 $2 $3 $4 $5 $6 $7 $8 $9 X,Y pos of 4 corners*
0 Add a 4 corners polygon primitive as box body*
4,1,4,$2,$3,$4,$5,$6,$7,$8,$9,$2,$3,0*
0 Add four circle primitives for the rounded corners*
1,1,$1+$1,$2,$3*
1,1,$1+$1,$4,$5*
1,1,$1+$1,$6,$7*
1,1,$1+$1,$8,$9*
0 Add four rect primitives between the rounded corners*
20,1,$1+$1,$2,$3,$4,$5,0*
20,1,$1+$1,$4,$5,$6,$7,0*
20,1,$1+$1,$6,$7,$8,$9,0*
20,1,$1+$1,$8,$9,$2,$3,0*%
G04 Aperture macros list end*
%ADD10C,1.500000*%
%ADD11C,1.600000*%
%ADD12RoundRect,0.250000X-0.550000X-0.550000X0.550000X-0.550000X0.550000X0.550000X-0.550000X0.550000X0*%
%ADD13R,1.100000X1.800000*%
%ADD14RoundRect,0.275000X-0.275000X-0.625000X0.275000X-0.625000X0.275000X0.625000X-0.275000X0.625000X0*%
%ADD15R,1.800000X1.800000*%
%ADD16C,1.800000*%
%ADD17C,2.000000*%
%ADD18R,1.270000X5.080000*%
%ADD19C,17.800000*%
G04 APERTURE END LIST*
D10*
%TO.C,R9*%
X188000000Y-134000000D03*
X191400000Y-134000000D03*
%TD*%
D11*
%TO.C,R3*%
X188000000Y-98000000D03*
X195620000Y-98000000D03*
%TD*%
D12*
%TO.C,U1*%
X150500000Y-83500000D03*
D11*
X150500000Y-86040000D03*
X150500000Y-88580000D03*
X150500000Y-91120000D03*
X158120000Y-91120000D03*
X158120000Y-88580000D03*
X158120000Y-86040000D03*
X158120000Y-83500000D03*
%TD*%
%TO.C,R4*%
X139000000Y-88000000D03*
X146620000Y-88000000D03*
%TD*%
%TO.C,R6*%
X168500000Y-123000000D03*
X176120000Y-123000000D03*
%TD*%
D13*
%TO.C,Q4*%
X142500000Y-98900000D03*
D14*
X143770000Y-96830000D03*
X145040000Y-98900000D03*
%TD*%
D15*
%TO.C,D1*%
X131500000Y-116500000D03*
D16*
X134040000Y-116500000D03*
%TD*%
D12*
%TO.C,C1*%
X161000000Y-79014200D03*
D11*
X166000000Y-79014200D03*
%TD*%
%TO.C,R11*%
X183000000Y-123000000D03*
X190620000Y-123000000D03*
%TD*%
D15*
%TO.C,D6*%
X172000000Y-59000000D03*
D16*
X174540000Y-59000000D03*
%TD*%
D11*
%TO.C,R7*%
X197500000Y-91000000D03*
X205120000Y-91000000D03*
%TD*%
D13*
%TO.C,Q3*%
X181254200Y-109595500D03*
D14*
X182524200Y-107525500D03*
X183794200Y-109595500D03*
%TD*%
D13*
%TO.C,Q5*%
X172000000Y-93400000D03*
D14*
X173270000Y-91330000D03*
X174540000Y-93400000D03*
%TD*%
D17*
%TO.C,SW1*%
X153000000Y-132000000D03*
X159500000Y-132000000D03*
X153000000Y-136500000D03*
X159500000Y-136500000D03*
%TD*%
D13*
%TO.C,Q2*%
X190500000Y-89400000D03*
D14*
X191770000Y-87330000D03*
X193040000Y-89400000D03*
%TD*%
D18*
%TO.C,BT1*%
X162015000Y-136500000D03*
X183985000Y-136500000D03*
D19*
X173000000Y-136500000D03*
%TD*%
D11*
%TO.C,R2*%
X161500000Y-70500000D03*
X169120000Y-70500000D03*
%TD*%
D15*
%TO.C,D4*%
X128000000Y-82500000D03*
D16*
X130540000Y-82500000D03*
%TD*%
D13*
%TO.C,Q6*%
X160000000Y-108400000D03*
D14*
X161270000Y-106330000D03*
X162540000Y-108400000D03*
%TD*%
D15*
%TO.C,D5*%
X215000000Y-82500000D03*
D16*
X217540000Y-82500000D03*
%TD*%
D11*
%TO.C,R10*%
X199500000Y-100000000D03*
X207120000Y-100000000D03*
%TD*%
%TO.C,R8*%
X154500000Y-123000000D03*
X162120000Y-123000000D03*
%TD*%
D15*
%TO.C,D3*%
X217500000Y-108000000D03*
D16*
X220040000Y-108000000D03*
%TD*%
D11*
%TO.C,R5*%
X177500000Y-71000000D03*
X185120000Y-71000000D03*
%TD*%
D15*
%TO.C,D2*%
X126000000Y-107500000D03*
D16*
X128540000Y-107500000D03*
%TD*%
D13*
%TO.C,Q1*%
X183000000Y-79400000D03*
D14*
X184270000Y-77330000D03*
X185540000Y-79400000D03*
%TD*%
D11*
%TO.C,R1*%
X146428100Y-102071900D03*
X154048100Y-102071900D03*
%TD*%
M02*
