%TF.GenerationSoftware,KiCad,Pcbnew,10.0.6*%
%TF.CreationDate,2026-10-04T11:57:37+05:45*%
%TF.ProjectId,RCoV(PCB),52436f56-2850-4434-9229-2e6b69636164,rev?*%
%TF.SameCoordinates,Original*%
%TF.FileFunction,Copper,L2,Bot*%
%TF.FilePolarity,Positive*%
%FSLAX46Y46*%
G04 Gerber Fmt 4.6, Leading zero omitted, Abs format (unit mm)*
G04 Created by KiCad (PCBNEW 10.0.6) date 2026-10-04 11:57:37*
%MOMM*%
%LPD*%
G01*
G04 APERTURE LIST*
G04 Aperture macros list*
%AMRoundRect*
0 Rectangle with rounded corners*
0 $1 Rounding radius*
0 $2 $3 $4 $5 $6 $7 $8 $9 X,Y pos of 4 corners*
0 Add a 4 corners polygon primitive as box body*
4,1,4,$2,$3,$4,$5,$6,$7,$8,$9,$2,$3,0*
0 Add four circle primitives for the rounded corners*
1,1,$1+$1,$2,$3*
1,1,$1+$1,$4,$5*
1,1,$1+$1,$6,$7*
1,1,$1+$1,$8,$9*
0 Add four rect primitives between the rounded corners*
20,1,$1+$1,$2,$3,$4,$5,0*
20,1,$1+$1,$4,$5,$6,$7,0*
20,1,$1+$1,$6,$7,$8,$9,0*
20,1,$1+$1,$8,$9,$2,$3,0*%
G04 Aperture macros list end*
%ADD10C,0.150000*%
%TA.AperFunction,NonConductor*%
%ADD11C,0.150000*%
%TD*%
%TA.AperFunction,ComponentPad*%
%ADD12C,1.500000*%
%TD*%
%TA.AperFunction,ComponentPad*%
%ADD13C,1.600000*%
%TD*%
%TA.AperFunction,ComponentPad*%
%ADD14RoundRect,0.250000X-0.550000X-0.550000X0.550000X-0.550000X0.550000X0.550000X-0.550000X0.550000X0*%
%TD*%
%TA.AperFunction,ComponentPad*%
%ADD15R,1.100000X1.800000*%
%TD*%
%TA.AperFunction,ComponentPad*%
%ADD16RoundRect,0.275000X-0.275000X-0.625000X0.275000X-0.625000X0.275000X0.625000X-0.275000X0.625000X0*%
%TD*%
%TA.AperFunction,ComponentPad*%
%ADD17R,1.800000X1.800000*%
%TD*%
%TA.AperFunction,ComponentPad*%
%ADD18C,1.800000*%
%TD*%
%TA.AperFunction,ComponentPad*%
%ADD19C,2.000000*%
%TD*%
%TA.AperFunction,ViaPad*%
%ADD20C,0.600000*%
%TD*%
%TA.AperFunction,Conductor*%
%ADD21C,0.400000*%
%TD*%
G04 APERTURE END LIST*
D10*
D11*
X188048095Y-125158152D02*
X188048095Y-125824819D01*
X188286190Y-124777200D02*
X188524285Y-125491485D01*
X188524285Y-125491485D02*
X187905238Y-125491485D01*
X187619523Y-124824819D02*
X186952857Y-124824819D01*
X186952857Y-124824819D02*
X187381428Y-125824819D01*
X186381428Y-124824819D02*
X186286190Y-124824819D01*
X186286190Y-124824819D02*
X186190952Y-124872438D01*
X186190952Y-124872438D02*
X186143333Y-124920057D01*
X186143333Y-124920057D02*
X186095714Y-125015295D01*
X186095714Y-125015295D02*
X186048095Y-125205771D01*
X186048095Y-125205771D02*
X186048095Y-125443866D01*
X186048095Y-125443866D02*
X186095714Y-125634342D01*
X186095714Y-125634342D02*
X186143333Y-125729580D01*
X186143333Y-125729580D02*
X186190952Y-125777200D01*
X186190952Y-125777200D02*
X186286190Y-125824819D01*
X186286190Y-125824819D02*
X186381428Y-125824819D01*
X186381428Y-125824819D02*
X186476666Y-125777200D01*
X186476666Y-125777200D02*
X186524285Y-125729580D01*
X186524285Y-125729580D02*
X186571904Y-125634342D01*
X186571904Y-125634342D02*
X186619523Y-125443866D01*
X186619523Y-125443866D02*
X186619523Y-125205771D01*
X186619523Y-125205771D02*
X186571904Y-125015295D01*
X186571904Y-125015295D02*
X186524285Y-124920057D01*
X186524285Y-124920057D02*
X186476666Y-124872438D01*
X186476666Y-124872438D02*
X186381428Y-124824819D01*
X185429047Y-124824819D02*
X185333809Y-124824819D01*
X185333809Y-124824819D02*
X185238571Y-124872438D01*
X185238571Y-124872438D02*
X185190952Y-124920057D01*
X185190952Y-124920057D02*
X185143333Y-125015295D01*
X185143333Y-125015295D02*
X185095714Y-125205771D01*
X185095714Y-125205771D02*
X185095714Y-125443866D01*
X185095714Y-125443866D02*
X185143333Y-125634342D01*
X185143333Y-125634342D02*
X185190952Y-125729580D01*
X185190952Y-125729580D02*
X185238571Y-125777200D01*
X185238571Y-125777200D02*
X185333809Y-125824819D01*
X185333809Y-125824819D02*
X185429047Y-125824819D01*
X185429047Y-125824819D02*
X185524285Y-125777200D01*
X185524285Y-125777200D02*
X185571904Y-125729580D01*
X185571904Y-125729580D02*
X185619523Y-125634342D01*
X185619523Y-125634342D02*
X185667142Y-125443866D01*
X185667142Y-125443866D02*
X185667142Y-125205771D01*
X185667142Y-125205771D02*
X185619523Y-125015295D01*
X185619523Y-125015295D02*
X185571904Y-124920057D01*
X185571904Y-124920057D02*
X185524285Y-124872438D01*
X185524285Y-124872438D02*
X185429047Y-124824819D01*
D12*
%TO.P,R9,1*%
%TO.N,Net-(R8-Pad2)*%
X188000000Y-134000000D03*
%TO.P,R9,2*%
%TO.N,Net-(U1-THRES)*%
X191400000Y-134000000D03*
%TD*%
D13*
%TO.P,R3,1*%
%TO.N,Net-(D3-K)*%
X188000000Y-98000000D03*
%TO.P,R3,2*%
%TO.N,Net-(Q3-C)*%
X195620000Y-98000000D03*
%TD*%
D14*
%TO.P,U1,1,GND_1*%
%TO.N,/GND*%
X150500000Y-83500000D03*
D13*
%TO.P,U1,2,TRIG_2*%
%TO.N,Net-(U1-THRES)*%
X150500000Y-86040000D03*
%TO.P,U1,3,OUT_3*%
%TO.N,Net-(U1-OUT)*%
X150500000Y-88580000D03*
%TO.P,U1,4,~{RST}_4*%
%TO.N,Net-(U1-~{RST})*%
X150500000Y-91120000D03*
%TO.P,U1,5,CONT_5*%
%TO.N,unconnected-(U1-CONT-Pad5)*%
X158120000Y-91120000D03*
%TO.P,U1,6,THRES_6*%
%TO.N,Net-(U1-THRES)*%
X158120000Y-88580000D03*
%TO.P,U1,7,DISCH_7*%
%TO.N,Net-(U1-DISCH)*%
X158120000Y-86040000D03*
%TO.P,U1,8,VCC_8*%
%TO.N,/+3V*%
X158120000Y-83500000D03*
%TD*%
%TO.P,R4,1*%
%TO.N,Net-(D4-K)*%
X139000000Y-88000000D03*
%TO.P,R4,2*%
%TO.N,Net-(Q4-C)*%
X146620000Y-88000000D03*
%TD*%
%TO.P,R6,1*%
%TO.N,Net-(D6-K)*%
X168500000Y-123000000D03*
%TO.P,R6,2*%
%TO.N,Net-(Q6-C)*%
X176120000Y-123000000D03*
%TD*%
D15*
%TO.P,Q4,1,E_1*%
%TO.N,/GND*%
X142500000Y-98900000D03*
D16*
%TO.P,Q4,2,B_2*%
%TO.N,/B*%
X143770000Y-96830000D03*
%TO.P,Q4,3,C_3*%
%TO.N,Net-(Q4-C)*%
X145040000Y-98900000D03*
%TD*%
D17*
%TO.P,D1,1,K_1*%
%TO.N,Net-(D1-K)*%
X131500000Y-116500000D03*
D18*
%TO.P,D1,2,A_2*%
%TO.N,/+3V*%
X134040000Y-116500000D03*
%TD*%
D14*
%TO.P,C1,1*%
%TO.N,Net-(U1-THRES)*%
X161000000Y-79014200D03*
D13*
%TO.P,C1,2*%
%TO.N,/GND*%
X166000000Y-79014200D03*
%TD*%
%TO.P,R11,1*%
%TO.N,Net-(U1-OUT)*%
X183000000Y-123000000D03*
%TO.P,R11,2*%
%TO.N,/B*%
X190620000Y-123000000D03*
%TD*%
D17*
%TO.P,D6,1,K_1*%
%TO.N,Net-(D6-K)*%
X172000000Y-59000000D03*
D18*
%TO.P,D6,2,A_2*%
%TO.N,/+3V*%
X174540000Y-59000000D03*
%TD*%
D13*
%TO.P,R7,1*%
%TO.N,/+3V*%
X197500000Y-91000000D03*
%TO.P,R7,2*%
%TO.N,Net-(U1-DISCH)*%
X205120000Y-91000000D03*
%TD*%
D15*
%TO.P,Q3,1,E_1*%
%TO.N,/GND*%
X181254200Y-109595500D03*
D16*
%TO.P,Q3,2,B_2*%
%TO.N,/B*%
X182524200Y-107525500D03*
%TO.P,Q3,3,C_3*%
%TO.N,Net-(Q3-C)*%
X183794200Y-109595500D03*
%TD*%
D15*
%TO.P,Q5,1,E_1*%
%TO.N,/GND*%
X172000000Y-93400000D03*
D16*
%TO.P,Q5,2,B_2*%
%TO.N,/B*%
X173270000Y-91330000D03*
%TO.P,Q5,3,C_3*%
%TO.N,Net-(Q5-C)*%
X174540000Y-93400000D03*
%TD*%
D19*
%TO.P,SW1,1,1_1*%
%TO.N,Net-(U1-~{RST})*%
X153000000Y-132000000D03*
X159500000Y-132000000D03*
%TO.P,SW1,2,2_2*%
%TO.N,/+3V*%
X153000000Y-136500000D03*
X159500000Y-136500000D03*
%TD*%
D15*
%TO.P,Q2,1,E_1*%
%TO.N,/GND*%
X190500000Y-89400000D03*
D16*
%TO.P,Q2,2,B_2*%
%TO.N,/B*%
X191770000Y-87330000D03*
%TO.P,Q2,3,C_3*%
%TO.N,Net-(Q2-C)*%
X193040000Y-89400000D03*
%TD*%
D13*
%TO.P,R2,1*%
%TO.N,Net-(D2-K)*%
X161500000Y-70500000D03*
%TO.P,R2,2*%
%TO.N,Net-(Q2-C)*%
X169120000Y-70500000D03*
%TD*%
D17*
%TO.P,D4,1,K_1*%
%TO.N,Net-(D4-K)*%
X128000000Y-82500000D03*
D18*
%TO.P,D4,2,A_2*%
%TO.N,/+3V*%
X130540000Y-82500000D03*
%TD*%
D15*
%TO.P,Q6,1,E_1*%
%TO.N,/GND*%
X160000000Y-108400000D03*
D16*
%TO.P,Q6,2,B_2*%
%TO.N,/B*%
X161270000Y-106330000D03*
%TO.P,Q6,3,C_3*%
%TO.N,Net-(Q6-C)*%
X162540000Y-108400000D03*
%TD*%
D17*
%TO.P,D5,1,K_1*%
%TO.N,Net-(D5-K)*%
X215000000Y-82500000D03*
D18*
%TO.P,D5,2,A_2*%
%TO.N,/+3V*%
X217540000Y-82500000D03*
%TD*%
D13*
%TO.P,R10,1*%
%TO.N,/GND*%
X199500000Y-100000000D03*
%TO.P,R10,2*%
%TO.N,Net-(U1-~{RST})*%
X207120000Y-100000000D03*
%TD*%
%TO.P,R8,1*%
%TO.N,Net-(U1-DISCH)*%
X154500000Y-123000000D03*
%TO.P,R8,2*%
%TO.N,Net-(R8-Pad2)*%
X162120000Y-123000000D03*
%TD*%
D17*
%TO.P,D3,1,K_1*%
%TO.N,Net-(D3-K)*%
X217500000Y-108000000D03*
D18*
%TO.P,D3,2,A_2*%
%TO.N,/+3V*%
X220040000Y-108000000D03*
%TD*%
D13*
%TO.P,R5,1*%
%TO.N,Net-(D5-K)*%
X177500000Y-71000000D03*
%TO.P,R5,2*%
%TO.N,Net-(Q5-C)*%
X185120000Y-71000000D03*
%TD*%
D17*
%TO.P,D2,1,K_1*%
%TO.N,Net-(D2-K)*%
X126000000Y-107500000D03*
D18*
%TO.P,D2,2,A_2*%
%TO.N,/+3V*%
X128540000Y-107500000D03*
%TD*%
D15*
%TO.P,Q1,1,E_1*%
%TO.N,/GND*%
X183000000Y-79400000D03*
D16*
%TO.P,Q1,2,B_2*%
%TO.N,/B*%
X184270000Y-77330000D03*
%TO.P,Q1,3,C_3*%
%TO.N,Net-(Q1-C)*%
X185540000Y-79400000D03*
%TD*%
D13*
%TO.P,R1,1*%
%TO.N,Net-(D1-K)*%
X146428100Y-102071900D03*
%TO.P,R1,2*%
%TO.N,Net-(Q1-C)*%
X154048100Y-102071900D03*
%TD*%
D20*
%TO.N,Net-(Q5-C)*%
X175765500Y-85985400D03*
%TO.N,Net-(Q1-C)*%
X179888200Y-80751700D03*
X162175000Y-98728700D03*
%TO.N,Net-(D6-K)*%
X154625300Y-118365500D03*
%TO.N,/+3V*%
X182764700Y-132508300D03*
%TO.N,Net-(U1-~{RST})*%
X153422100Y-98480300D03*
%TO.N,Net-(U1-OUT)*%
X152222700Y-115721300D03*
%TO.N,/GND*%
X163496000Y-133620100D03*
X190813100Y-99974400D03*
%TO.N,Net-(Q3-C)*%
X193468800Y-108000000D03*
%TD*%
%TO.N,Net-(D1-K)*%
D21*
X146428100Y-102322649D02*
X146428100Y-102071900D01*
X142015992Y-106484008D02*
X142266741Y-106484008D01*
X132000000Y-116500000D02*
X142015992Y-106484008D01*
X142266741Y-106484008D02*
X146428100Y-102322649D01*
X131500000Y-116500000D02*
X132000000Y-116500000D01*
%TO.N,Net-(U1-THRES)*%
X161423300Y-104023300D02*
X191400000Y-134000000D01*
X161423300Y-91883300D02*
X161423300Y-104023300D01*
X158120000Y-88580000D02*
X161423300Y-91883300D01*
%TO.N,/+3V*%
X194242700Y-97540300D02*
X197895300Y-93887700D01*
X194242700Y-105427300D02*
X194242700Y-97540300D01*
X192420200Y-107249800D02*
X194242700Y-105427300D01*
X193000000Y-133738200D02*
X192420200Y-107249800D01*
X193000000Y-139000000D02*
X193000000Y-133738200D01*
X180085500Y-135187500D02*
X193000000Y-139000000D01*
X179273000Y-136000000D02*
X180085500Y-135187500D01*
X160500000Y-136000000D02*
X179273000Y-136000000D01*
X160000000Y-136500000D02*
X160500000Y-136000000D01*
X159500000Y-136500000D02*
X160000000Y-136500000D01*
%TO.N,Net-(U1-~{RST})*%
X153000000Y-115705200D02*
X153000000Y-132000000D01*
X154073800Y-106188900D02*
X154073800Y-114631400D01*
X153422100Y-98480300D02*
X151493000Y-100409400D01*
X151493000Y-103608100D02*
X154073800Y-106188900D01*
X154073800Y-114631400D02*
X153000000Y-115705200D01*
X151493000Y-100409400D02*
X151493000Y-103608100D01*
%TO.N,Net-(Q2-C)*%
X174591600Y-75971600D02*
X185051100Y-75971600D01*
X185051100Y-75971600D02*
X193040000Y-83960500D01*
X169120000Y-70500000D02*
X174591600Y-75971600D01*
%TO.N,Net-(D2-K)*%
X160500000Y-71500000D02*
X161500000Y-70500000D01*
X160374900Y-71500000D02*
X160500000Y-71500000D01*
X145075200Y-86799700D02*
X160374900Y-71500000D01*
X126000000Y-107500000D02*
X128356600Y-105143400D01*
%TO.N,Net-(Q2-C)*%
X193040000Y-83960500D02*
X193040000Y-89000000D01*
%TO.N,Net-(D2-K)*%
X128356600Y-105143400D02*
X130804500Y-105143400D01*
X130804500Y-105143400D02*
X145075200Y-90872700D01*
X145075200Y-90872700D02*
X145075200Y-86799700D01*
%TO.N,/+3V*%
X168620100Y-69212800D02*
X174540000Y-69212800D01*
X158120000Y-83500000D02*
X158120000Y-79712900D01*
%TO.N,Net-(U1-DISCH)*%
X155377200Y-105649100D02*
X155377200Y-122122800D01*
X152796400Y-103068300D02*
X155377200Y-105649100D01*
X152796400Y-101553500D02*
X152796400Y-103068300D01*
X158120000Y-86040000D02*
X154948100Y-89211900D01*
%TO.N,/+3V*%
X158120000Y-79712900D02*
X168620100Y-69212800D01*
%TO.N,Net-(U1-DISCH)*%
X154948100Y-99401800D02*
X152796400Y-101553500D01*
%TO.N,Net-(U1-THRES)*%
X158120000Y-88580000D02*
X161000000Y-85700000D01*
%TO.N,Net-(U1-~{RST})*%
X153422100Y-98480300D02*
X153422100Y-94042100D01*
%TO.N,Net-(U1-OUT)*%
X152222700Y-115344300D02*
X152222700Y-115721300D01*
X153422100Y-109937000D02*
X153422100Y-114144900D01*
X153422100Y-114144900D02*
X152222700Y-115344300D01*
X150841300Y-100903100D02*
X150841300Y-107356200D01*
X149210200Y-99272000D02*
X150841300Y-100903100D01*
%TO.N,Net-(U1-~{RST})*%
X153422100Y-94042100D02*
X150500000Y-91120000D01*
%TO.N,/GND*%
X145633600Y-100269500D02*
X144394700Y-100269500D01*
X143501700Y-98500000D02*
X142500000Y-98500000D01*
X148558500Y-85441500D02*
X148558500Y-97344600D01*
%TO.N,Net-(U1-OUT)*%
X149210200Y-89869800D02*
X149210200Y-99272000D01*
X150500000Y-88580000D02*
X149210200Y-89869800D01*
X150841300Y-107356200D02*
X153422100Y-109937000D01*
%TO.N,/GND*%
X150500000Y-83500000D02*
X148558500Y-85441500D01*
X148558500Y-97344600D02*
X145633600Y-100269500D01*
X144394700Y-100269500D02*
X143501700Y-99376500D01*
%TO.N,Net-(U1-THRES)*%
X161000000Y-85700000D02*
X161000000Y-79014200D01*
%TO.N,/GND*%
X143501700Y-99376500D02*
X143501700Y-98500000D01*
%TO.N,Net-(U1-DISCH)*%
X154948100Y-89211900D02*
X154948100Y-99401800D01*
X155377200Y-122122800D02*
X154500000Y-123000000D01*
%TO.N,/GND*%
X170977000Y-79014200D02*
X166000000Y-79014200D01*
X183000000Y-79000000D02*
X170991200Y-79000000D01*
X170991200Y-79000000D02*
X170977000Y-79014200D01*
%TO.N,Net-(D5-K)*%
X182637400Y-71000000D02*
X177500000Y-71000000D01*
X197827700Y-86190300D02*
X182637400Y-71000000D01*
X204900500Y-86190300D02*
X197827700Y-86190300D01*
X208590800Y-82500000D02*
X204900500Y-86190300D01*
X215000000Y-82500000D02*
X208590800Y-82500000D01*
%TO.N,Net-(Q5-C)*%
X175765500Y-91774500D02*
X175765500Y-85985400D01*
X174540000Y-93000000D02*
X175765500Y-91774500D01*
%TO.N,Net-(Q1-C)*%
X162175000Y-98464900D02*
X179888200Y-80751700D01*
X162175000Y-98728700D02*
X162175000Y-98464900D01*
%TO.N,/B*%
X191770000Y-83642400D02*
X191770000Y-87730000D01*
X185857600Y-77730000D02*
X191770000Y-83642400D01*
X184270000Y-77730000D02*
X185857600Y-77730000D01*
X186250000Y-118630000D02*
X186250000Y-107925500D01*
X190620000Y-123000000D02*
X186250000Y-118630000D01*
X191770000Y-102405500D02*
X191770000Y-87730000D01*
X186250000Y-107925500D02*
X191770000Y-102405500D01*
X186250000Y-107925500D02*
X182524200Y-107925500D01*
%TO.N,Net-(Q6-C)*%
X176120000Y-121580000D02*
X176120000Y-123000000D01*
X162540000Y-108000000D02*
X176120000Y-121580000D01*
%TO.N,Net-(D6-K)*%
X154725500Y-118265300D02*
X154625300Y-118365500D01*
X154725500Y-105919000D02*
X154725500Y-118265300D01*
X152144700Y-103338200D02*
X154725500Y-105919000D01*
X152144700Y-101283600D02*
X152144700Y-103338200D01*
X154296400Y-99131900D02*
X152144700Y-101283600D01*
X154296400Y-82582500D02*
X154296400Y-99131900D01*
X168887900Y-67991000D02*
X154296400Y-82582500D01*
X169370200Y-67991000D02*
X168887900Y-67991000D01*
X172000000Y-65361200D02*
X169370200Y-67991000D01*
X172000000Y-59000000D02*
X172000000Y-65361200D01*
%TO.N,Net-(Q4-C)*%
X146620000Y-96920000D02*
X145040000Y-98500000D01*
X146620000Y-88000000D02*
X146620000Y-96920000D01*
%TO.N,Net-(D4-K)*%
X135273600Y-84273600D02*
X139000000Y-88000000D01*
X129773600Y-84273600D02*
X135273600Y-84273600D01*
X128000000Y-82500000D02*
X129773600Y-84273600D01*
%TO.N,/+3V*%
X204965300Y-92791100D02*
X202156000Y-95600400D01*
X205178200Y-92791100D02*
X204965300Y-92791100D01*
X207179000Y-90790300D02*
X205178200Y-92791100D01*
X207179000Y-89012300D02*
X207179000Y-90790300D01*
X211916400Y-84274900D02*
X207179000Y-89012300D01*
X215765100Y-84274900D02*
X211916400Y-84274900D01*
X217540000Y-82500000D02*
X215765100Y-84274900D01*
X216754100Y-104714100D02*
X220040000Y-108000000D01*
X210003200Y-104714100D02*
X216754100Y-104714100D01*
X202156000Y-96866900D02*
X210003200Y-104714100D01*
X202156000Y-95600400D02*
X202156000Y-96866900D01*
X174540000Y-59000000D02*
X174540000Y-69212800D01*
X197500000Y-87495500D02*
X197500000Y-91000000D01*
X185324400Y-75319900D02*
X197500000Y-87495500D01*
X180038500Y-75319900D02*
X185324400Y-75319900D01*
X174540000Y-69821400D02*
X180038500Y-75319900D01*
X174540000Y-69212800D02*
X174540000Y-69821400D01*
X180085500Y-135187500D02*
X182764700Y-132508300D01*
X199607900Y-95600400D02*
X197895300Y-93887700D01*
X202156000Y-95600400D02*
X199607900Y-95600400D01*
X197500000Y-93492500D02*
X197500000Y-91000000D01*
X197895300Y-93887700D02*
X197500000Y-93492500D01*
%TO.N,/GND*%
X160000000Y-108000000D02*
X161001700Y-108000000D01*
X161001700Y-109001700D02*
X161001700Y-108000000D01*
X163496000Y-111496000D02*
X161001700Y-109001700D01*
X163496000Y-133620100D02*
X163496000Y-111496000D01*
X190500000Y-89000000D02*
X189498300Y-89000000D01*
X172000000Y-93000000D02*
X173001700Y-93000000D01*
X173922200Y-94797000D02*
X185000000Y-94797000D01*
X173001700Y-93876500D02*
X173922200Y-94797000D01*
X173001700Y-93000000D02*
X173001700Y-93876500D01*
X185000000Y-99974400D02*
X190813100Y-99974400D01*
X185000000Y-94797000D02*
X185000000Y-99974400D01*
X185000000Y-93498300D02*
X185000000Y-94797000D01*
X189498300Y-89000000D02*
X185000000Y-93498300D01*
X183000000Y-82501700D02*
X183000000Y-79000000D01*
X189498300Y-89000000D02*
X183000000Y-82501700D01*
X181254200Y-103720200D02*
X181254200Y-109195500D01*
X185000000Y-99974400D02*
X181254200Y-103720200D01*
%TO.N,Net-(Q3-C)*%
X195620000Y-105848800D02*
X193468800Y-108000000D01*
X195620000Y-98000000D02*
X195620000Y-105848800D01*
%TD*%
M02*
