%TF.GenerationSoftware,KiCad,Pcbnew,10.0.6*%
%TF.CreationDate,2026-10-04T11:57:38+05:45*%
%TF.ProjectId,RCoV(PCB),52436f56-2850-4434-9229-2e6b69636164,rev?*%
%TF.SameCoordinates,Original*%
%TF.FileFunction,Legend,Top*%
%TF.FilePolarity,Positive*%
%FSLAX46Y46*%
G04 Gerber Fmt 4.6, Leading zero omitted, Abs format (unit mm)*
G04 Created by KiCad (PCBNEW 10.0.6) date 2026-10-04 11:57:38*
%MOMM*%
%LPD*%
G01*
G04 APERTURE LIST*
%ADD10C,0.000000*%
%ADD11C,0.387360*%
%ADD12C,0.120000*%
G04 APERTURE END LIST*
D10*
G36*
X185996540Y-121019064D02*
G01*
X185680988Y-121019064D01*
X185680988Y-119795385D01*
X185996540Y-119795385D01*
X185996540Y-121019064D01*
G37*
G36*
X184050220Y-120242079D02*
G01*
X184505104Y-119795385D01*
X184871467Y-119795385D01*
X184282169Y-120374853D01*
X184932117Y-121019064D01*
X184537067Y-121019064D01*
X184050220Y-120537138D01*
X184050220Y-121019064D01*
X183734668Y-121019064D01*
X183734668Y-119795385D01*
X184050220Y-119795385D01*
X184050220Y-120242079D01*
G37*
G36*
X182780075Y-121019064D02*
G01*
X182464527Y-121019064D01*
X182464527Y-119795385D01*
X182780075Y-119795385D01*
X182780075Y-121019064D01*
G37*
G36*
X180828838Y-120450254D02*
G01*
X181109146Y-119795385D01*
X181509933Y-119795385D01*
X181509933Y-121019064D01*
X181211597Y-121019064D01*
X181211597Y-120124052D01*
X180929649Y-120783834D01*
X180729667Y-120783834D01*
X180447719Y-120124052D01*
X180447719Y-121019064D01*
X180148563Y-121019064D01*
X180148563Y-119795385D01*
X180550170Y-119795385D01*
X180828838Y-120450254D01*
G37*
G36*
X178748924Y-120780561D02*
G01*
X179302978Y-120780561D01*
X179302978Y-121019064D01*
X178433372Y-121019064D01*
X178433372Y-119795385D01*
X178748924Y-119795385D01*
X178748924Y-120780561D01*
G37*
G36*
X177625492Y-121019064D02*
G01*
X177308299Y-121019064D01*
X177231258Y-120796133D01*
X176737853Y-120796133D01*
X176659992Y-121019064D01*
X176342800Y-121019064D01*
X176509466Y-120569097D01*
X176816535Y-120569097D01*
X177151756Y-120569097D01*
X176984554Y-120082250D01*
X176816535Y-120569097D01*
X176509466Y-120569097D01*
X176796047Y-119795385D01*
X177172244Y-119795385D01*
X177625492Y-121019064D01*
G37*
G36*
X175039874Y-120698599D02*
G01*
X175363620Y-119795385D01*
X175680808Y-119795385D01*
X175227565Y-121019064D01*
X174851364Y-121019064D01*
X174398120Y-119795385D01*
X174715309Y-119795385D01*
X175039874Y-120698599D01*
G37*
G36*
X172373371Y-120033895D02*
G01*
X171837345Y-120033895D01*
X171837345Y-120261747D01*
X172341403Y-120261747D01*
X172341403Y-120500250D01*
X171837345Y-120500250D01*
X171837345Y-121019064D01*
X171521797Y-121019064D01*
X171521797Y-119795385D01*
X172373371Y-119795385D01*
X172373371Y-120033895D01*
G37*
G36*
X166799311Y-119795686D02*
G01*
X166829526Y-119796589D01*
X166858643Y-119798094D01*
X166886662Y-119800200D01*
X166913583Y-119802909D01*
X166939405Y-119806220D01*
X166964129Y-119810132D01*
X166987756Y-119814647D01*
X167010284Y-119819763D01*
X167031714Y-119825481D01*
X167052046Y-119831802D01*
X167071279Y-119838724D01*
X167089415Y-119846249D01*
X167106453Y-119854375D01*
X167122392Y-119863104D01*
X167137233Y-119872434D01*
X167144267Y-119877340D01*
X167151078Y-119882426D01*
X167157666Y-119887694D01*
X167164030Y-119893142D01*
X167170171Y-119898771D01*
X167176088Y-119904581D01*
X167181783Y-119910572D01*
X167187254Y-119916743D01*
X167192502Y-119923096D01*
X167197526Y-119929629D01*
X167202327Y-119936344D01*
X167206905Y-119943239D01*
X167211260Y-119950315D01*
X167215391Y-119957572D01*
X167219299Y-119965010D01*
X167222983Y-119972628D01*
X167226445Y-119980428D01*
X167229683Y-119988409D01*
X167232697Y-119996570D01*
X167235489Y-120004912D01*
X167240402Y-120022140D01*
X167244421Y-120040091D01*
X167247548Y-120058765D01*
X167249781Y-120078164D01*
X167251121Y-120098285D01*
X167251567Y-120119131D01*
X167251404Y-120130193D01*
X167250914Y-120141048D01*
X167250098Y-120151695D01*
X167248955Y-120162133D01*
X167247485Y-120172364D01*
X167245689Y-120182387D01*
X167243566Y-120192201D01*
X167241116Y-120201808D01*
X167238341Y-120211206D01*
X167235238Y-120220397D01*
X167231809Y-120229379D01*
X167228053Y-120238153D01*
X167223971Y-120246720D01*
X167219563Y-120255078D01*
X167214828Y-120263228D01*
X167209766Y-120271169D01*
X167204394Y-120278881D01*
X167198727Y-120286339D01*
X167192766Y-120293545D01*
X167186510Y-120300498D01*
X167179960Y-120307197D01*
X167173115Y-120313644D01*
X167165976Y-120319838D01*
X167158542Y-120325779D01*
X167150813Y-120331467D01*
X167142790Y-120336901D01*
X167134473Y-120342083D01*
X167125860Y-120347012D01*
X167116954Y-120351687D01*
X167107752Y-120356109D01*
X167098257Y-120360279D01*
X167088466Y-120364195D01*
X167100991Y-120368079D01*
X167113156Y-120372354D01*
X167124964Y-120377020D01*
X167136413Y-120382076D01*
X167147503Y-120387523D01*
X167158234Y-120393360D01*
X167168608Y-120399587D01*
X167178622Y-120406205D01*
X167188278Y-120413213D01*
X167197576Y-120420612D01*
X167206515Y-120428401D01*
X167215095Y-120436581D01*
X167223316Y-120445151D01*
X167231180Y-120454112D01*
X167238684Y-120463462D01*
X167245830Y-120473203D01*
X167252579Y-120483282D01*
X167258892Y-120493643D01*
X167264770Y-120504285D01*
X167270213Y-120515209D01*
X167275220Y-120526415D01*
X167279792Y-120537902D01*
X167283929Y-120549672D01*
X167287630Y-120561723D01*
X167290895Y-120574055D01*
X167293725Y-120586670D01*
X167296120Y-120599566D01*
X167298079Y-120612744D01*
X167299603Y-120626203D01*
X167300692Y-120639945D01*
X167301345Y-120653967D01*
X167301563Y-120668272D01*
X167301095Y-120690050D01*
X167299693Y-120711123D01*
X167297356Y-120731492D01*
X167294084Y-120751157D01*
X167289877Y-120770117D01*
X167284735Y-120788373D01*
X167278659Y-120805925D01*
X167271647Y-120822772D01*
X167263701Y-120838914D01*
X167254820Y-120854353D01*
X167245004Y-120869086D01*
X167234253Y-120883116D01*
X167222567Y-120896441D01*
X167209946Y-120909061D01*
X167196390Y-120920977D01*
X167181900Y-120932188D01*
X167166455Y-120942708D01*
X167150038Y-120952549D01*
X167132647Y-120961711D01*
X167114283Y-120970195D01*
X167094945Y-120978000D01*
X167074634Y-120985127D01*
X167053350Y-120991575D01*
X167031093Y-120997344D01*
X167007862Y-121002434D01*
X166983657Y-121006846D01*
X166958480Y-121010579D01*
X166932329Y-121013634D01*
X166905205Y-121016009D01*
X166877107Y-121017706D01*
X166848037Y-121018724D01*
X166817993Y-121019064D01*
X166294265Y-121019064D01*
X166294265Y-120804327D01*
X166294265Y-120483862D01*
X166609813Y-120483862D01*
X166609813Y-120804327D01*
X166795043Y-120804327D01*
X166806744Y-120804170D01*
X166818076Y-120803699D01*
X166829040Y-120802915D01*
X166839636Y-120801816D01*
X166849864Y-120800404D01*
X166859723Y-120798679D01*
X166869214Y-120796639D01*
X166878337Y-120794286D01*
X166887092Y-120791619D01*
X166895479Y-120788638D01*
X166903497Y-120785343D01*
X166911148Y-120781735D01*
X166918430Y-120777813D01*
X166925344Y-120773578D01*
X166931890Y-120769029D01*
X166938068Y-120764166D01*
X166943874Y-120758986D01*
X166949305Y-120753486D01*
X166954362Y-120747666D01*
X166959044Y-120741525D01*
X166963352Y-120735064D01*
X166967285Y-120728284D01*
X166970844Y-120721182D01*
X166974028Y-120713761D01*
X166976837Y-120706020D01*
X166979272Y-120697958D01*
X166981332Y-120689576D01*
X166983018Y-120680875D01*
X166984329Y-120671853D01*
X166985266Y-120662510D01*
X166985827Y-120652848D01*
X166986015Y-120642866D01*
X166985829Y-120633083D01*
X166985272Y-120623612D01*
X166984344Y-120614450D01*
X166983044Y-120605600D01*
X166981372Y-120597059D01*
X166979330Y-120588830D01*
X166976916Y-120580911D01*
X166974130Y-120573302D01*
X166970973Y-120566004D01*
X166967445Y-120559016D01*
X166963545Y-120552339D01*
X166959274Y-120545973D01*
X166954632Y-120539917D01*
X166949618Y-120534171D01*
X166944233Y-120528736D01*
X166938476Y-120523611D01*
X166932345Y-120518797D01*
X166925836Y-120514293D01*
X166918949Y-120510101D01*
X166911685Y-120506219D01*
X166904042Y-120502647D01*
X166896022Y-120499387D01*
X166887625Y-120496437D01*
X166878849Y-120493797D01*
X166869696Y-120491468D01*
X166860164Y-120489450D01*
X166850255Y-120487742D01*
X166839969Y-120486345D01*
X166829304Y-120485259D01*
X166818262Y-120484483D01*
X166806841Y-120484017D01*
X166795043Y-120483862D01*
X166609813Y-120483862D01*
X166294265Y-120483862D01*
X166294265Y-120269125D01*
X166294265Y-120010122D01*
X166609813Y-120010122D01*
X166609813Y-120269125D01*
X166784389Y-120269125D01*
X166793571Y-120268997D01*
X166802472Y-120268612D01*
X166811091Y-120267972D01*
X166819429Y-120267075D01*
X166827484Y-120265922D01*
X166835258Y-120264513D01*
X166842750Y-120262848D01*
X166849960Y-120260927D01*
X166856888Y-120258750D01*
X166863535Y-120256317D01*
X166869899Y-120253627D01*
X166875982Y-120250682D01*
X166881783Y-120247481D01*
X166887302Y-120244023D01*
X166892539Y-120240310D01*
X166897495Y-120236341D01*
X166902159Y-120232121D01*
X166906523Y-120227658D01*
X166910586Y-120222951D01*
X166914348Y-120218001D01*
X166917809Y-120212807D01*
X166920970Y-120207371D01*
X166923829Y-120201691D01*
X166926387Y-120195767D01*
X166928645Y-120189601D01*
X166930601Y-120183191D01*
X166932257Y-120176538D01*
X166933611Y-120169641D01*
X166934665Y-120162502D01*
X166935417Y-120155119D01*
X166935869Y-120147493D01*
X166936019Y-120139623D01*
X166935869Y-120131852D01*
X166935417Y-120124315D01*
X166934665Y-120117011D01*
X166933611Y-120109940D01*
X166932257Y-120103104D01*
X166930601Y-120096500D01*
X166928645Y-120090131D01*
X166926387Y-120083995D01*
X166923829Y-120078092D01*
X166920970Y-120072423D01*
X166917809Y-120066988D01*
X166914348Y-120061787D01*
X166910586Y-120056819D01*
X166906523Y-120052085D01*
X166902159Y-120047584D01*
X166897495Y-120043318D01*
X166892539Y-120039299D01*
X166887302Y-120035539D01*
X166881783Y-120032038D01*
X166875982Y-120028797D01*
X166869899Y-120025814D01*
X166863535Y-120023091D01*
X166856888Y-120020628D01*
X166849960Y-120018423D01*
X166842750Y-120016478D01*
X166835258Y-120014792D01*
X166827484Y-120013365D01*
X166819429Y-120012198D01*
X166811091Y-120011290D01*
X166802472Y-120010641D01*
X166793571Y-120010252D01*
X166784389Y-120010122D01*
X166609813Y-120010122D01*
X166294265Y-120010122D01*
X166294265Y-119795385D01*
X166767997Y-119795385D01*
X166799311Y-119795686D01*
G37*
G36*
X162886012Y-120780561D02*
G01*
X163440067Y-120780561D01*
X163440067Y-121019064D01*
X162570465Y-121019064D01*
X162570465Y-119795385D01*
X162886012Y-119795385D01*
X162886012Y-120780561D01*
G37*
G36*
X170044611Y-119773919D02*
G01*
X170079996Y-119775898D01*
X170114381Y-119779196D01*
X170147768Y-119783813D01*
X170180155Y-119789749D01*
X170211544Y-119797004D01*
X170241934Y-119805578D01*
X170271325Y-119815471D01*
X170299716Y-119826683D01*
X170327109Y-119839214D01*
X170353503Y-119853064D01*
X170378898Y-119868233D01*
X170403294Y-119884721D01*
X170426692Y-119902528D01*
X170449090Y-119921654D01*
X170470489Y-119942098D01*
X170490736Y-119963706D01*
X170509676Y-119986318D01*
X170527310Y-120009936D01*
X170543638Y-120034559D01*
X170558660Y-120060188D01*
X170572375Y-120086822D01*
X170584785Y-120114462D01*
X170595888Y-120143106D01*
X170605684Y-120172756D01*
X170614175Y-120203412D01*
X170621359Y-120235072D01*
X170627237Y-120267738D01*
X170631809Y-120301409D01*
X170635075Y-120336085D01*
X170637034Y-120371766D01*
X170637687Y-120408453D01*
X170637034Y-120445042D01*
X170635075Y-120480632D01*
X170631809Y-120515223D01*
X170627237Y-120548815D01*
X170621359Y-120581407D01*
X170614175Y-120613001D01*
X170605684Y-120643595D01*
X170595888Y-120673191D01*
X170584785Y-120701787D01*
X170572375Y-120729385D01*
X170558660Y-120755983D01*
X170543638Y-120781582D01*
X170527310Y-120806183D01*
X170509676Y-120829784D01*
X170490736Y-120852387D01*
X170470489Y-120873991D01*
X170449090Y-120894437D01*
X170426692Y-120913564D01*
X170403294Y-120931372D01*
X170378898Y-120947861D01*
X170353503Y-120963031D01*
X170327109Y-120976881D01*
X170299716Y-120989413D01*
X170271325Y-121000625D01*
X170241934Y-121010519D01*
X170211544Y-121019093D01*
X170180155Y-121026348D01*
X170147768Y-121032284D01*
X170114381Y-121036901D01*
X170079996Y-121040199D01*
X170044611Y-121042177D01*
X170008228Y-121042837D01*
X169971943Y-121042177D01*
X169936648Y-121040199D01*
X169902341Y-121036901D01*
X169869024Y-121032284D01*
X169836696Y-121026348D01*
X169805357Y-121019093D01*
X169775008Y-121010519D01*
X169745647Y-121000625D01*
X169717276Y-120989413D01*
X169689894Y-120976881D01*
X169663502Y-120963031D01*
X169638098Y-120947861D01*
X169613685Y-120931372D01*
X169590260Y-120913564D01*
X169567825Y-120894437D01*
X169546379Y-120873991D01*
X169526082Y-120852387D01*
X169507095Y-120829784D01*
X169489417Y-120806183D01*
X169473049Y-120781582D01*
X169457990Y-120755983D01*
X169444241Y-120729385D01*
X169431801Y-120701787D01*
X169420671Y-120673191D01*
X169410850Y-120643595D01*
X169402339Y-120613001D01*
X169395137Y-120581407D01*
X169389244Y-120548815D01*
X169384661Y-120515223D01*
X169381387Y-120480632D01*
X169379423Y-120445042D01*
X169378768Y-120408453D01*
X169704975Y-120408453D01*
X169705285Y-120432192D01*
X169706217Y-120455259D01*
X169707769Y-120477655D01*
X169709943Y-120499377D01*
X169712738Y-120520428D01*
X169716154Y-120540807D01*
X169720191Y-120560513D01*
X169724849Y-120579547D01*
X169730128Y-120597908D01*
X169736028Y-120615598D01*
X169742550Y-120632615D01*
X169749693Y-120648960D01*
X169757457Y-120664633D01*
X169765842Y-120679633D01*
X169774849Y-120693961D01*
X169784477Y-120707617D01*
X169794667Y-120720519D01*
X169805364Y-120732588D01*
X169816566Y-120743825D01*
X169828275Y-120754230D01*
X169840489Y-120763802D01*
X169853209Y-120772542D01*
X169866434Y-120780450D01*
X169880166Y-120787525D01*
X169894403Y-120793768D01*
X169909147Y-120799178D01*
X169924396Y-120803756D01*
X169940151Y-120807502D01*
X169956411Y-120810415D01*
X169973178Y-120812496D01*
X169990450Y-120813745D01*
X170008228Y-120814161D01*
X170026105Y-120813745D01*
X170043471Y-120812496D01*
X170060324Y-120810415D01*
X170076665Y-120807502D01*
X170092494Y-120803756D01*
X170107810Y-120799178D01*
X170122614Y-120793768D01*
X170136906Y-120787525D01*
X170150686Y-120780450D01*
X170163953Y-120772542D01*
X170176709Y-120763802D01*
X170188952Y-120754230D01*
X170200683Y-120743825D01*
X170211902Y-120732588D01*
X170222608Y-120720519D01*
X170232803Y-120707617D01*
X170242430Y-120693961D01*
X170251436Y-120679633D01*
X170259821Y-120664633D01*
X170267585Y-120648960D01*
X170274728Y-120632615D01*
X170281249Y-120615598D01*
X170287150Y-120597908D01*
X170292429Y-120579547D01*
X170297088Y-120560513D01*
X170301125Y-120540807D01*
X170304541Y-120520428D01*
X170307336Y-120499377D01*
X170309510Y-120477655D01*
X170311063Y-120455259D01*
X170311994Y-120432192D01*
X170312305Y-120408453D01*
X170311994Y-120384614D01*
X170311063Y-120361453D01*
X170309510Y-120338972D01*
X170307336Y-120317169D01*
X170304541Y-120296045D01*
X170301125Y-120275600D01*
X170297088Y-120255833D01*
X170292429Y-120236746D01*
X170287150Y-120218337D01*
X170281249Y-120200607D01*
X170274728Y-120183555D01*
X170267585Y-120167183D01*
X170259821Y-120151489D01*
X170251436Y-120136474D01*
X170242430Y-120122138D01*
X170232803Y-120108480D01*
X170222608Y-120095577D01*
X170211902Y-120083506D01*
X170200683Y-120072268D01*
X170188952Y-120061863D01*
X170176709Y-120052290D01*
X170163953Y-120043549D01*
X170150686Y-120035641D01*
X170136906Y-120028565D01*
X170122614Y-120022322D01*
X170107810Y-120016911D01*
X170092494Y-120012333D01*
X170076665Y-120008587D01*
X170060324Y-120005674D01*
X170043471Y-120003593D01*
X170026105Y-120002344D01*
X170008228Y-120001928D01*
X169990450Y-120002344D01*
X169973178Y-120003593D01*
X169956411Y-120005674D01*
X169940151Y-120008587D01*
X169924396Y-120012333D01*
X169909147Y-120016911D01*
X169894403Y-120022322D01*
X169880166Y-120028565D01*
X169866434Y-120035641D01*
X169853209Y-120043549D01*
X169840489Y-120052290D01*
X169828275Y-120061863D01*
X169816566Y-120072268D01*
X169805364Y-120083506D01*
X169794667Y-120095577D01*
X169784477Y-120108480D01*
X169774849Y-120122138D01*
X169765842Y-120136474D01*
X169757457Y-120151489D01*
X169749693Y-120167183D01*
X169742550Y-120183555D01*
X169736028Y-120200607D01*
X169730128Y-120218337D01*
X169724849Y-120236746D01*
X169720191Y-120255833D01*
X169716154Y-120275600D01*
X169712738Y-120296045D01*
X169709943Y-120317169D01*
X169707769Y-120338972D01*
X169706217Y-120361453D01*
X169705285Y-120384614D01*
X169704975Y-120408453D01*
X169378768Y-120408453D01*
X169379423Y-120371766D01*
X169381387Y-120336085D01*
X169384661Y-120301409D01*
X169389244Y-120267738D01*
X169395137Y-120235072D01*
X169402339Y-120203412D01*
X169410850Y-120172756D01*
X169420671Y-120143106D01*
X169431801Y-120114462D01*
X169444241Y-120086822D01*
X169457990Y-120060188D01*
X169473049Y-120034559D01*
X169489417Y-120009936D01*
X169507095Y-119986318D01*
X169526082Y-119963706D01*
X169546379Y-119942098D01*
X169567825Y-119921654D01*
X169590260Y-119902528D01*
X169613685Y-119884721D01*
X169638098Y-119868233D01*
X169663502Y-119853064D01*
X169689894Y-119839214D01*
X169717276Y-119826683D01*
X169745647Y-119815471D01*
X169775008Y-119805578D01*
X169805357Y-119797004D01*
X169836696Y-119789749D01*
X169869024Y-119783813D01*
X169902341Y-119779196D01*
X169936648Y-119775898D01*
X169971943Y-119773919D01*
X170008228Y-119773260D01*
X170044611Y-119773919D01*
G37*
G36*
X164601203Y-120528936D02*
G01*
X164601397Y-120547553D01*
X164601978Y-120565493D01*
X164602947Y-120582758D01*
X164604303Y-120599348D01*
X164606046Y-120615261D01*
X164608177Y-120630499D01*
X164610695Y-120645062D01*
X164613600Y-120658949D01*
X164616893Y-120672160D01*
X164620573Y-120684696D01*
X164624641Y-120696556D01*
X164629096Y-120707741D01*
X164633939Y-120718250D01*
X164639169Y-120728084D01*
X164644786Y-120737242D01*
X164650791Y-120745725D01*
X164653951Y-120749734D01*
X164657233Y-120753616D01*
X164660638Y-120757371D01*
X164664166Y-120760998D01*
X164667816Y-120764497D01*
X164671588Y-120767870D01*
X164675483Y-120771115D01*
X164679501Y-120774233D01*
X164683641Y-120777224D01*
X164687903Y-120780087D01*
X164696796Y-120785432D01*
X164706178Y-120790267D01*
X164716050Y-120794594D01*
X164726412Y-120798411D01*
X164737264Y-120801719D01*
X164748606Y-120804519D01*
X164760438Y-120806809D01*
X164772759Y-120808590D01*
X164785571Y-120809863D01*
X164798872Y-120810626D01*
X164812663Y-120810880D01*
X164826553Y-120810626D01*
X164839947Y-120809863D01*
X164852844Y-120808590D01*
X164865245Y-120806809D01*
X164877150Y-120804519D01*
X164888559Y-120801719D01*
X164899472Y-120798411D01*
X164909888Y-120794594D01*
X164919808Y-120790267D01*
X164929232Y-120785432D01*
X164938160Y-120780087D01*
X164946591Y-120774233D01*
X164954526Y-120767870D01*
X164961965Y-120760998D01*
X164968907Y-120753616D01*
X164975353Y-120745725D01*
X164981357Y-120737242D01*
X164986975Y-120728084D01*
X164992205Y-120718250D01*
X164997047Y-120707741D01*
X165001502Y-120696556D01*
X165005570Y-120684696D01*
X165009250Y-120672160D01*
X165012543Y-120658949D01*
X165015449Y-120645062D01*
X165017967Y-120630499D01*
X165020097Y-120615261D01*
X165021841Y-120599348D01*
X165023197Y-120582758D01*
X165024165Y-120565493D01*
X165024746Y-120547553D01*
X165024940Y-120528936D01*
X165024940Y-119795385D01*
X165340492Y-119795385D01*
X165340492Y-120528936D01*
X165339983Y-120560896D01*
X165338455Y-120591818D01*
X165335910Y-120621702D01*
X165332347Y-120650549D01*
X165327765Y-120678358D01*
X165322165Y-120705130D01*
X165315547Y-120730864D01*
X165307911Y-120755561D01*
X165299257Y-120779220D01*
X165289585Y-120801842D01*
X165278895Y-120823427D01*
X165267187Y-120843975D01*
X165254461Y-120863485D01*
X165240717Y-120881958D01*
X165225954Y-120899394D01*
X165210174Y-120915792D01*
X165193349Y-120931176D01*
X165175456Y-120945568D01*
X165156492Y-120958967D01*
X165136460Y-120971373D01*
X165115358Y-120982787D01*
X165093187Y-120993209D01*
X165069946Y-121002638D01*
X165045637Y-121011075D01*
X165020258Y-121018519D01*
X164993809Y-121024971D01*
X164966292Y-121030430D01*
X164937705Y-121034896D01*
X164908048Y-121038370D01*
X164877323Y-121040852D01*
X164845528Y-121042341D01*
X164812663Y-121042837D01*
X164779898Y-121042341D01*
X164748195Y-121040852D01*
X164717555Y-121038370D01*
X164687979Y-121034896D01*
X164659465Y-121030430D01*
X164632014Y-121024971D01*
X164605626Y-121018519D01*
X164580302Y-121011075D01*
X164556040Y-121002638D01*
X164532841Y-120993209D01*
X164510705Y-120982787D01*
X164489632Y-120971373D01*
X164469622Y-120958967D01*
X164450675Y-120945568D01*
X164432791Y-120931176D01*
X164415969Y-120915792D01*
X164400189Y-120899394D01*
X164385427Y-120881958D01*
X164371683Y-120863485D01*
X164358956Y-120843975D01*
X164347248Y-120823427D01*
X164336558Y-120801842D01*
X164326886Y-120779220D01*
X164318232Y-120755561D01*
X164310596Y-120730864D01*
X164303978Y-120705130D01*
X164298378Y-120678358D01*
X164293797Y-120650549D01*
X164290233Y-120621702D01*
X164287688Y-120591818D01*
X164286161Y-120560896D01*
X164285652Y-120528936D01*
X164285652Y-119795385D01*
X164601203Y-119795385D01*
X164601203Y-120528936D01*
G37*
G36*
X161311053Y-119773618D02*
G01*
X161336282Y-119774694D01*
X161361254Y-119776486D01*
X161385970Y-119778995D01*
X161410430Y-119782222D01*
X161434634Y-119786167D01*
X161458581Y-119790829D01*
X161482273Y-119796209D01*
X161505722Y-119802291D01*
X161528941Y-119809065D01*
X161551929Y-119816531D01*
X161574686Y-119824688D01*
X161597213Y-119833537D01*
X161619509Y-119843077D01*
X161641575Y-119853309D01*
X161663410Y-119864233D01*
X161663410Y-120117491D01*
X161641523Y-120103033D01*
X161619713Y-120089574D01*
X161597981Y-120077114D01*
X161576325Y-120065654D01*
X161554746Y-120055192D01*
X161533244Y-120045729D01*
X161511819Y-120037264D01*
X161490470Y-120029798D01*
X161469019Y-120023267D01*
X161447287Y-120017606D01*
X161425273Y-120012816D01*
X161402977Y-120008897D01*
X161380400Y-120005848D01*
X161357541Y-120003670D01*
X161334400Y-120002364D01*
X161310977Y-120001928D01*
X161290154Y-120002351D01*
X161269894Y-120003619D01*
X161250198Y-120005732D01*
X161231065Y-120008690D01*
X161212495Y-120012494D01*
X161194489Y-120017143D01*
X161177047Y-120022637D01*
X161160168Y-120028976D01*
X161143852Y-120036161D01*
X161128100Y-120044191D01*
X161112911Y-120053066D01*
X161098286Y-120062786D01*
X161084225Y-120073352D01*
X161070727Y-120084763D01*
X161057792Y-120097019D01*
X161045421Y-120110121D01*
X161033710Y-120123963D01*
X161022755Y-120138447D01*
X161012555Y-120153571D01*
X161003110Y-120169335D01*
X160994421Y-120185740D01*
X160986488Y-120202785D01*
X160979310Y-120220470D01*
X160972887Y-120238796D01*
X160967220Y-120257762D01*
X160962308Y-120277369D01*
X160958153Y-120297615D01*
X160954752Y-120318502D01*
X160952107Y-120340030D01*
X160950218Y-120362197D01*
X160949085Y-120385005D01*
X160948707Y-120408453D01*
X160949085Y-120431802D01*
X160950218Y-120454518D01*
X160952107Y-120476599D01*
X160954752Y-120498047D01*
X160958153Y-120518861D01*
X160962308Y-120539041D01*
X160967220Y-120558587D01*
X160972887Y-120577499D01*
X160979310Y-120595777D01*
X160986488Y-120613422D01*
X160994421Y-120630432D01*
X161003110Y-120646809D01*
X161012555Y-120662552D01*
X161022755Y-120677660D01*
X161033710Y-120692135D01*
X161045421Y-120705976D01*
X161057792Y-120719076D01*
X161070727Y-120731331D01*
X161084225Y-120742741D01*
X161098286Y-120753306D01*
X161112911Y-120763026D01*
X161128100Y-120771900D01*
X161143852Y-120779930D01*
X161160168Y-120787114D01*
X161177047Y-120793453D01*
X161194489Y-120798947D01*
X161212495Y-120803596D01*
X161231065Y-120807399D01*
X161250198Y-120810358D01*
X161269894Y-120812471D01*
X161290154Y-120813739D01*
X161310977Y-120814161D01*
X161334400Y-120813726D01*
X161357541Y-120812419D01*
X161380400Y-120810242D01*
X161402977Y-120807194D01*
X161425273Y-120803275D01*
X161447287Y-120798486D01*
X161469019Y-120792827D01*
X161490470Y-120786299D01*
X161501135Y-120782690D01*
X161511819Y-120778832D01*
X161533244Y-120770367D01*
X161554746Y-120760903D01*
X161576325Y-120750439D01*
X161597981Y-120738977D01*
X161619713Y-120726516D01*
X161641523Y-120713057D01*
X161663410Y-120698599D01*
X161663410Y-120951856D01*
X161641575Y-120962781D01*
X161619509Y-120973013D01*
X161597213Y-120982555D01*
X161574686Y-120991405D01*
X161551929Y-120999564D01*
X161528941Y-121007031D01*
X161505722Y-121013805D01*
X161482273Y-121019888D01*
X161458581Y-121025266D01*
X161434634Y-121029927D01*
X161410430Y-121033871D01*
X161385970Y-121037099D01*
X161361254Y-121039609D01*
X161336282Y-121041402D01*
X161311053Y-121042478D01*
X161285568Y-121042837D01*
X161247850Y-121042169D01*
X161211125Y-121040167D01*
X161175392Y-121036829D01*
X161140651Y-121032156D01*
X161106903Y-121026147D01*
X161074148Y-121018804D01*
X161042384Y-121010126D01*
X161011614Y-121000112D01*
X160981836Y-120988764D01*
X160953050Y-120976081D01*
X160925257Y-120962062D01*
X160898456Y-120946709D01*
X160872647Y-120930020D01*
X160847832Y-120911997D01*
X160824008Y-120892639D01*
X160801177Y-120871946D01*
X160779541Y-120850109D01*
X160759301Y-120827321D01*
X160740457Y-120803582D01*
X160723009Y-120778893D01*
X160706956Y-120753252D01*
X160692299Y-120726661D01*
X160679038Y-120699119D01*
X160667173Y-120670626D01*
X160656704Y-120641183D01*
X160647631Y-120610788D01*
X160639953Y-120579443D01*
X160633672Y-120547147D01*
X160628786Y-120513900D01*
X160625296Y-120479702D01*
X160623203Y-120444553D01*
X160622505Y-120408453D01*
X160623203Y-120372255D01*
X160625296Y-120337013D01*
X160628786Y-120302730D01*
X160633672Y-120269403D01*
X160639953Y-120237034D01*
X160647631Y-120205621D01*
X160656704Y-120175166D01*
X160667173Y-120145669D01*
X160679038Y-120117128D01*
X160692299Y-120089545D01*
X160706956Y-120062920D01*
X160723009Y-120037251D01*
X160740457Y-120012540D01*
X160759301Y-119988786D01*
X160779541Y-119965990D01*
X160801177Y-119944151D01*
X160824008Y-119923457D01*
X160847832Y-119904097D01*
X160872647Y-119886074D01*
X160898456Y-119869385D01*
X160925257Y-119854031D01*
X160953050Y-119840013D01*
X160981836Y-119827330D01*
X161011614Y-119815982D01*
X161042384Y-119805969D01*
X161074148Y-119797291D01*
X161106903Y-119789948D01*
X161140651Y-119783940D01*
X161175392Y-119779268D01*
X161211125Y-119775930D01*
X161247850Y-119773927D01*
X161285568Y-119773260D01*
X161311053Y-119773618D01*
G37*
G36*
X182315357Y-114328531D02*
G01*
X181758529Y-114328531D01*
X181758529Y-117956625D01*
X182315357Y-117956625D01*
X182315357Y-118307546D01*
X180088039Y-118307546D01*
X180088039Y-117956625D01*
X180641967Y-117956625D01*
X180641967Y-114328531D01*
X180088039Y-114328531D01*
X180088039Y-113977609D01*
X182315357Y-113977609D01*
X182315357Y-114328531D01*
G37*
G36*
X179748718Y-115059370D02*
G01*
X179357200Y-115059370D01*
X179357200Y-114374933D01*
X178162334Y-114374933D01*
X178162334Y-117956625D01*
X178739463Y-117956625D01*
X178739463Y-118307546D01*
X176465743Y-118307546D01*
X176465743Y-117956625D01*
X177039974Y-117956625D01*
X177039974Y-114374933D01*
X175853809Y-114374933D01*
X175853809Y-115059370D01*
X175456489Y-115059370D01*
X175456489Y-113977609D01*
X179748718Y-113977609D01*
X179748718Y-115059370D01*
G37*
G36*
X168138214Y-113978652D02*
G01*
X168232560Y-113981779D01*
X168323825Y-113986990D01*
X168412008Y-113994286D01*
X168497110Y-114003666D01*
X168579130Y-114015131D01*
X168658069Y-114028680D01*
X168733927Y-114044314D01*
X168806703Y-114062032D01*
X168876397Y-114081835D01*
X168943010Y-114103722D01*
X169006542Y-114127694D01*
X169066992Y-114153750D01*
X169124361Y-114181890D01*
X169178648Y-114212115D01*
X169229854Y-114244425D01*
X169277967Y-114278830D01*
X169300859Y-114296823D01*
X169322975Y-114315342D01*
X169344315Y-114334389D01*
X169364880Y-114353962D01*
X169384668Y-114374062D01*
X169403680Y-114394689D01*
X169421917Y-114415843D01*
X169439377Y-114437523D01*
X169456061Y-114459730D01*
X169471970Y-114482464D01*
X169487102Y-114505725D01*
X169501458Y-114529513D01*
X169515039Y-114553827D01*
X169527843Y-114578668D01*
X169539871Y-114604036D01*
X169551124Y-114629931D01*
X169561600Y-114656353D01*
X169571300Y-114683301D01*
X169580224Y-114710776D01*
X169588373Y-114738778D01*
X169602341Y-114796362D01*
X169613205Y-114856053D01*
X169620966Y-114917852D01*
X169625622Y-114981757D01*
X169627174Y-115047769D01*
X169626103Y-115095362D01*
X169622892Y-115141708D01*
X169617539Y-115186807D01*
X169610045Y-115230661D01*
X169600410Y-115273268D01*
X169588634Y-115314630D01*
X169574716Y-115354744D01*
X169558658Y-115393613D01*
X169540458Y-115431236D01*
X169520117Y-115467612D01*
X169497635Y-115502742D01*
X169473012Y-115536626D01*
X169446247Y-115569264D01*
X169417342Y-115600656D01*
X169386295Y-115630801D01*
X169353107Y-115659700D01*
X169317812Y-115687320D01*
X169280445Y-115713626D01*
X169241004Y-115738617D01*
X169199490Y-115762294D01*
X169155903Y-115784658D01*
X169110243Y-115805706D01*
X169062509Y-115825441D01*
X169012702Y-115843862D01*
X168960823Y-115860968D01*
X168906870Y-115876761D01*
X168850843Y-115891239D01*
X168792744Y-115904403D01*
X168732572Y-115916253D01*
X168670326Y-115926789D01*
X168606007Y-115936010D01*
X168539615Y-115943918D01*
X168619993Y-115952414D01*
X168697991Y-115962678D01*
X168773610Y-115974709D01*
X168846850Y-115988507D01*
X168917712Y-116004073D01*
X168986194Y-116021406D01*
X169052297Y-116040506D01*
X169116021Y-116061374D01*
X169177366Y-116084008D01*
X169236332Y-116108411D01*
X169292918Y-116134580D01*
X169347126Y-116162517D01*
X169398955Y-116192221D01*
X169448405Y-116223692D01*
X169495476Y-116256931D01*
X169540168Y-116291937D01*
X169582311Y-116328562D01*
X169621735Y-116366661D01*
X169658441Y-116406232D01*
X169692427Y-116447277D01*
X169723694Y-116489793D01*
X169752243Y-116533783D01*
X169778072Y-116579245D01*
X169801183Y-116626180D01*
X169821574Y-116674588D01*
X169839247Y-116724469D01*
X169854201Y-116775822D01*
X169866436Y-116828648D01*
X169875952Y-116882946D01*
X169882749Y-116938718D01*
X169886827Y-116995961D01*
X169888187Y-117054678D01*
X169886289Y-117133831D01*
X169880597Y-117210334D01*
X169871109Y-117284186D01*
X169857826Y-117355387D01*
X169840748Y-117423937D01*
X169819875Y-117489836D01*
X169795207Y-117553084D01*
X169766744Y-117613682D01*
X169734486Y-117671628D01*
X169698432Y-117726923D01*
X169658583Y-117779568D01*
X169614940Y-117829562D01*
X169567500Y-117876904D01*
X169516266Y-117921596D01*
X169461237Y-117963637D01*
X169402412Y-118003027D01*
X169339543Y-118039902D01*
X169272380Y-118074398D01*
X169200924Y-118106515D01*
X169125174Y-118136253D01*
X169045131Y-118163612D01*
X168960794Y-118188592D01*
X168872164Y-118211193D01*
X168779240Y-118231416D01*
X168682023Y-118249259D01*
X168580511Y-118264723D01*
X168474707Y-118277808D01*
X168364608Y-118288514D01*
X168250216Y-118296840D01*
X168131531Y-118302788D01*
X168008551Y-118306357D01*
X167881278Y-118307546D01*
X165474151Y-118307546D01*
X165474151Y-117956625D01*
X166028079Y-117956625D01*
X166028079Y-116132429D01*
X167144641Y-116132429D01*
X167144641Y-117956625D01*
X167559364Y-117956625D01*
X167627483Y-117955764D01*
X167693359Y-117953181D01*
X167756992Y-117948876D01*
X167818382Y-117942850D01*
X167877529Y-117935101D01*
X167934433Y-117925630D01*
X167989095Y-117914438D01*
X168041513Y-117901523D01*
X168091688Y-117886887D01*
X168139620Y-117870528D01*
X168185309Y-117852448D01*
X168228755Y-117832646D01*
X168269958Y-117811121D01*
X168308918Y-117787875D01*
X168345634Y-117762906D01*
X168380107Y-117736215D01*
X168412417Y-117707723D01*
X168442642Y-117677350D01*
X168470782Y-117645096D01*
X168496838Y-117610963D01*
X168520810Y-117574948D01*
X168542697Y-117537053D01*
X168562500Y-117497278D01*
X168580218Y-117455622D01*
X168595852Y-117412086D01*
X168609401Y-117366670D01*
X168620866Y-117319372D01*
X168630246Y-117270194D01*
X168637542Y-117219136D01*
X168642753Y-117166197D01*
X168645880Y-117111378D01*
X168646923Y-117054678D01*
X168645869Y-116997592D01*
X168642708Y-116942341D01*
X168637440Y-116888926D01*
X168630065Y-116837346D01*
X168620583Y-116787602D01*
X168608994Y-116739693D01*
X168595297Y-116693619D01*
X168579493Y-116649381D01*
X168561583Y-116606977D01*
X168541564Y-116566409D01*
X168519439Y-116527676D01*
X168495207Y-116490779D01*
X168468867Y-116455716D01*
X168440420Y-116422489D01*
X168409866Y-116391097D01*
X168377204Y-116361540D01*
X168342403Y-116333795D01*
X168305426Y-116307841D01*
X168266274Y-116283676D01*
X168224946Y-116261302D01*
X168181444Y-116240718D01*
X168135767Y-116221924D01*
X168087915Y-116204919D01*
X168037887Y-116189705D01*
X167985684Y-116176281D01*
X167931307Y-116164647D01*
X167874754Y-116154802D01*
X167816026Y-116146748D01*
X167755123Y-116140483D01*
X167692045Y-116136009D01*
X167626792Y-116133324D01*
X167559364Y-116132429D01*
X167144641Y-116132429D01*
X166028079Y-116132429D01*
X166028079Y-115784410D01*
X166028079Y-114328531D01*
X167144641Y-114328531D01*
X167144641Y-115784410D01*
X167524558Y-115784410D01*
X167585904Y-115783702D01*
X167645233Y-115781578D01*
X167702545Y-115778038D01*
X167757841Y-115773081D01*
X167811121Y-115766709D01*
X167862383Y-115758920D01*
X167911629Y-115749715D01*
X167958859Y-115739095D01*
X168004072Y-115727058D01*
X168047268Y-115713604D01*
X168088448Y-115698735D01*
X168127611Y-115682450D01*
X168164758Y-115664748D01*
X168199888Y-115645631D01*
X168233002Y-115625097D01*
X168264099Y-115603147D01*
X168293248Y-115579737D01*
X168320516Y-115554819D01*
X168345904Y-115528395D01*
X168369411Y-115500465D01*
X168391038Y-115471027D01*
X168410784Y-115440083D01*
X168428650Y-115407632D01*
X168444635Y-115373674D01*
X168458739Y-115338209D01*
X168470963Y-115301238D01*
X168481306Y-115262760D01*
X168489769Y-115222775D01*
X168496351Y-115181284D01*
X168501052Y-115138286D01*
X168503873Y-115093781D01*
X168504814Y-115047769D01*
X168503902Y-115001446D01*
X168501166Y-114956731D01*
X168496606Y-114913624D01*
X168490222Y-114872127D01*
X168482015Y-114832238D01*
X168471983Y-114793958D01*
X168460128Y-114757287D01*
X168446448Y-114722225D01*
X168430945Y-114688771D01*
X168413618Y-114656926D01*
X168394466Y-114626690D01*
X168373491Y-114598062D01*
X168350692Y-114571043D01*
X168326069Y-114545633D01*
X168299621Y-114521832D01*
X168271350Y-114499639D01*
X168241074Y-114478919D01*
X168208611Y-114459536D01*
X168173962Y-114441490D01*
X168137127Y-114424780D01*
X168098105Y-114409407D01*
X168056897Y-114395371D01*
X168013502Y-114382671D01*
X167967921Y-114371309D01*
X167920153Y-114361283D01*
X167870199Y-114352594D01*
X167818059Y-114345241D01*
X167763732Y-114339226D01*
X167707218Y-114334547D01*
X167648518Y-114331205D01*
X167587632Y-114329200D01*
X167524558Y-114328531D01*
X167144641Y-114328531D01*
X166028079Y-114328531D01*
X165474151Y-114328531D01*
X165474151Y-113977609D01*
X168040786Y-113977609D01*
X168138214Y-113978652D01*
G37*
G36*
X157928053Y-113978793D02*
G01*
X158018280Y-113982345D01*
X158105823Y-113988264D01*
X158190681Y-113996551D01*
X158272854Y-114007206D01*
X158352342Y-114020228D01*
X158429145Y-114035618D01*
X158503264Y-114053376D01*
X158574697Y-114073501D01*
X158643445Y-114095994D01*
X158709509Y-114120855D01*
X158772887Y-114148084D01*
X158833581Y-114177680D01*
X158891590Y-114209644D01*
X158946914Y-114243976D01*
X158999553Y-114280676D01*
X159049247Y-114319551D01*
X159095734Y-114360408D01*
X159139015Y-114403248D01*
X159179091Y-114448070D01*
X159215960Y-114494875D01*
X159249623Y-114543662D01*
X159280080Y-114594432D01*
X159307332Y-114647184D01*
X159331377Y-114701919D01*
X159352216Y-114758636D01*
X159369849Y-114817336D01*
X159384277Y-114878019D01*
X159395498Y-114940684D01*
X159403513Y-115005331D01*
X159408322Y-115071961D01*
X159409925Y-115140573D01*
X159408786Y-115196384D01*
X159405371Y-115250711D01*
X159399678Y-115303554D01*
X159391708Y-115354913D01*
X159381461Y-115404788D01*
X159368937Y-115453179D01*
X159354136Y-115500086D01*
X159337058Y-115545508D01*
X159317703Y-115589447D01*
X159296071Y-115631901D01*
X159272161Y-115672872D01*
X159245975Y-115712358D01*
X159217512Y-115750360D01*
X159186771Y-115786879D01*
X159153754Y-115821913D01*
X159118459Y-115855463D01*
X159080865Y-115887540D01*
X159040948Y-115918155D01*
X158998709Y-115947309D01*
X158954147Y-115975003D01*
X158907263Y-116001234D01*
X158858057Y-116026005D01*
X158806528Y-116049314D01*
X158752677Y-116071162D01*
X158696503Y-116091548D01*
X158638008Y-116110473D01*
X158577189Y-116127936D01*
X158514049Y-116143938D01*
X158448585Y-116158479D01*
X158380800Y-116171558D01*
X158310692Y-116183175D01*
X158238262Y-116193331D01*
X158270209Y-116198417D01*
X158301522Y-116204252D01*
X158332200Y-116210833D01*
X158362244Y-116218163D01*
X158391653Y-116226240D01*
X158420428Y-116235065D01*
X158448569Y-116244638D01*
X158476075Y-116254958D01*
X158502946Y-116266026D01*
X158529183Y-116277842D01*
X158554786Y-116290405D01*
X158579755Y-116303716D01*
X158604089Y-116317775D01*
X158627788Y-116332582D01*
X158650853Y-116348137D01*
X158673284Y-116364439D01*
X158695216Y-116381579D01*
X158716786Y-116399649D01*
X158737994Y-116418648D01*
X158758839Y-116438575D01*
X158779321Y-116459432D01*
X158799441Y-116481217D01*
X158819198Y-116503931D01*
X158838593Y-116527574D01*
X158857626Y-116552147D01*
X158876295Y-116577648D01*
X158894603Y-116604078D01*
X158912548Y-116631437D01*
X158930130Y-116659725D01*
X158947349Y-116688941D01*
X158964206Y-116719087D01*
X158980701Y-116750162D01*
X159612935Y-117956625D01*
X160056659Y-117956625D01*
X160056659Y-118307546D01*
X158632682Y-118307546D01*
X157942445Y-116999574D01*
X157893346Y-116902669D01*
X157846106Y-116814962D01*
X157800723Y-116736454D01*
X157757198Y-116667145D01*
X157736132Y-116635940D01*
X157715531Y-116607034D01*
X157695394Y-116580429D01*
X157675722Y-116556123D01*
X157656514Y-116534117D01*
X157637770Y-116514410D01*
X157619491Y-116497004D01*
X157601676Y-116481897D01*
X157583670Y-116468376D01*
X157564813Y-116455727D01*
X157545107Y-116443951D01*
X157524551Y-116433047D01*
X157503145Y-116423015D01*
X157480890Y-116413856D01*
X157457785Y-116405569D01*
X157433830Y-116398154D01*
X157409026Y-116391612D01*
X157383372Y-116385942D01*
X157356869Y-116381144D01*
X157329516Y-116377219D01*
X157301313Y-116374166D01*
X157272260Y-116371985D01*
X157242358Y-116370677D01*
X157211606Y-116370241D01*
X157034696Y-116370241D01*
X157034696Y-117956625D01*
X157591526Y-117956625D01*
X157591526Y-118307546D01*
X155364206Y-118307546D01*
X155364206Y-117956625D01*
X155918136Y-117956625D01*
X155918136Y-116022222D01*
X155918136Y-114328531D01*
X157034696Y-114328531D01*
X157034696Y-116022222D01*
X157414617Y-116022222D01*
X157464639Y-116021361D01*
X157513200Y-116018778D01*
X157560299Y-116014473D01*
X157605937Y-116008447D01*
X157650113Y-116000698D01*
X157692828Y-115991227D01*
X157734081Y-115980034D01*
X157773873Y-115967119D01*
X157812204Y-115952482D01*
X157849073Y-115936123D01*
X157884481Y-115918043D01*
X157918428Y-115898240D01*
X157950913Y-115876715D01*
X157981936Y-115853468D01*
X158011499Y-115828500D01*
X158039600Y-115801809D01*
X158066115Y-115773521D01*
X158090919Y-115743760D01*
X158114013Y-115712527D01*
X158135396Y-115679821D01*
X158155068Y-115645642D01*
X158173030Y-115609990D01*
X158189281Y-115572866D01*
X158203821Y-115534269D01*
X158216651Y-115494199D01*
X158227770Y-115452657D01*
X158237179Y-115409642D01*
X158244877Y-115365154D01*
X158250864Y-115319194D01*
X158255140Y-115271760D01*
X158257706Y-115222854D01*
X158258562Y-115172476D01*
X158257706Y-115122108D01*
X158255140Y-115073236D01*
X158250864Y-115025860D01*
X158244877Y-114979978D01*
X158237179Y-114935592D01*
X158227770Y-114892702D01*
X158216651Y-114851306D01*
X158203821Y-114811406D01*
X158189281Y-114773002D01*
X158173030Y-114736093D01*
X158155068Y-114700679D01*
X158135396Y-114666761D01*
X158114013Y-114634338D01*
X158090919Y-114603410D01*
X158066115Y-114573978D01*
X158039600Y-114546041D01*
X158011499Y-114519702D01*
X157981936Y-114495062D01*
X157950913Y-114472121D01*
X157918428Y-114450880D01*
X157884481Y-114431338D01*
X157849073Y-114413495D01*
X157812204Y-114397352D01*
X157773873Y-114382908D01*
X157734081Y-114370164D01*
X157692828Y-114359118D01*
X157650113Y-114349772D01*
X157605937Y-114342125D01*
X157560299Y-114336178D01*
X157513200Y-114331930D01*
X157464639Y-114329381D01*
X157414617Y-114328531D01*
X157034696Y-114328531D01*
X155918136Y-114328531D01*
X155364206Y-114328531D01*
X155364206Y-113977609D01*
X157835140Y-113977609D01*
X157928053Y-113978793D01*
G37*
G36*
X189429192Y-113900302D02*
G01*
X189525600Y-113903293D01*
X189622959Y-113908277D01*
X189721270Y-113915256D01*
X189820533Y-113924228D01*
X189920747Y-113935195D01*
X190021913Y-113948155D01*
X190124031Y-113963110D01*
X190227099Y-113980058D01*
X190331118Y-113999001D01*
X190436090Y-114019936D01*
X190542014Y-114042866D01*
X190648890Y-114067789D01*
X190756717Y-114094706D01*
X190865496Y-114123616D01*
X190975227Y-114154520D01*
X190975227Y-115111574D01*
X190606906Y-115111574D01*
X190595612Y-115056680D01*
X190582754Y-115003656D01*
X190568332Y-114952501D01*
X190552347Y-114903215D01*
X190534799Y-114855798D01*
X190515688Y-114810251D01*
X190495012Y-114766573D01*
X190472774Y-114724765D01*
X190448972Y-114684825D01*
X190423607Y-114646755D01*
X190396678Y-114610554D01*
X190368187Y-114576222D01*
X190338131Y-114543760D01*
X190306513Y-114513166D01*
X190273331Y-114484442D01*
X190238586Y-114457586D01*
X190202119Y-114432476D01*
X190163771Y-114408986D01*
X190123543Y-114387116D01*
X190081434Y-114366866D01*
X190037445Y-114348236D01*
X189991575Y-114331226D01*
X189943824Y-114315836D01*
X189894193Y-114302066D01*
X189842681Y-114289916D01*
X189789289Y-114279386D01*
X189734016Y-114270476D01*
X189676863Y-114263187D01*
X189617829Y-114257517D01*
X189556914Y-114253467D01*
X189494119Y-114251037D01*
X189429443Y-114250227D01*
X189376611Y-114250810D01*
X189325421Y-114252560D01*
X189275875Y-114255478D01*
X189227971Y-114259562D01*
X189181710Y-114264812D01*
X189137092Y-114271230D01*
X189094116Y-114278815D01*
X189052783Y-114287566D01*
X189013093Y-114297484D01*
X188975045Y-114308569D01*
X188938641Y-114320821D01*
X188903878Y-114334240D01*
X188870759Y-114348826D01*
X188839282Y-114364578D01*
X188809448Y-114381497D01*
X188781257Y-114399584D01*
X188754742Y-114418825D01*
X188729938Y-114439211D01*
X188718178Y-114449833D01*
X188706845Y-114460741D01*
X188695939Y-114471936D01*
X188685462Y-114483416D01*
X188675412Y-114495182D01*
X188665789Y-114507235D01*
X188656594Y-114519573D01*
X188647827Y-114532197D01*
X188639488Y-114545108D01*
X188631576Y-114558305D01*
X188624092Y-114571787D01*
X188617035Y-114585556D01*
X188610406Y-114599611D01*
X188604205Y-114613951D01*
X188598432Y-114628578D01*
X188593086Y-114643491D01*
X188583677Y-114674175D01*
X188575979Y-114706004D01*
X188569992Y-114738976D01*
X188565715Y-114773093D01*
X188563149Y-114808354D01*
X188562293Y-114844759D01*
X188562883Y-114877969D01*
X188564650Y-114910171D01*
X188567595Y-114941365D01*
X188571719Y-114971550D01*
X188577021Y-115000727D01*
X188583501Y-115028896D01*
X188591160Y-115056057D01*
X188599996Y-115082209D01*
X188610011Y-115107353D01*
X188621204Y-115131489D01*
X188633575Y-115154616D01*
X188647124Y-115176735D01*
X188661852Y-115197846D01*
X188677758Y-115217949D01*
X188694842Y-115237043D01*
X188713104Y-115255129D01*
X188733666Y-115272751D01*
X188757649Y-115290452D01*
X188785053Y-115308232D01*
X188815879Y-115326092D01*
X188850126Y-115344031D01*
X188887794Y-115362049D01*
X188928883Y-115380147D01*
X188973394Y-115398324D01*
X189021326Y-115416580D01*
X189072679Y-115434915D01*
X189127453Y-115453330D01*
X189185649Y-115471824D01*
X189247266Y-115490398D01*
X189312304Y-115509051D01*
X189380763Y-115527783D01*
X189452644Y-115546594D01*
X190102279Y-115706106D01*
X190176386Y-115725614D01*
X190247899Y-115746437D01*
X190316818Y-115768573D01*
X190383142Y-115792023D01*
X190446872Y-115816788D01*
X190508008Y-115842866D01*
X190566549Y-115870259D01*
X190622496Y-115898966D01*
X190675849Y-115928986D01*
X190726607Y-115960321D01*
X190774771Y-115992970D01*
X190820341Y-116026934D01*
X190863316Y-116062211D01*
X190903697Y-116098802D01*
X190941484Y-116136708D01*
X190976676Y-116175928D01*
X191009512Y-116216745D01*
X191040230Y-116259443D01*
X191068829Y-116304022D01*
X191095310Y-116350481D01*
X191119672Y-116398821D01*
X191141916Y-116449041D01*
X191162042Y-116501142D01*
X191180049Y-116555124D01*
X191195937Y-116610986D01*
X191209708Y-116668729D01*
X191221359Y-116728353D01*
X191230892Y-116789857D01*
X191238307Y-116853241D01*
X191243603Y-116918506D01*
X191246781Y-116985652D01*
X191247840Y-117054678D01*
X191246073Y-117135378D01*
X191240771Y-117213620D01*
X191231935Y-117289404D01*
X191219563Y-117362729D01*
X191203658Y-117433596D01*
X191184217Y-117502004D01*
X191161243Y-117567955D01*
X191134733Y-117631446D01*
X191104689Y-117692479D01*
X191071111Y-117751054D01*
X191033997Y-117807171D01*
X190993350Y-117860829D01*
X190949167Y-117912029D01*
X190901451Y-117960770D01*
X190850199Y-118007054D01*
X190795413Y-118050878D01*
X190737196Y-118092144D01*
X190675647Y-118130747D01*
X190610768Y-118166688D01*
X190542558Y-118199966D01*
X190471017Y-118230583D01*
X190396146Y-118258537D01*
X190317943Y-118283829D01*
X190236411Y-118306458D01*
X190151547Y-118326426D01*
X190063353Y-118343731D01*
X189971828Y-118358374D01*
X189876973Y-118370354D01*
X189778786Y-118379672D01*
X189677270Y-118386328D01*
X189572422Y-118390322D01*
X189464244Y-118391653D01*
X189358480Y-118390520D01*
X189252896Y-118387121D01*
X189147494Y-118381456D01*
X189042273Y-118373525D01*
X188937232Y-118363329D01*
X188832373Y-118350866D01*
X188727695Y-118336138D01*
X188623199Y-118319143D01*
X188518566Y-118299840D01*
X188413481Y-118278180D01*
X188307942Y-118254164D01*
X188201951Y-118227791D01*
X188095506Y-118199061D01*
X187988608Y-118167974D01*
X187881256Y-118134530D01*
X187773452Y-118098730D01*
X187773452Y-117072077D01*
X188141773Y-117072077D01*
X188153181Y-117132017D01*
X188166378Y-117190032D01*
X188181366Y-117246120D01*
X188198144Y-117300283D01*
X188216712Y-117352520D01*
X188237070Y-117402831D01*
X188259217Y-117451216D01*
X188283155Y-117497676D01*
X188308882Y-117542209D01*
X188336400Y-117584817D01*
X188365707Y-117625498D01*
X188396805Y-117664254D01*
X188429692Y-117701083D01*
X188464369Y-117735987D01*
X188500836Y-117768965D01*
X188539093Y-117800016D01*
X188579185Y-117829165D01*
X188621158Y-117856434D01*
X188665012Y-117881822D01*
X188710747Y-117905329D01*
X188758362Y-117926956D01*
X188807857Y-117946702D01*
X188859233Y-117964568D01*
X188912490Y-117980552D01*
X188967627Y-117994657D01*
X189024645Y-118006881D01*
X189083543Y-118017224D01*
X189144322Y-118025687D01*
X189206981Y-118032269D01*
X189271521Y-118036970D01*
X189337941Y-118039791D01*
X189406242Y-118040731D01*
X189461593Y-118040063D01*
X189515268Y-118038058D01*
X189567267Y-118034716D01*
X189617589Y-118030037D01*
X189666234Y-118024021D01*
X189713203Y-118016669D01*
X189758496Y-118007979D01*
X189802112Y-117997953D01*
X189844051Y-117986590D01*
X189884313Y-117973891D01*
X189922899Y-117959854D01*
X189959808Y-117944481D01*
X189995041Y-117927771D01*
X190028597Y-117909724D01*
X190060476Y-117890340D01*
X190090679Y-117869619D01*
X190119125Y-117847608D01*
X190145736Y-117824350D01*
X190170512Y-117799846D01*
X190193453Y-117774096D01*
X190214558Y-117747100D01*
X190233829Y-117718857D01*
X190251264Y-117689369D01*
X190266863Y-117658634D01*
X190280628Y-117626653D01*
X190292557Y-117593426D01*
X190302651Y-117558953D01*
X190310909Y-117523233D01*
X190317333Y-117486268D01*
X190321921Y-117448056D01*
X190324674Y-117408599D01*
X190325592Y-117367895D01*
X190324968Y-117335721D01*
X190323099Y-117304453D01*
X190319984Y-117274092D01*
X190315622Y-117244637D01*
X190310014Y-117216089D01*
X190303161Y-117188446D01*
X190295060Y-117161710D01*
X190285714Y-117135881D01*
X190275122Y-117110958D01*
X190263283Y-117086941D01*
X190250198Y-117063830D01*
X190235867Y-117041626D01*
X190220289Y-117020329D01*
X190203466Y-116999937D01*
X190185396Y-116980452D01*
X190166080Y-116961874D01*
X190144816Y-116943827D01*
X190120901Y-116925939D01*
X190094335Y-116908210D01*
X190065119Y-116890639D01*
X190033251Y-116873226D01*
X189998733Y-116855973D01*
X189961563Y-116838877D01*
X189921743Y-116821941D01*
X189879272Y-116805163D01*
X189834149Y-116788543D01*
X189786376Y-116772082D01*
X189735952Y-116755780D01*
X189682877Y-116739636D01*
X189627152Y-116723651D01*
X189568775Y-116707824D01*
X189507747Y-116692156D01*
X188858112Y-116532648D01*
X188780193Y-116511855D01*
X188705219Y-116490076D01*
X188633190Y-116467311D01*
X188564107Y-116443560D01*
X188497970Y-116418824D01*
X188434778Y-116393102D01*
X188374532Y-116366394D01*
X188317231Y-116338701D01*
X188262875Y-116310022D01*
X188211465Y-116280358D01*
X188163001Y-116249708D01*
X188117482Y-116218072D01*
X188074909Y-116185451D01*
X188035281Y-116151844D01*
X187998599Y-116117252D01*
X187964862Y-116081674D01*
X187933607Y-116044647D01*
X187904368Y-116005704D01*
X187877145Y-115964847D01*
X187851939Y-115922076D01*
X187828749Y-115877390D01*
X187807575Y-115830789D01*
X187788418Y-115782274D01*
X187771278Y-115731844D01*
X187756154Y-115679499D01*
X187743046Y-115625240D01*
X187731955Y-115569067D01*
X187722881Y-115510979D01*
X187715823Y-115450976D01*
X187710782Y-115389059D01*
X187707757Y-115325227D01*
X187706748Y-115259481D01*
X187708419Y-115180117D01*
X187713432Y-115102985D01*
X187721788Y-115028085D01*
X187733485Y-114955417D01*
X187748524Y-114884980D01*
X187766905Y-114816775D01*
X187788628Y-114750802D01*
X187813693Y-114687061D01*
X187842099Y-114625552D01*
X187873848Y-114566274D01*
X187908939Y-114509228D01*
X187947372Y-114454414D01*
X187989146Y-114401832D01*
X188034263Y-114351481D01*
X188082721Y-114303362D01*
X188134521Y-114257475D01*
X188189335Y-114214103D01*
X188246834Y-114173529D01*
X188307018Y-114135754D01*
X188369887Y-114100777D01*
X188435441Y-114068597D01*
X188503680Y-114039216D01*
X188574603Y-114012633D01*
X188648212Y-113988849D01*
X188724505Y-113967862D01*
X188803484Y-113949673D01*
X188885147Y-113934283D01*
X188969495Y-113921691D01*
X189056528Y-113911897D01*
X189146246Y-113904902D01*
X189238648Y-113900704D01*
X189333736Y-113899305D01*
X189429192Y-113900302D01*
G37*
G36*
X185303742Y-113900755D02*
G01*
X185401668Y-113905106D01*
X185500591Y-113912357D01*
X185600511Y-113922508D01*
X185701427Y-113935559D01*
X185803340Y-113951510D01*
X185906251Y-113970361D01*
X186010158Y-113992113D01*
X186115334Y-114016809D01*
X186222051Y-114044496D01*
X186330309Y-114075174D01*
X186440107Y-114108844D01*
X186551446Y-114145504D01*
X186664325Y-114185155D01*
X186778745Y-114227796D01*
X186894706Y-114273428D01*
X186894706Y-115337786D01*
X186526386Y-115337786D01*
X186511522Y-115270702D01*
X186495209Y-115205760D01*
X186477445Y-115142959D01*
X186458232Y-115082299D01*
X186437568Y-115023780D01*
X186415455Y-114967403D01*
X186391891Y-114913166D01*
X186366877Y-114861071D01*
X186340413Y-114811117D01*
X186312499Y-114763304D01*
X186283135Y-114717632D01*
X186252321Y-114674101D01*
X186220056Y-114632712D01*
X186186342Y-114593464D01*
X186151177Y-114556357D01*
X186114562Y-114521391D01*
X186076475Y-114488555D01*
X186036892Y-114457837D01*
X185995814Y-114429238D01*
X185953241Y-114402757D01*
X185909172Y-114378395D01*
X185863608Y-114356151D01*
X185816549Y-114336025D01*
X185767994Y-114318018D01*
X185717944Y-114302130D01*
X185666398Y-114288360D01*
X185613357Y-114276708D01*
X185558821Y-114267175D01*
X185502789Y-114259760D01*
X185445262Y-114254464D01*
X185386239Y-114251286D01*
X185325721Y-114250227D01*
X185247961Y-114252045D01*
X185172738Y-114257500D01*
X185100053Y-114266591D01*
X185029905Y-114279319D01*
X184962295Y-114295683D01*
X184897223Y-114315684D01*
X184834688Y-114339322D01*
X184774691Y-114366596D01*
X184717232Y-114397506D01*
X184662310Y-114432053D01*
X184609926Y-114470236D01*
X184560079Y-114512056D01*
X184512770Y-114557512D01*
X184467999Y-114606605D01*
X184425766Y-114659334D01*
X184386070Y-114715700D01*
X184348843Y-114775839D01*
X184314019Y-114839886D01*
X184281596Y-114907841D01*
X184251575Y-114979705D01*
X184223956Y-115055478D01*
X184198738Y-115135158D01*
X184175922Y-115218747D01*
X184155508Y-115306245D01*
X184137495Y-115397651D01*
X184121885Y-115492965D01*
X184108675Y-115592188D01*
X184097868Y-115695319D01*
X184089462Y-115802359D01*
X184083458Y-115913307D01*
X184079856Y-116028163D01*
X184078655Y-116146929D01*
X184079856Y-116265687D01*
X184083458Y-116380527D01*
X184089462Y-116491446D01*
X184097868Y-116598446D01*
X184108675Y-116701526D01*
X184121885Y-116800686D01*
X184137495Y-116895927D01*
X184155508Y-116987248D01*
X184175922Y-117074649D01*
X184198738Y-117158130D01*
X184223956Y-117237692D01*
X184251575Y-117313334D01*
X184281596Y-117385056D01*
X184314019Y-117452858D01*
X184348843Y-117516741D01*
X184386070Y-117576704D01*
X184405606Y-117605253D01*
X184425788Y-117632895D01*
X184446616Y-117659631D01*
X184468090Y-117685461D01*
X184490209Y-117710384D01*
X184512974Y-117734401D01*
X184536385Y-117757512D01*
X184560441Y-117779716D01*
X184585144Y-117801015D01*
X184610492Y-117821406D01*
X184636485Y-117840892D01*
X184663125Y-117859471D01*
X184690410Y-117877144D01*
X184718341Y-117893911D01*
X184746917Y-117909771D01*
X184776140Y-117924725D01*
X184806008Y-117938773D01*
X184836522Y-117951914D01*
X184867681Y-117964149D01*
X184899487Y-117975478D01*
X184931938Y-117985900D01*
X184965035Y-117995416D01*
X185033166Y-118011730D01*
X185103880Y-118024418D01*
X185177176Y-118033481D01*
X185253056Y-118038919D01*
X185331520Y-118040731D01*
X185384918Y-118039791D01*
X185437081Y-118036970D01*
X185488009Y-118032269D01*
X185537703Y-118025687D01*
X185586161Y-118017224D01*
X185633385Y-118006881D01*
X185679374Y-117994657D01*
X185724129Y-117980552D01*
X185767648Y-117964568D01*
X185809933Y-117946702D01*
X185850982Y-117926956D01*
X185890797Y-117905329D01*
X185929377Y-117881822D01*
X185966722Y-117856434D01*
X186002832Y-117829165D01*
X186037708Y-117800016D01*
X186071383Y-117768965D01*
X186103891Y-117735987D01*
X186135232Y-117701083D01*
X186165406Y-117664254D01*
X186194413Y-117625498D01*
X186222254Y-117584817D01*
X186248927Y-117542209D01*
X186274434Y-117497676D01*
X186298773Y-117451216D01*
X186321946Y-117402831D01*
X186343952Y-117352520D01*
X186364791Y-117300283D01*
X186384464Y-117246120D01*
X186402970Y-117190032D01*
X186420309Y-117132017D01*
X186436481Y-117072077D01*
X187013610Y-117072077D01*
X186991157Y-117154471D01*
X186966574Y-117234168D01*
X186939861Y-117311170D01*
X186911018Y-117385475D01*
X186880046Y-117457084D01*
X186846943Y-117525997D01*
X186811711Y-117592214D01*
X186774349Y-117655734D01*
X186734857Y-117716558D01*
X186693235Y-117774686D01*
X186649483Y-117830117D01*
X186603601Y-117882853D01*
X186555590Y-117932892D01*
X186505449Y-117980235D01*
X186453178Y-118024881D01*
X186398776Y-118066831D01*
X186342122Y-118106165D01*
X186283088Y-118142961D01*
X186221675Y-118177219D01*
X186157883Y-118208940D01*
X186091712Y-118238123D01*
X186023162Y-118264768D01*
X185952233Y-118288876D01*
X185878925Y-118310447D01*
X185803238Y-118329479D01*
X185725172Y-118345974D01*
X185644727Y-118359932D01*
X185561902Y-118371351D01*
X185476699Y-118380233D01*
X185389116Y-118386577D01*
X185299154Y-118390384D01*
X185206813Y-118391653D01*
X185071577Y-118389291D01*
X184939931Y-118382205D01*
X184811877Y-118370394D01*
X184687413Y-118353860D01*
X184566541Y-118332602D01*
X184449260Y-118306619D01*
X184335571Y-118275912D01*
X184225472Y-118240482D01*
X184118965Y-118200327D01*
X184016049Y-118155448D01*
X183916725Y-118105844D01*
X183820992Y-118051517D01*
X183728850Y-117992466D01*
X183640299Y-117928690D01*
X183555340Y-117860190D01*
X183473972Y-117786966D01*
X183396885Y-117709698D01*
X183324772Y-117629066D01*
X183257633Y-117545069D01*
X183195466Y-117457708D01*
X183138273Y-117366981D01*
X183086053Y-117272890D01*
X183038807Y-117175435D01*
X182996533Y-117074615D01*
X182959233Y-116970430D01*
X182926907Y-116862881D01*
X182899553Y-116751967D01*
X182877173Y-116637688D01*
X182859767Y-116520045D01*
X182847333Y-116399038D01*
X182839873Y-116274665D01*
X182837387Y-116146929D01*
X182839873Y-116018840D01*
X182847333Y-115894138D01*
X182859767Y-115772824D01*
X182877173Y-115654898D01*
X182899553Y-115540358D01*
X182926907Y-115429206D01*
X182959233Y-115321442D01*
X182996533Y-115217064D01*
X183038807Y-115116074D01*
X183086053Y-115018471D01*
X183138273Y-114924256D01*
X183195466Y-114833428D01*
X183257633Y-114745987D01*
X183324772Y-114661933D01*
X183396885Y-114581267D01*
X183473972Y-114503988D01*
X183555340Y-114430765D01*
X183640299Y-114362266D01*
X183728850Y-114298490D01*
X183820992Y-114239439D01*
X183916725Y-114185112D01*
X184016049Y-114135509D01*
X184118965Y-114090631D01*
X184225472Y-114050476D01*
X184335571Y-114015045D01*
X184449260Y-113984339D01*
X184566541Y-113958356D01*
X184687413Y-113937098D01*
X184811877Y-113920564D01*
X184939931Y-113908753D01*
X185071577Y-113901667D01*
X185206813Y-113899305D01*
X185303742Y-113900755D01*
G37*
G36*
X172934768Y-113901639D02*
G01*
X173065898Y-113908640D01*
X173193335Y-113920309D01*
X173317079Y-113936645D01*
X173437129Y-113957649D01*
X173553487Y-113983320D01*
X173666151Y-114013658D01*
X173775122Y-114048664D01*
X173880400Y-114088338D01*
X173981985Y-114132679D01*
X174079877Y-114181687D01*
X174174075Y-114235363D01*
X174264581Y-114293706D01*
X174351393Y-114356717D01*
X174434512Y-114424395D01*
X174513938Y-114496740D01*
X174589093Y-114573197D01*
X174659400Y-114653212D01*
X174724857Y-114736783D01*
X174785466Y-114823912D01*
X174841226Y-114914599D01*
X174892137Y-115008842D01*
X174938200Y-115106643D01*
X174979413Y-115208001D01*
X175015779Y-115312917D01*
X175047295Y-115421390D01*
X175073962Y-115533420D01*
X175095781Y-115649007D01*
X175112752Y-115768152D01*
X175124873Y-115890853D01*
X175132146Y-116017112D01*
X175134571Y-116146929D01*
X175132141Y-116276393D01*
X175124851Y-116402323D01*
X175112701Y-116524718D01*
X175095691Y-116643579D01*
X175073821Y-116758906D01*
X175047091Y-116870698D01*
X175015501Y-116978955D01*
X174979051Y-117083678D01*
X174937741Y-117184867D01*
X174891570Y-117282520D01*
X174840540Y-117376640D01*
X174784650Y-117467225D01*
X174723900Y-117554275D01*
X174658290Y-117637790D01*
X174587819Y-117717771D01*
X174512489Y-117794218D01*
X174432899Y-117866563D01*
X174349650Y-117934240D01*
X174262741Y-117997251D01*
X174172174Y-118055594D01*
X174077947Y-118109269D01*
X173980061Y-118158278D01*
X173878516Y-118202619D01*
X173773312Y-118242292D01*
X173664448Y-118277298D01*
X173551925Y-118307637D01*
X173435743Y-118333309D01*
X173315902Y-118354312D01*
X173192402Y-118370649D01*
X173065242Y-118382318D01*
X172934423Y-118389319D01*
X172799945Y-118391653D01*
X172665122Y-118389319D01*
X172533992Y-118382318D01*
X172406555Y-118370649D01*
X172282812Y-118354312D01*
X172162761Y-118333309D01*
X172046404Y-118307637D01*
X171933740Y-118277298D01*
X171824768Y-118242292D01*
X171719490Y-118202619D01*
X171617906Y-118158278D01*
X171520014Y-118109269D01*
X171425815Y-118055594D01*
X171335310Y-117997251D01*
X171248497Y-117934240D01*
X171165378Y-117866563D01*
X171085952Y-117794218D01*
X171010797Y-117717771D01*
X170940491Y-117637790D01*
X170875033Y-117554275D01*
X170814425Y-117467225D01*
X170758665Y-117376640D01*
X170707753Y-117282520D01*
X170661691Y-117184867D01*
X170620477Y-117083678D01*
X170584112Y-116978955D01*
X170552596Y-116870698D01*
X170525928Y-116758906D01*
X170504109Y-116643579D01*
X170487139Y-116524718D01*
X170475017Y-116402323D01*
X170467744Y-116276393D01*
X170465320Y-116146929D01*
X171706584Y-116146929D01*
X171710821Y-116377242D01*
X171716118Y-116486774D01*
X171723532Y-116592556D01*
X171733066Y-116694588D01*
X171744717Y-116792871D01*
X171758488Y-116887403D01*
X171774376Y-116978186D01*
X171792384Y-117065220D01*
X171812509Y-117148503D01*
X171834754Y-117228036D01*
X171859116Y-117303820D01*
X171885597Y-117375854D01*
X171914197Y-117444138D01*
X171944915Y-117508672D01*
X171977752Y-117569456D01*
X171994973Y-117598450D01*
X172012741Y-117626524D01*
X172031055Y-117653678D01*
X172049916Y-117679911D01*
X172069323Y-117705223D01*
X172089277Y-117729615D01*
X172109778Y-117753087D01*
X172130825Y-117775638D01*
X172152419Y-117797269D01*
X172174559Y-117817979D01*
X172197246Y-117837769D01*
X172220480Y-117856639D01*
X172244260Y-117874588D01*
X172268587Y-117891616D01*
X172293461Y-117907724D01*
X172318881Y-117922912D01*
X172344848Y-117937179D01*
X172371361Y-117950526D01*
X172398421Y-117962952D01*
X172426028Y-117974458D01*
X172454181Y-117985043D01*
X172482881Y-117994708D01*
X172512128Y-118003452D01*
X172541921Y-118011276D01*
X172572261Y-118018180D01*
X172603147Y-118024163D01*
X172634580Y-118029225D01*
X172666560Y-118033368D01*
X172699086Y-118036589D01*
X172732159Y-118038890D01*
X172799945Y-118040731D01*
X172868076Y-118038907D01*
X172933987Y-118033435D01*
X172997677Y-118024316D01*
X173059146Y-118011548D01*
X173118395Y-117995133D01*
X173175424Y-117975069D01*
X173230232Y-117951358D01*
X173282820Y-117923999D01*
X173333188Y-117892992D01*
X173381335Y-117858337D01*
X173427261Y-117820035D01*
X173470967Y-117778085D01*
X173512453Y-117732486D01*
X173551719Y-117683240D01*
X173588764Y-117630346D01*
X173623588Y-117573805D01*
X173656249Y-117513513D01*
X173686802Y-117449370D01*
X173715249Y-117381375D01*
X173741588Y-117309528D01*
X173765820Y-117233830D01*
X173787945Y-117154280D01*
X173807963Y-117070878D01*
X173825874Y-116983624D01*
X173841677Y-116892518D01*
X173855374Y-116797561D01*
X173866963Y-116698752D01*
X173876445Y-116596091D01*
X173883820Y-116489578D01*
X173889088Y-116379213D01*
X173892249Y-116264997D01*
X173893302Y-116146929D01*
X173889088Y-115913965D01*
X173883820Y-115803295D01*
X173876445Y-115696499D01*
X173866963Y-115593577D01*
X173855374Y-115494530D01*
X173841677Y-115399357D01*
X173825874Y-115308058D01*
X173807963Y-115220634D01*
X173787945Y-115137084D01*
X173765820Y-115057409D01*
X173741588Y-114981608D01*
X173715249Y-114909682D01*
X173686802Y-114841630D01*
X173656249Y-114777452D01*
X173623588Y-114717150D01*
X173606453Y-114688423D01*
X173588764Y-114660609D01*
X173570519Y-114633706D01*
X173551719Y-114607715D01*
X173532363Y-114582637D01*
X173512453Y-114558470D01*
X173491988Y-114535215D01*
X173470967Y-114512872D01*
X173449392Y-114491441D01*
X173427261Y-114470922D01*
X173404576Y-114451315D01*
X173381335Y-114432620D01*
X173357539Y-114414836D01*
X173333188Y-114397965D01*
X173308281Y-114382006D01*
X173282820Y-114366958D01*
X173256804Y-114352823D01*
X173230232Y-114339600D01*
X173203106Y-114327288D01*
X173175424Y-114315888D01*
X173147187Y-114305401D01*
X173118395Y-114295825D01*
X173089048Y-114287162D01*
X173059146Y-114279410D01*
X173028689Y-114272570D01*
X172997677Y-114266642D01*
X172966109Y-114261626D01*
X172933987Y-114257523D01*
X172901309Y-114254331D01*
X172868076Y-114252051D01*
X172799945Y-114250227D01*
X172732159Y-114252068D01*
X172666560Y-114257591D01*
X172603147Y-114266795D01*
X172541921Y-114279682D01*
X172482881Y-114296250D01*
X172426028Y-114316500D01*
X172371361Y-114340432D01*
X172318881Y-114368046D01*
X172268587Y-114399342D01*
X172220480Y-114434319D01*
X172174559Y-114472979D01*
X172130825Y-114515320D01*
X172089277Y-114561343D01*
X172049916Y-114611047D01*
X172012741Y-114664434D01*
X171977752Y-114721502D01*
X171944915Y-114782298D01*
X171914197Y-114846866D01*
X171885597Y-114915206D01*
X171859116Y-114987319D01*
X171834754Y-115063204D01*
X171812509Y-115142862D01*
X171792384Y-115226293D01*
X171774376Y-115313496D01*
X171758488Y-115404471D01*
X171744717Y-115499219D01*
X171733066Y-115597740D01*
X171723532Y-115700033D01*
X171716118Y-115806098D01*
X171710821Y-115915936D01*
X171707644Y-116029546D01*
X171706584Y-116146929D01*
X170465320Y-116146929D01*
X170467750Y-116017458D01*
X170475040Y-115891511D01*
X170487190Y-115769087D01*
X170504200Y-115650186D01*
X170526070Y-115534808D01*
X170552800Y-115422954D01*
X170584390Y-115314623D01*
X170620840Y-115209815D01*
X170662150Y-115108530D01*
X170708320Y-115010769D01*
X170759350Y-114916531D01*
X170815241Y-114825816D01*
X170875991Y-114738625D01*
X170941601Y-114654956D01*
X171012071Y-114574811D01*
X171087402Y-114498190D01*
X171166992Y-114425668D01*
X171250241Y-114357826D01*
X171337149Y-114294662D01*
X171427717Y-114236177D01*
X171521944Y-114182371D01*
X171619830Y-114133244D01*
X171721375Y-114088795D01*
X171826579Y-114049026D01*
X171935443Y-114013935D01*
X172047965Y-113983523D01*
X172164147Y-113957790D01*
X172283988Y-113936735D01*
X172407489Y-113920360D01*
X172534648Y-113908663D01*
X172665467Y-113901645D01*
X172799945Y-113899305D01*
X172934768Y-113901639D01*
G37*
G36*
X162740719Y-113901639D02*
G01*
X162871848Y-113908640D01*
X162999285Y-113920309D01*
X163123029Y-113936645D01*
X163243079Y-113957649D01*
X163359437Y-113983320D01*
X163472101Y-114013658D01*
X163581072Y-114048664D01*
X163686350Y-114088338D01*
X163787935Y-114132679D01*
X163885827Y-114181687D01*
X163980025Y-114235363D01*
X164070531Y-114293706D01*
X164157343Y-114356717D01*
X164240462Y-114424395D01*
X164319889Y-114496740D01*
X164395044Y-114573197D01*
X164465350Y-114653212D01*
X164530807Y-114736783D01*
X164591416Y-114823912D01*
X164647176Y-114914599D01*
X164698087Y-115008842D01*
X164744150Y-115106643D01*
X164785364Y-115208001D01*
X164821729Y-115312917D01*
X164853245Y-115421390D01*
X164879913Y-115533420D01*
X164901732Y-115649007D01*
X164918702Y-115768152D01*
X164930823Y-115890853D01*
X164938096Y-116017112D01*
X164940521Y-116146929D01*
X164938091Y-116276393D01*
X164930801Y-116402323D01*
X164918651Y-116524718D01*
X164901641Y-116643579D01*
X164879771Y-116758906D01*
X164853041Y-116870698D01*
X164821451Y-116978955D01*
X164785001Y-117083678D01*
X164743691Y-117184867D01*
X164697521Y-117282520D01*
X164646490Y-117376640D01*
X164590600Y-117467225D01*
X164529850Y-117554275D01*
X164464240Y-117637790D01*
X164393769Y-117717771D01*
X164318439Y-117794218D01*
X164238849Y-117866563D01*
X164155600Y-117934240D01*
X164068691Y-117997251D01*
X163978123Y-118055594D01*
X163883896Y-118109269D01*
X163786010Y-118158278D01*
X163684465Y-118202619D01*
X163579260Y-118242292D01*
X163470397Y-118277298D01*
X163357874Y-118307637D01*
X163241692Y-118333309D01*
X163121851Y-118354312D01*
X162998351Y-118370649D01*
X162871191Y-118382318D01*
X162740373Y-118389319D01*
X162605895Y-118391653D01*
X162471072Y-118389319D01*
X162339942Y-118382318D01*
X162212506Y-118370649D01*
X162088762Y-118354312D01*
X161968711Y-118333309D01*
X161852354Y-118307637D01*
X161739690Y-118277298D01*
X161630719Y-118242292D01*
X161525441Y-118202619D01*
X161423856Y-118158278D01*
X161325964Y-118109269D01*
X161231765Y-118055594D01*
X161141260Y-117997251D01*
X161054448Y-117934240D01*
X160971328Y-117866563D01*
X160891902Y-117794218D01*
X160816748Y-117717771D01*
X160746442Y-117637790D01*
X160680985Y-117554275D01*
X160620376Y-117467225D01*
X160564616Y-117376640D01*
X160513705Y-117282520D01*
X160467643Y-117184867D01*
X160426429Y-117083678D01*
X160390064Y-116978955D01*
X160358547Y-116870698D01*
X160331879Y-116758906D01*
X160310060Y-116643579D01*
X160293089Y-116524718D01*
X160280968Y-116402323D01*
X160273695Y-116276393D01*
X160271270Y-116146929D01*
X161512538Y-116146929D01*
X161516775Y-116377242D01*
X161522071Y-116486774D01*
X161529486Y-116592556D01*
X161539019Y-116694588D01*
X161550670Y-116792871D01*
X161564440Y-116887403D01*
X161580328Y-116978186D01*
X161598335Y-117065220D01*
X161618461Y-117148503D01*
X161640705Y-117228036D01*
X161665067Y-117303820D01*
X161691548Y-117375854D01*
X161720148Y-117444138D01*
X161750866Y-117508672D01*
X161783702Y-117569456D01*
X161800923Y-117598450D01*
X161818691Y-117626524D01*
X161837005Y-117653678D01*
X161855866Y-117679911D01*
X161875273Y-117705223D01*
X161895227Y-117729615D01*
X161915728Y-117753087D01*
X161936776Y-117775638D01*
X161958369Y-117797269D01*
X161980510Y-117817979D01*
X162003197Y-117837769D01*
X162026431Y-117856639D01*
X162050212Y-117874588D01*
X162074539Y-117891616D01*
X162099412Y-117907724D01*
X162124833Y-117922912D01*
X162150799Y-117937179D01*
X162177313Y-117950526D01*
X162204373Y-117962952D01*
X162231980Y-117974458D01*
X162260133Y-117985043D01*
X162288833Y-117994708D01*
X162318080Y-118003452D01*
X162347873Y-118011276D01*
X162378213Y-118018180D01*
X162409099Y-118024163D01*
X162440532Y-118029225D01*
X162472511Y-118033368D01*
X162505038Y-118036589D01*
X162538110Y-118038890D01*
X162605895Y-118040731D01*
X162674027Y-118038907D01*
X162739938Y-118033435D01*
X162803628Y-118024316D01*
X162865098Y-118011548D01*
X162924348Y-117995133D01*
X162981377Y-117975069D01*
X163036185Y-117951358D01*
X163088773Y-117923999D01*
X163139141Y-117892992D01*
X163187288Y-117858337D01*
X163233214Y-117820035D01*
X163276920Y-117778085D01*
X163318405Y-117732486D01*
X163357670Y-117683240D01*
X163394714Y-117630346D01*
X163429538Y-117573805D01*
X163462199Y-117513513D01*
X163492752Y-117449370D01*
X163521199Y-117381375D01*
X163547538Y-117309528D01*
X163571770Y-117233830D01*
X163593895Y-117154280D01*
X163613913Y-117070878D01*
X163631824Y-116983624D01*
X163647628Y-116892518D01*
X163661324Y-116797561D01*
X163672913Y-116698752D01*
X163682395Y-116596091D01*
X163689770Y-116489578D01*
X163695038Y-116379213D01*
X163698199Y-116264997D01*
X163699253Y-116146929D01*
X163695038Y-115913965D01*
X163689770Y-115803295D01*
X163682395Y-115696499D01*
X163672913Y-115593577D01*
X163661324Y-115494530D01*
X163647628Y-115399357D01*
X163631824Y-115308058D01*
X163613913Y-115220634D01*
X163593895Y-115137084D01*
X163571770Y-115057409D01*
X163547538Y-114981608D01*
X163521199Y-114909682D01*
X163492752Y-114841630D01*
X163462199Y-114777452D01*
X163429538Y-114717150D01*
X163412404Y-114688423D01*
X163394714Y-114660609D01*
X163376470Y-114633706D01*
X163357670Y-114607715D01*
X163338315Y-114582637D01*
X163318405Y-114558470D01*
X163297940Y-114535215D01*
X163276920Y-114512872D01*
X163255344Y-114491441D01*
X163233214Y-114470922D01*
X163210528Y-114451315D01*
X163187288Y-114432620D01*
X163163492Y-114414836D01*
X163139141Y-114397965D01*
X163114234Y-114382006D01*
X163088773Y-114366958D01*
X163062757Y-114352823D01*
X163036185Y-114339600D01*
X163009059Y-114327288D01*
X162981377Y-114315888D01*
X162953140Y-114305401D01*
X162924348Y-114295825D01*
X162895001Y-114287162D01*
X162865098Y-114279410D01*
X162834641Y-114272570D01*
X162803628Y-114266642D01*
X162772061Y-114261626D01*
X162739938Y-114257523D01*
X162707260Y-114254331D01*
X162674027Y-114252051D01*
X162605895Y-114250227D01*
X162538110Y-114252068D01*
X162472511Y-114257591D01*
X162409099Y-114266795D01*
X162347873Y-114279682D01*
X162288833Y-114296250D01*
X162231980Y-114316500D01*
X162177313Y-114340432D01*
X162124833Y-114368046D01*
X162074539Y-114399342D01*
X162026431Y-114434319D01*
X161980510Y-114472979D01*
X161936776Y-114515320D01*
X161895227Y-114561343D01*
X161855866Y-114611047D01*
X161818691Y-114664434D01*
X161783702Y-114721502D01*
X161750866Y-114782298D01*
X161720148Y-114846866D01*
X161691548Y-114915206D01*
X161665067Y-114987319D01*
X161640705Y-115063204D01*
X161618461Y-115142862D01*
X161598335Y-115226293D01*
X161580328Y-115313496D01*
X161564440Y-115404471D01*
X161550670Y-115499219D01*
X161539019Y-115597740D01*
X161529486Y-115700033D01*
X161522071Y-115806098D01*
X161516775Y-115915936D01*
X161513598Y-116029546D01*
X161512538Y-116146929D01*
X160271270Y-116146929D01*
X160273700Y-116017458D01*
X160280990Y-115891511D01*
X160293140Y-115769087D01*
X160310150Y-115650186D01*
X160332020Y-115534808D01*
X160358750Y-115422954D01*
X160390340Y-115314623D01*
X160426790Y-115209815D01*
X160468100Y-115108530D01*
X160514270Y-115010769D01*
X160565300Y-114916531D01*
X160621191Y-114825816D01*
X160681941Y-114738625D01*
X160747551Y-114654956D01*
X160818022Y-114574811D01*
X160893352Y-114498190D01*
X160972942Y-114425668D01*
X161056191Y-114357826D01*
X161143100Y-114294662D01*
X161233668Y-114236177D01*
X161327895Y-114182371D01*
X161425781Y-114133244D01*
X161527326Y-114088795D01*
X161632531Y-114049026D01*
X161741394Y-114013935D01*
X161853917Y-113983523D01*
X161970099Y-113957790D01*
X162089940Y-113936735D01*
X162213440Y-113920360D01*
X162340600Y-113908663D01*
X162471418Y-113901645D01*
X162605895Y-113899305D01*
X162740719Y-113901639D01*
G37*
D11*
X192971420Y-137675543D02*
X186773654Y-137675543D01*
X186773654Y-131606909D01*
X192971420Y-131606909D01*
X192971420Y-137675543D01*
X159916696Y-137675543D02*
X153848054Y-137675543D01*
X153848054Y-131606909D01*
X159916696Y-131606909D01*
X159916696Y-137675543D01*
X173870088Y-126971858D02*
X174388113Y-127011249D01*
X174898605Y-127076118D01*
X175400926Y-127165823D01*
X175894432Y-127279724D01*
X176378484Y-127417179D01*
X176852440Y-127577548D01*
X177315661Y-127760190D01*
X177767503Y-127964463D01*
X178207328Y-128189728D01*
X178634494Y-128435343D01*
X179048359Y-128700667D01*
X179448284Y-128985059D01*
X179833626Y-129287879D01*
X180203746Y-129608485D01*
X180558002Y-129946236D01*
X180895754Y-130300493D01*
X181216360Y-130670612D01*
X181519180Y-131055955D01*
X181803572Y-131455879D01*
X182068896Y-131869745D01*
X182314511Y-132296910D01*
X182539776Y-132736734D01*
X182744050Y-133188577D01*
X182926691Y-133651797D01*
X183087060Y-134125753D01*
X183224516Y-134609805D01*
X183338416Y-135103311D01*
X183428121Y-135605631D01*
X183492990Y-136116124D01*
X183532381Y-136634148D01*
X183545654Y-137159063D01*
X183532381Y-137683979D01*
X183492990Y-138202004D01*
X183428121Y-138712497D01*
X183338416Y-139214818D01*
X183224516Y-139708324D01*
X183087060Y-140192377D01*
X182926691Y-140666333D01*
X182744050Y-141129554D01*
X182539776Y-141581397D01*
X182314511Y-142021221D01*
X182068896Y-142448387D01*
X181803572Y-142862253D01*
X181519180Y-143262177D01*
X181216360Y-143647520D01*
X180895754Y-144017640D01*
X180558002Y-144371897D01*
X180203746Y-144709648D01*
X179833626Y-145030254D01*
X179448284Y-145333074D01*
X179048359Y-145617467D01*
X178634494Y-145882791D01*
X178207328Y-146128406D01*
X177767503Y-146353670D01*
X177315661Y-146557944D01*
X176852440Y-146740586D01*
X176378484Y-146900955D01*
X175894432Y-147038410D01*
X175400926Y-147152311D01*
X174898605Y-147242016D01*
X174388113Y-147306884D01*
X173870088Y-147346276D01*
X173345172Y-147359548D01*
X172820257Y-147346276D01*
X172302233Y-147306884D01*
X171791740Y-147242016D01*
X171289420Y-147152311D01*
X170795914Y-147038410D01*
X170311862Y-146900955D01*
X169837906Y-146740586D01*
X169374686Y-146557944D01*
X168922844Y-146353670D01*
X168483019Y-146128406D01*
X168055854Y-145882791D01*
X167641989Y-145617467D01*
X167242064Y-145333074D01*
X166856722Y-145030254D01*
X166486602Y-144709648D01*
X166132346Y-144371897D01*
X165794594Y-144017640D01*
X165473988Y-143647520D01*
X165171168Y-143262177D01*
X164886776Y-142862253D01*
X164621452Y-142448387D01*
X164375837Y-142021221D01*
X164150573Y-141581397D01*
X163946299Y-141129554D01*
X163763657Y-140666333D01*
X163603288Y-140192377D01*
X163465833Y-139708324D01*
X163351932Y-139214818D01*
X163262227Y-138712497D01*
X163197359Y-138202004D01*
X163157968Y-137683979D01*
X163144695Y-137159063D01*
X163157968Y-136634148D01*
X163197359Y-136116124D01*
X163262227Y-135605631D01*
X163351932Y-135103311D01*
X163465833Y-134609805D01*
X163603288Y-134125753D01*
X163763657Y-133651797D01*
X163946299Y-133188577D01*
X164150573Y-132736734D01*
X164375837Y-132296910D01*
X164621452Y-131869745D01*
X164886776Y-131455879D01*
X165171168Y-131055955D01*
X165473988Y-130670612D01*
X165794594Y-130300493D01*
X166132346Y-129946236D01*
X166486602Y-129608485D01*
X166856722Y-129287879D01*
X167242064Y-128985059D01*
X167641989Y-128700667D01*
X168055854Y-128435343D01*
X168483019Y-128189728D01*
X168922844Y-127964463D01*
X169374686Y-127760190D01*
X169837906Y-127577548D01*
X170311862Y-127417179D01*
X170795914Y-127279724D01*
X171289420Y-127165823D01*
X171791740Y-127076118D01*
X172302233Y-127011249D01*
X172820257Y-126971858D01*
X173345172Y-126958586D01*
X173870088Y-126971858D01*
X173531219Y-89776728D02*
X173714822Y-89790690D01*
X173895757Y-89813681D01*
X174073795Y-89845475D01*
X174248708Y-89885845D01*
X174420271Y-89934563D01*
X174588256Y-89991403D01*
X174752435Y-90056136D01*
X174912582Y-90128537D01*
X175068469Y-90208378D01*
X175219870Y-90295431D01*
X175366556Y-90389470D01*
X175508302Y-90490267D01*
X175644879Y-90597595D01*
X175776060Y-90711228D01*
X175901619Y-90830937D01*
X176021329Y-90956496D01*
X176134961Y-91087678D01*
X176242290Y-91224255D01*
X176343087Y-91366000D01*
X176437126Y-91512687D01*
X176524179Y-91664087D01*
X176604019Y-91819975D01*
X176676420Y-91980121D01*
X176741154Y-92144301D01*
X176797993Y-92312285D01*
X176846712Y-92483848D01*
X176887081Y-92658762D01*
X176918876Y-92836800D01*
X176941867Y-93017734D01*
X176955828Y-93201338D01*
X176960533Y-93387384D01*
X176955828Y-93573430D01*
X176941867Y-93757034D01*
X176918876Y-93937968D01*
X176887081Y-94116005D01*
X176846712Y-94290919D01*
X176797993Y-94462482D01*
X176741154Y-94630466D01*
X176676420Y-94794645D01*
X176604019Y-94954792D01*
X176524179Y-95110679D01*
X176437126Y-95262080D01*
X176343087Y-95408766D01*
X176242290Y-95550512D01*
X176134961Y-95687089D01*
X176021329Y-95818271D01*
X175901619Y-95943830D01*
X175776060Y-96063539D01*
X175644879Y-96177172D01*
X175508302Y-96284500D01*
X175366556Y-96385298D01*
X175219870Y-96479337D01*
X175068469Y-96566390D01*
X174912582Y-96646231D01*
X174752435Y-96718632D01*
X174588256Y-96783365D01*
X174420271Y-96840205D01*
X174248708Y-96888923D01*
X174073795Y-96929293D01*
X173895757Y-96961087D01*
X173714822Y-96984079D01*
X173531219Y-96998040D01*
X173345172Y-97002745D01*
X173159126Y-96998040D01*
X172975523Y-96984079D01*
X172794589Y-96961087D01*
X172616551Y-96929293D01*
X172441638Y-96888923D01*
X172270075Y-96840205D01*
X172102090Y-96783365D01*
X171937911Y-96718632D01*
X171777764Y-96646231D01*
X171621877Y-96566390D01*
X171470477Y-96479337D01*
X171323790Y-96385298D01*
X171182045Y-96284500D01*
X171045468Y-96177172D01*
X170914286Y-96063539D01*
X170788727Y-95943830D01*
X170669017Y-95818271D01*
X170555385Y-95687089D01*
X170448056Y-95550512D01*
X170347259Y-95408766D01*
X170253220Y-95262080D01*
X170166167Y-95110679D01*
X170086326Y-94954792D01*
X170013925Y-94794645D01*
X169949191Y-94630466D01*
X169892352Y-94462482D01*
X169843633Y-94290919D01*
X169803263Y-94116005D01*
X169771469Y-93937968D01*
X169748478Y-93757034D01*
X169734516Y-93573430D01*
X169729812Y-93387384D01*
X169734516Y-93201338D01*
X169748478Y-93017734D01*
X169771469Y-92836800D01*
X169803263Y-92658762D01*
X169843633Y-92483848D01*
X169892352Y-92312285D01*
X169949191Y-92144301D01*
X170013925Y-91980121D01*
X170086326Y-91819975D01*
X170166167Y-91664087D01*
X170253220Y-91512687D01*
X170347259Y-91366000D01*
X170448056Y-91224255D01*
X170555385Y-91087678D01*
X170669017Y-90956496D01*
X170788727Y-90830937D01*
X170914286Y-90711228D01*
X171045468Y-90597595D01*
X171182045Y-90490267D01*
X171323790Y-90389470D01*
X171470477Y-90295431D01*
X171621877Y-90208378D01*
X171777764Y-90128537D01*
X171937911Y-90056136D01*
X172102090Y-89991403D01*
X172270075Y-89934563D01*
X172441638Y-89885845D01*
X172616551Y-89845475D01*
X172794589Y-89813681D01*
X172975523Y-89790690D01*
X173159126Y-89776728D01*
X173345172Y-89772024D01*
X173531219Y-89776728D01*
X174799068Y-84205660D02*
X176676467Y-84707937D01*
X177861793Y-83243715D01*
X179872188Y-84403213D01*
X179195602Y-86163118D01*
X180569438Y-87536955D01*
X182329341Y-86860365D01*
X183488841Y-88870764D01*
X182024620Y-90056089D01*
X182526897Y-91933492D01*
X184388809Y-92226595D01*
X184388809Y-94548170D01*
X182526897Y-94841276D01*
X182024620Y-96718679D01*
X183488841Y-97904001D01*
X182329341Y-99914396D01*
X180569438Y-99237810D01*
X179195602Y-100611650D01*
X179872188Y-102371553D01*
X177861793Y-103531050D01*
X176676467Y-102066831D01*
X174799068Y-102569105D01*
X174505962Y-104431017D01*
X172184387Y-104431017D01*
X171891281Y-102569105D01*
X170013881Y-102066831D01*
X168828556Y-103531050D01*
X166818160Y-102371553D01*
X167494747Y-100611650D01*
X166120906Y-99237810D01*
X164361007Y-99914396D01*
X163201507Y-97904001D01*
X164665725Y-96718679D01*
X164163452Y-94841276D01*
X162301540Y-94548170D01*
X162301540Y-92226595D01*
X164163452Y-91933492D01*
X164665725Y-90056089D01*
X163201507Y-88870764D01*
X164361007Y-86860365D01*
X166120906Y-87536955D01*
X167494747Y-86163118D01*
X166818160Y-84403213D01*
X168828556Y-83243715D01*
X170013881Y-84707937D01*
X171891281Y-84205660D01*
X172184387Y-82343750D01*
X174505962Y-82343750D01*
X174799068Y-84205660D01*
X174056134Y-79589520D02*
X174757763Y-79642872D01*
X175449190Y-79730732D01*
X176129548Y-79852231D01*
X176797968Y-80006502D01*
X177453583Y-80192675D01*
X178095524Y-80409884D01*
X178722923Y-80657260D01*
X179334913Y-80933934D01*
X179930625Y-81239040D01*
X180509191Y-81571708D01*
X181069743Y-81931071D01*
X181611413Y-82316261D01*
X182133333Y-82726409D01*
X182634634Y-83160648D01*
X183114449Y-83618109D01*
X183571910Y-84097924D01*
X184006149Y-84599226D01*
X184416297Y-85121145D01*
X184801487Y-85662815D01*
X185160849Y-86223367D01*
X185493517Y-86801933D01*
X185798623Y-87397645D01*
X186075297Y-88009635D01*
X186322673Y-88637034D01*
X186539882Y-89278975D01*
X186726055Y-89934590D01*
X186880325Y-90603010D01*
X187001825Y-91283368D01*
X187089684Y-91974795D01*
X187143037Y-92676423D01*
X187161014Y-93387384D01*
X187143037Y-94098346D01*
X187089684Y-94799974D01*
X187001825Y-95491401D01*
X186880325Y-96171758D01*
X186726055Y-96840178D01*
X186539882Y-97495793D01*
X186322673Y-98137734D01*
X186075297Y-98765133D01*
X185798623Y-99377123D01*
X185493517Y-99972834D01*
X185160849Y-100551400D01*
X184801487Y-101111952D01*
X184416297Y-101653622D01*
X184006149Y-102175541D01*
X183571910Y-102676843D01*
X183114449Y-103156658D01*
X182634634Y-103614119D01*
X182133333Y-104048357D01*
X181611413Y-104458505D01*
X181069743Y-104843695D01*
X180509191Y-105203058D01*
X179930625Y-105535726D01*
X179334913Y-105840831D01*
X178722923Y-106117505D01*
X178095524Y-106364881D01*
X177453583Y-106582090D01*
X176797968Y-106768263D01*
X176129548Y-106922534D01*
X175449190Y-107044033D01*
X174757763Y-107131893D01*
X174056134Y-107185245D01*
X173345172Y-107203222D01*
X172634211Y-107185245D01*
X171932583Y-107131893D01*
X171241156Y-107044033D01*
X170560798Y-106922534D01*
X169892378Y-106768263D01*
X169236764Y-106582090D01*
X168594823Y-106364881D01*
X167967424Y-106117505D01*
X167355434Y-105840831D01*
X166759722Y-105535726D01*
X166181157Y-105203058D01*
X165620605Y-104843695D01*
X165078935Y-104458505D01*
X164557015Y-104048357D01*
X164055714Y-103614119D01*
X163575899Y-103156658D01*
X163118438Y-102676843D01*
X162684199Y-102175541D01*
X162274051Y-101653622D01*
X161888862Y-101111952D01*
X161529499Y-100551400D01*
X161196831Y-99972834D01*
X160891726Y-99377123D01*
X160615051Y-98765133D01*
X160367676Y-98137734D01*
X160150467Y-97495793D01*
X159964293Y-96840178D01*
X159810023Y-96171758D01*
X159688524Y-95491401D01*
X159600664Y-94799974D01*
X159547312Y-94098346D01*
X159529334Y-93387384D01*
X159547312Y-92676423D01*
X159600664Y-91974795D01*
X159688524Y-91283368D01*
X159810023Y-90603010D01*
X159964293Y-89934590D01*
X160150467Y-89278975D01*
X160367676Y-88637034D01*
X160615051Y-88009635D01*
X160891726Y-87397645D01*
X161196831Y-86801933D01*
X161529499Y-86223367D01*
X161888862Y-85662815D01*
X162274051Y-85121145D01*
X162684199Y-84599226D01*
X163118438Y-84097924D01*
X163575899Y-83618109D01*
X164055714Y-83160648D01*
X164557015Y-82726409D01*
X165078935Y-82316261D01*
X165620605Y-81931071D01*
X166181157Y-81571708D01*
X166759722Y-81239040D01*
X167355434Y-80933934D01*
X167967424Y-80657260D01*
X168594823Y-80409884D01*
X169236764Y-80192675D01*
X169892378Y-80006502D01*
X170560798Y-79852231D01*
X171241156Y-79730732D01*
X171932583Y-79642872D01*
X172634211Y-79589520D01*
X173345172Y-79571543D01*
X174056134Y-79589520D01*
X218843061Y-94487087D02*
X218928305Y-94493569D01*
X219012310Y-94504244D01*
X219094970Y-94519006D01*
X219176180Y-94537749D01*
X219255834Y-94560368D01*
X219333827Y-94586758D01*
X219410053Y-94616813D01*
X219484406Y-94650428D01*
X219556782Y-94687497D01*
X219627075Y-94727914D01*
X219695180Y-94771575D01*
X219760990Y-94818374D01*
X219824401Y-94868205D01*
X219885307Y-94920963D01*
X219943602Y-94976542D01*
X219999181Y-95034838D01*
X220051939Y-95095743D01*
X220101770Y-95159154D01*
X220148569Y-95224964D01*
X220192230Y-95293069D01*
X220232648Y-95363362D01*
X220269717Y-95435738D01*
X220303331Y-95510092D01*
X220333386Y-95586318D01*
X220359776Y-95664310D01*
X220382396Y-95743964D01*
X220401139Y-95825174D01*
X220415900Y-95907834D01*
X220426575Y-95991839D01*
X220433057Y-96077083D01*
X220435241Y-96163462D01*
X220433057Y-96249840D01*
X220426575Y-96335085D01*
X220415900Y-96419090D01*
X220401139Y-96501750D01*
X220382396Y-96582960D01*
X220359776Y-96662614D01*
X220333386Y-96740607D01*
X220303331Y-96816834D01*
X220269717Y-96891187D01*
X220232648Y-96963564D01*
X220192230Y-97033857D01*
X220148569Y-97101961D01*
X220101770Y-97167772D01*
X220051939Y-97231183D01*
X219999181Y-97292089D01*
X219943602Y-97350384D01*
X219885307Y-97405964D01*
X219824401Y-97458722D01*
X219760990Y-97508553D01*
X219695180Y-97555352D01*
X219627075Y-97599013D01*
X219556782Y-97639430D01*
X219484406Y-97676499D01*
X219410053Y-97710114D01*
X219333827Y-97740169D01*
X219255834Y-97766559D01*
X219176180Y-97789178D01*
X219094970Y-97807921D01*
X219012310Y-97822683D01*
X218928305Y-97833357D01*
X218843061Y-97839840D01*
X218756683Y-97842024D01*
X218670305Y-97839840D01*
X218585060Y-97833357D01*
X218501055Y-97822683D01*
X218418395Y-97807921D01*
X218337186Y-97789178D01*
X218257532Y-97766559D01*
X218179539Y-97740169D01*
X218103313Y-97710114D01*
X218028959Y-97676499D01*
X217956583Y-97639430D01*
X217886290Y-97599013D01*
X217818186Y-97555352D01*
X217752375Y-97508553D01*
X217688965Y-97458722D01*
X217628059Y-97405964D01*
X217569764Y-97350384D01*
X217514184Y-97292089D01*
X217461426Y-97231183D01*
X217411595Y-97167772D01*
X217364796Y-97101961D01*
X217321135Y-97033857D01*
X217280718Y-96963564D01*
X217243649Y-96891187D01*
X217210034Y-96816834D01*
X217179979Y-96740607D01*
X217153589Y-96662614D01*
X217130970Y-96582960D01*
X217112227Y-96501750D01*
X217097465Y-96419090D01*
X217086791Y-96335085D01*
X217080309Y-96249840D01*
X217078124Y-96163462D01*
X217080309Y-96077083D01*
X217086791Y-95991839D01*
X217097465Y-95907834D01*
X217112227Y-95825174D01*
X217130970Y-95743964D01*
X217153589Y-95664310D01*
X217179979Y-95586318D01*
X217210034Y-95510092D01*
X217243649Y-95435738D01*
X217280718Y-95363362D01*
X217321135Y-95293069D01*
X217364796Y-95224964D01*
X217411595Y-95159154D01*
X217461426Y-95095743D01*
X217514184Y-95034838D01*
X217569764Y-94976542D01*
X217628059Y-94920963D01*
X217688965Y-94868205D01*
X217752375Y-94818374D01*
X217818186Y-94771575D01*
X217886290Y-94727914D01*
X217956583Y-94687497D01*
X218028959Y-94650428D01*
X218103313Y-94616813D01*
X218179539Y-94586758D01*
X218257532Y-94560368D01*
X218337186Y-94537749D01*
X218418395Y-94519006D01*
X218501055Y-94504244D01*
X218585060Y-94493569D01*
X218670305Y-94487087D01*
X218756683Y-94484903D01*
X218843061Y-94487087D01*
X127000000Y-94500000D02*
X127085244Y-94506482D01*
X127169249Y-94517157D01*
X127251909Y-94531918D01*
X127333119Y-94550662D01*
X127412773Y-94573281D01*
X127490766Y-94599671D01*
X127566992Y-94629726D01*
X127641346Y-94663340D01*
X127713722Y-94700409D01*
X127784015Y-94740827D01*
X127852120Y-94784488D01*
X127917930Y-94831287D01*
X127981341Y-94881118D01*
X128042247Y-94933876D01*
X128100542Y-94989455D01*
X128156122Y-95047750D01*
X128208879Y-95108656D01*
X128258711Y-95172067D01*
X128305509Y-95237877D01*
X128349170Y-95305982D01*
X128389588Y-95376275D01*
X128426657Y-95448651D01*
X128460271Y-95523004D01*
X128490326Y-95599230D01*
X128516716Y-95677223D01*
X128539335Y-95756877D01*
X128558079Y-95838087D01*
X128572840Y-95920747D01*
X128583515Y-96004752D01*
X128589997Y-96089996D01*
X128592181Y-96176374D01*
X128589997Y-96262753D01*
X128583515Y-96347997D01*
X128572840Y-96432003D01*
X128558079Y-96514663D01*
X128539335Y-96595873D01*
X128516716Y-96675527D01*
X128490326Y-96753520D01*
X128460271Y-96829746D01*
X128426657Y-96904100D01*
X128389588Y-96976476D01*
X128349170Y-97046770D01*
X128305509Y-97114874D01*
X128258711Y-97180685D01*
X128208879Y-97244096D01*
X128156122Y-97305001D01*
X128100542Y-97363297D01*
X128042247Y-97418876D01*
X127981341Y-97471634D01*
X127917930Y-97521465D01*
X127852120Y-97568264D01*
X127784015Y-97611925D01*
X127713722Y-97652343D01*
X127641346Y-97689412D01*
X127566992Y-97723027D01*
X127490766Y-97753082D01*
X127412773Y-97779472D01*
X127333119Y-97802091D01*
X127251909Y-97820834D01*
X127169249Y-97835596D01*
X127085244Y-97846270D01*
X127000000Y-97852752D01*
X126913621Y-97854936D01*
X126827243Y-97852752D01*
X126741998Y-97846270D01*
X126657993Y-97835596D01*
X126575333Y-97820834D01*
X126494123Y-97802091D01*
X126414469Y-97779472D01*
X126336476Y-97753082D01*
X126260250Y-97723027D01*
X126185896Y-97689412D01*
X126113520Y-97652343D01*
X126043226Y-97611925D01*
X125975122Y-97568264D01*
X125909312Y-97521465D01*
X125845901Y-97471634D01*
X125784995Y-97418876D01*
X125726700Y-97363297D01*
X125671120Y-97305001D01*
X125618362Y-97244096D01*
X125568531Y-97180685D01*
X125521733Y-97114874D01*
X125478072Y-97046770D01*
X125437654Y-96976476D01*
X125400585Y-96904100D01*
X125366970Y-96829746D01*
X125336915Y-96753520D01*
X125310526Y-96675527D01*
X125287906Y-96595873D01*
X125269163Y-96514663D01*
X125254402Y-96432003D01*
X125243727Y-96347997D01*
X125237245Y-96262753D01*
X125235061Y-96176374D01*
X125237245Y-96089996D01*
X125243727Y-96004752D01*
X125254402Y-95920747D01*
X125269163Y-95838087D01*
X125287906Y-95756877D01*
X125310526Y-95677223D01*
X125336915Y-95599230D01*
X125366970Y-95523004D01*
X125400585Y-95448651D01*
X125437654Y-95376275D01*
X125478072Y-95305982D01*
X125521733Y-95237877D01*
X125568531Y-95172067D01*
X125618362Y-95108656D01*
X125671120Y-95047750D01*
X125726700Y-94989455D01*
X125784995Y-94933876D01*
X125845901Y-94881118D01*
X125909312Y-94831287D01*
X125975122Y-94784488D01*
X126043226Y-94740827D01*
X126113520Y-94700409D01*
X126185896Y-94663340D01*
X126260250Y-94629726D01*
X126336476Y-94599671D01*
X126414469Y-94573281D01*
X126494123Y-94550662D01*
X126575333Y-94531918D01*
X126657993Y-94517157D01*
X126741998Y-94506482D01*
X126827243Y-94500000D01*
X126913621Y-94497816D01*
X127000000Y-94500000D01*
X203335744Y-78334173D02*
X203420989Y-78340655D01*
X203504994Y-78351330D01*
X203587654Y-78366091D01*
X203668863Y-78384835D01*
X203748517Y-78407454D01*
X203826510Y-78433844D01*
X203902736Y-78463899D01*
X203977090Y-78497513D01*
X204049466Y-78534582D01*
X204119759Y-78575000D01*
X204187863Y-78618661D01*
X204253674Y-78665459D01*
X204317084Y-78715290D01*
X204377990Y-78768048D01*
X204436285Y-78823628D01*
X204491865Y-78881923D01*
X204544623Y-78942829D01*
X204594454Y-79006240D01*
X204641253Y-79072050D01*
X204684914Y-79140155D01*
X204725331Y-79210448D01*
X204762400Y-79282824D01*
X204796015Y-79357178D01*
X204826070Y-79433404D01*
X204852460Y-79511397D01*
X204875079Y-79591051D01*
X204893822Y-79672261D01*
X204908584Y-79754921D01*
X204919258Y-79838926D01*
X204925740Y-79924171D01*
X204927925Y-80010549D01*
X204925740Y-80096928D01*
X204919258Y-80182173D01*
X204908584Y-80266178D01*
X204893822Y-80348838D01*
X204875079Y-80430048D01*
X204852460Y-80509702D01*
X204826070Y-80587695D01*
X204796015Y-80663921D01*
X204762400Y-80738275D01*
X204725331Y-80810651D01*
X204684914Y-80880944D01*
X204641253Y-80949049D01*
X204594454Y-81014859D01*
X204544623Y-81078270D01*
X204491865Y-81139176D01*
X204436285Y-81197471D01*
X204377990Y-81253050D01*
X204317084Y-81305808D01*
X204253674Y-81355639D01*
X204187863Y-81402438D01*
X204119759Y-81446099D01*
X204049466Y-81486517D01*
X203977090Y-81523585D01*
X203902736Y-81557200D01*
X203826510Y-81587255D01*
X203748517Y-81613645D01*
X203668863Y-81636264D01*
X203587654Y-81655007D01*
X203504994Y-81669769D01*
X203420989Y-81680443D01*
X203335744Y-81686925D01*
X203249366Y-81689110D01*
X203162988Y-81686925D01*
X203077744Y-81680443D01*
X202993739Y-81669769D01*
X202911079Y-81655007D01*
X202829869Y-81636264D01*
X202750215Y-81613645D01*
X202672222Y-81587255D01*
X202595996Y-81557200D01*
X202521643Y-81523585D01*
X202449267Y-81486517D01*
X202378974Y-81446099D01*
X202310869Y-81402438D01*
X202245059Y-81355639D01*
X202181648Y-81305808D01*
X202120742Y-81253050D01*
X202062447Y-81197471D01*
X202006868Y-81139176D01*
X201954110Y-81078270D01*
X201904279Y-81014859D01*
X201857480Y-80949049D01*
X201813819Y-80880944D01*
X201773401Y-80810651D01*
X201736332Y-80738275D01*
X201702718Y-80663921D01*
X201672663Y-80587695D01*
X201646273Y-80509702D01*
X201623653Y-80430048D01*
X201604910Y-80348838D01*
X201590149Y-80266178D01*
X201579474Y-80182173D01*
X201572992Y-80096928D01*
X201570808Y-80010549D01*
X201572992Y-79924171D01*
X201579474Y-79838926D01*
X201590149Y-79754921D01*
X201604910Y-79672261D01*
X201623653Y-79591051D01*
X201646273Y-79511397D01*
X201672663Y-79433404D01*
X201702718Y-79357178D01*
X201736332Y-79282824D01*
X201773401Y-79210448D01*
X201813819Y-79140155D01*
X201857480Y-79072050D01*
X201904279Y-79006240D01*
X201954110Y-78942829D01*
X202006868Y-78881923D01*
X202062447Y-78823628D01*
X202120742Y-78768048D01*
X202181648Y-78715290D01*
X202245059Y-78665459D01*
X202310869Y-78618661D01*
X202378974Y-78575000D01*
X202449267Y-78534582D01*
X202521643Y-78497513D01*
X202595996Y-78463899D01*
X202672222Y-78433844D01*
X202750215Y-78407454D01*
X202829869Y-78384835D01*
X202911079Y-78366091D01*
X202993739Y-78351330D01*
X203077744Y-78340655D01*
X203162988Y-78334173D01*
X203249366Y-78331989D01*
X203335744Y-78334173D01*
X143165824Y-78166319D02*
X143251068Y-78172801D01*
X143335073Y-78183476D01*
X143417734Y-78198237D01*
X143498944Y-78216980D01*
X143578598Y-78239599D01*
X143656591Y-78265989D01*
X143732817Y-78296044D01*
X143807171Y-78329659D01*
X143879547Y-78366728D01*
X143949840Y-78407145D01*
X144017944Y-78450806D01*
X144083755Y-78497605D01*
X144147166Y-78547436D01*
X144208072Y-78600194D01*
X144266367Y-78655773D01*
X144321946Y-78714069D01*
X144374704Y-78774975D01*
X144424536Y-78838385D01*
X144471334Y-78904196D01*
X144514995Y-78972300D01*
X144555413Y-79042593D01*
X144592482Y-79114969D01*
X144626097Y-79189323D01*
X144656152Y-79265549D01*
X144682542Y-79343542D01*
X144705161Y-79423196D01*
X144723904Y-79504406D01*
X144738666Y-79587067D01*
X144749340Y-79671072D01*
X144755822Y-79756317D01*
X144758007Y-79842695D01*
X144755822Y-79929074D01*
X144749340Y-80014318D01*
X144738666Y-80098323D01*
X144723904Y-80180984D01*
X144705161Y-80262194D01*
X144682542Y-80341848D01*
X144656152Y-80419841D01*
X144626097Y-80496067D01*
X144592482Y-80570421D01*
X144555413Y-80642797D01*
X144514995Y-80713090D01*
X144471334Y-80781194D01*
X144424536Y-80847005D01*
X144374704Y-80910416D01*
X144321946Y-80971321D01*
X144266367Y-81029617D01*
X144208072Y-81085196D01*
X144147166Y-81137954D01*
X144083755Y-81187785D01*
X144017944Y-81234584D01*
X143949840Y-81278245D01*
X143879547Y-81318662D01*
X143807171Y-81355731D01*
X143732817Y-81389346D01*
X143656591Y-81419401D01*
X143578598Y-81445791D01*
X143498944Y-81468410D01*
X143417734Y-81487153D01*
X143335073Y-81501915D01*
X143251068Y-81512589D01*
X143165824Y-81519071D01*
X143079445Y-81521255D01*
X142993067Y-81519071D01*
X142907822Y-81512589D01*
X142823817Y-81501915D01*
X142741157Y-81487153D01*
X142659947Y-81468410D01*
X142580293Y-81445791D01*
X142502300Y-81419401D01*
X142426074Y-81389346D01*
X142351720Y-81355731D01*
X142279344Y-81318662D01*
X142209051Y-81278245D01*
X142140946Y-81234584D01*
X142075136Y-81187785D01*
X142011725Y-81137954D01*
X141950819Y-81085196D01*
X141892524Y-81029617D01*
X141836945Y-80971321D01*
X141784187Y-80910416D01*
X141734356Y-80847005D01*
X141687557Y-80781194D01*
X141643896Y-80713090D01*
X141603478Y-80642797D01*
X141566409Y-80570421D01*
X141532795Y-80496067D01*
X141502740Y-80419841D01*
X141476350Y-80341848D01*
X141453731Y-80262194D01*
X141434987Y-80180984D01*
X141420226Y-80098323D01*
X141409551Y-80014318D01*
X141403069Y-79929074D01*
X141400885Y-79842695D01*
X141403069Y-79756317D01*
X141409551Y-79671072D01*
X141420226Y-79587067D01*
X141434987Y-79504406D01*
X141453731Y-79423196D01*
X141476350Y-79343542D01*
X141502740Y-79265549D01*
X141532795Y-79189323D01*
X141566409Y-79114969D01*
X141603478Y-79042593D01*
X141643896Y-78972300D01*
X141687557Y-78904196D01*
X141734356Y-78838385D01*
X141784187Y-78774975D01*
X141836945Y-78714069D01*
X141892524Y-78655773D01*
X141950819Y-78600194D01*
X142011725Y-78547436D01*
X142075136Y-78497605D01*
X142140946Y-78450806D01*
X142209051Y-78407145D01*
X142279344Y-78366728D01*
X142351720Y-78329659D01*
X142426074Y-78296044D01*
X142502300Y-78265989D01*
X142580293Y-78239599D01*
X142659947Y-78216980D01*
X142741157Y-78198237D01*
X142823817Y-78183476D01*
X142907822Y-78172801D01*
X142993067Y-78166319D01*
X143079445Y-78164135D01*
X143165824Y-78166319D01*
X196569860Y-65990302D02*
X196655104Y-65996784D01*
X196739109Y-66007459D01*
X196821769Y-66022220D01*
X196902979Y-66040964D01*
X196982633Y-66063583D01*
X197060626Y-66089973D01*
X197136852Y-66120028D01*
X197211205Y-66153642D01*
X197283581Y-66190711D01*
X197353874Y-66231129D01*
X197421979Y-66274790D01*
X197487789Y-66321589D01*
X197551200Y-66371420D01*
X197612106Y-66424178D01*
X197670401Y-66479757D01*
X197725980Y-66538052D01*
X197778738Y-66598958D01*
X197828569Y-66662369D01*
X197875368Y-66728179D01*
X197919029Y-66796284D01*
X197959447Y-66866577D01*
X197996516Y-66938953D01*
X198030130Y-67013307D01*
X198060185Y-67089533D01*
X198086575Y-67167526D01*
X198109195Y-67247180D01*
X198127938Y-67328390D01*
X198142699Y-67411050D01*
X198153374Y-67495055D01*
X198159856Y-67580300D01*
X198162040Y-67666678D01*
X198159856Y-67753057D01*
X198153374Y-67838301D01*
X198142699Y-67922306D01*
X198127938Y-68004967D01*
X198109195Y-68086177D01*
X198086575Y-68165831D01*
X198060185Y-68243823D01*
X198030130Y-68320050D01*
X197996516Y-68394403D01*
X197959447Y-68466780D01*
X197919029Y-68537073D01*
X197875368Y-68605177D01*
X197828569Y-68670988D01*
X197778738Y-68734398D01*
X197725980Y-68795304D01*
X197670401Y-68853599D01*
X197612106Y-68909179D01*
X197551200Y-68961937D01*
X197487789Y-69011768D01*
X197421979Y-69058567D01*
X197353874Y-69102228D01*
X197283581Y-69142645D01*
X197211205Y-69179714D01*
X197136852Y-69213329D01*
X197060626Y-69243384D01*
X196982633Y-69269774D01*
X196902979Y-69292393D01*
X196821769Y-69311136D01*
X196739109Y-69325898D01*
X196655104Y-69336572D01*
X196569860Y-69343054D01*
X196483482Y-69345239D01*
X196397104Y-69343054D01*
X196311859Y-69336572D01*
X196227854Y-69325898D01*
X196145194Y-69311136D01*
X196063985Y-69292393D01*
X195984331Y-69269774D01*
X195906338Y-69243384D01*
X195830112Y-69213329D01*
X195755758Y-69179714D01*
X195683382Y-69142645D01*
X195613089Y-69102228D01*
X195544985Y-69058567D01*
X195479174Y-69011768D01*
X195415764Y-68961937D01*
X195354858Y-68909179D01*
X195296563Y-68853599D01*
X195240983Y-68795304D01*
X195188225Y-68734398D01*
X195138394Y-68670988D01*
X195091595Y-68605177D01*
X195047934Y-68537073D01*
X195007517Y-68466780D01*
X194970448Y-68394403D01*
X194936833Y-68320050D01*
X194906778Y-68243823D01*
X194880388Y-68165831D01*
X194857769Y-68086177D01*
X194839026Y-68004967D01*
X194824264Y-67922306D01*
X194813590Y-67838301D01*
X194807108Y-67753057D01*
X194804923Y-67666678D01*
X194807108Y-67580300D01*
X194813590Y-67495055D01*
X194824264Y-67411050D01*
X194839026Y-67328390D01*
X194857769Y-67247180D01*
X194880388Y-67167526D01*
X194906778Y-67089533D01*
X194936833Y-67013307D01*
X194970448Y-66938953D01*
X195007517Y-66866577D01*
X195047934Y-66796284D01*
X195091595Y-66728179D01*
X195138394Y-66662369D01*
X195188225Y-66598958D01*
X195240983Y-66538052D01*
X195296563Y-66479757D01*
X195354858Y-66424178D01*
X195415764Y-66371420D01*
X195479174Y-66321589D01*
X195544985Y-66274790D01*
X195613089Y-66231129D01*
X195683382Y-66190711D01*
X195755758Y-66153642D01*
X195830112Y-66120028D01*
X195906338Y-66089973D01*
X195984331Y-66063583D01*
X196063985Y-66040964D01*
X196145194Y-66022220D01*
X196227854Y-66007459D01*
X196311859Y-65996784D01*
X196397104Y-65990302D01*
X196483482Y-65988118D01*
X196569860Y-65990302D01*
X150138306Y-66106509D02*
X150223550Y-66112991D01*
X150307555Y-66123666D01*
X150390216Y-66138428D01*
X150471426Y-66157171D01*
X150551080Y-66179790D01*
X150629073Y-66206180D01*
X150705299Y-66236235D01*
X150779653Y-66269849D01*
X150852029Y-66306918D01*
X150922322Y-66347336D01*
X150990426Y-66390997D01*
X151056237Y-66437796D01*
X151119648Y-66487627D01*
X151180553Y-66540385D01*
X151238849Y-66595964D01*
X151294428Y-66654259D01*
X151347186Y-66715165D01*
X151397017Y-66778576D01*
X151443816Y-66844386D01*
X151487477Y-66912491D01*
X151527894Y-66982784D01*
X151564963Y-67055160D01*
X151598578Y-67129514D01*
X151628633Y-67205740D01*
X151655023Y-67283733D01*
X151677642Y-67363387D01*
X151696385Y-67444597D01*
X151711147Y-67527257D01*
X151721821Y-67611262D01*
X151728303Y-67696507D01*
X151730487Y-67782885D01*
X151728303Y-67869264D01*
X151721821Y-67954508D01*
X151711147Y-68038513D01*
X151696385Y-68121174D01*
X151677642Y-68202384D01*
X151655023Y-68282038D01*
X151628633Y-68360031D01*
X151598578Y-68436257D01*
X151564963Y-68510611D01*
X151527894Y-68582987D01*
X151487477Y-68653280D01*
X151443816Y-68721384D01*
X151397017Y-68787195D01*
X151347186Y-68850605D01*
X151294428Y-68911511D01*
X151238849Y-68969807D01*
X151180553Y-69025386D01*
X151119648Y-69078144D01*
X151056237Y-69127975D01*
X150990426Y-69174774D01*
X150922322Y-69218435D01*
X150852029Y-69258852D01*
X150779653Y-69295921D01*
X150705299Y-69329536D01*
X150629073Y-69359591D01*
X150551080Y-69385981D01*
X150471426Y-69408600D01*
X150390216Y-69427343D01*
X150307555Y-69442105D01*
X150223550Y-69452779D01*
X150138306Y-69459262D01*
X150051927Y-69461446D01*
X149965549Y-69459262D01*
X149880304Y-69452779D01*
X149796299Y-69442105D01*
X149713639Y-69427343D01*
X149632429Y-69408600D01*
X149552775Y-69385981D01*
X149474782Y-69359591D01*
X149398556Y-69329536D01*
X149324202Y-69295921D01*
X149251826Y-69258852D01*
X149181533Y-69218435D01*
X149113429Y-69174774D01*
X149047618Y-69127975D01*
X148984207Y-69078144D01*
X148923302Y-69025386D01*
X148865006Y-68969807D01*
X148809427Y-68911511D01*
X148756669Y-68850605D01*
X148706838Y-68787195D01*
X148660039Y-68721384D01*
X148616378Y-68653280D01*
X148575960Y-68582987D01*
X148538891Y-68510611D01*
X148505277Y-68436257D01*
X148475222Y-68360031D01*
X148448832Y-68282038D01*
X148426212Y-68202384D01*
X148407469Y-68121174D01*
X148392708Y-68038513D01*
X148382033Y-67954508D01*
X148375551Y-67869264D01*
X148373367Y-67782885D01*
X148375551Y-67696507D01*
X148382033Y-67611262D01*
X148392708Y-67527257D01*
X148407469Y-67444597D01*
X148426212Y-67363387D01*
X148448832Y-67283733D01*
X148475222Y-67205740D01*
X148505277Y-67129514D01*
X148538891Y-67055160D01*
X148575960Y-66982784D01*
X148616378Y-66912491D01*
X148660039Y-66844386D01*
X148706838Y-66778576D01*
X148756669Y-66715165D01*
X148809427Y-66654259D01*
X148865006Y-66595964D01*
X148923302Y-66540385D01*
X148984207Y-66487627D01*
X149047618Y-66437796D01*
X149113429Y-66390997D01*
X149181533Y-66347336D01*
X149251826Y-66306918D01*
X149324202Y-66269849D01*
X149398556Y-66236235D01*
X149474782Y-66206180D01*
X149552775Y-66179790D01*
X149632429Y-66157171D01*
X149713639Y-66138428D01*
X149796299Y-66123666D01*
X149880304Y-66112991D01*
X149965549Y-66106509D01*
X150051927Y-66104325D01*
X150138306Y-66106509D01*
%TO.C,R9*%
D12*
X188150000Y-131850000D02*
X191200000Y-131850000D01*
X188150000Y-136150000D02*
X191200000Y-136150000D01*
X188150000Y-136150000D02*
G75*
G02*
X188171766Y-131834475I1550000J2150000D01*
G01*
X191200000Y-131850000D02*
G75*
G02*
X191244513Y-136118249I-1500000J-2150000D01*
G01*
%TO.C,R3*%
X188540000Y-96630000D02*
X195080000Y-96630000D01*
X188540000Y-96960000D02*
X188540000Y-96630000D01*
X188540000Y-99040000D02*
X188540000Y-99370000D01*
X188540000Y-99370000D02*
X195080000Y-99370000D01*
X195080000Y-96630000D02*
X195080000Y-96960000D01*
X195080000Y-99370000D02*
X195080000Y-99040000D01*
%TO.C,U1*%
X151660000Y-82170000D02*
X151660000Y-92450000D01*
X151660000Y-92450000D02*
X156960000Y-92450000D01*
X153310000Y-82170000D02*
X151660000Y-82170000D01*
X156960000Y-82170000D02*
X155310000Y-82170000D01*
X156960000Y-92450000D02*
X156960000Y-82170000D01*
X155310000Y-82170000D02*
G75*
G02*
X153310000Y-82170000I-1000000J0D01*
G01*
%TO.C,R4*%
X139540000Y-86630000D02*
X146080000Y-86630000D01*
X139540000Y-86960000D02*
X139540000Y-86630000D01*
X139540000Y-89040000D02*
X139540000Y-89370000D01*
X139540000Y-89370000D02*
X146080000Y-89370000D01*
X146080000Y-86630000D02*
X146080000Y-86960000D01*
X146080000Y-89370000D02*
X146080000Y-89040000D01*
%TO.C,R6*%
X169040000Y-121630000D02*
X175580000Y-121630000D01*
X169040000Y-121960000D02*
X169040000Y-121630000D01*
X169040000Y-124040000D02*
X169040000Y-124370000D01*
X169040000Y-124370000D02*
X175580000Y-124370000D01*
X175580000Y-121630000D02*
X175580000Y-121960000D01*
X175580000Y-124370000D02*
X175580000Y-124040000D01*
%TO.C,Q4*%
X141970000Y-100350000D02*
X145570000Y-100350000D01*
X141958547Y-100342156D02*
G75*
G02*
X142950000Y-96050000I1811453J1842156D01*
G01*
X144550000Y-96050000D02*
G75*
G02*
X145578445Y-100327684I-780000J-2450000D01*
G01*
%TO.C,D1*%
X130210000Y-114955000D02*
X130210000Y-118045000D01*
X130210000Y-114955170D02*
G75*
G02*
X135760000Y-116500000I2560000J-1544830D01*
G01*
X135760000Y-116500000D02*
G75*
G02*
X130210000Y-118044830I-2990000J0D01*
G01*
X135270000Y-116500000D02*
G75*
G02*
X130270000Y-116500000I-2500000J0D01*
G01*
X130270000Y-116500000D02*
G75*
G02*
X135270000Y-116500000I2500000J0D01*
G01*
%TO.C,C1*%
X159090302Y-76699200D02*
X159890302Y-76699200D01*
X159490302Y-76299200D02*
X159490302Y-77099200D01*
X163500000Y-74934200D02*
X163500000Y-83094200D01*
X163540000Y-74934200D02*
X163540000Y-83094200D01*
X163580000Y-74935200D02*
X163580000Y-83093200D01*
X163620000Y-74936200D02*
X163620000Y-83092200D01*
X163660000Y-74937200D02*
X163660000Y-83091200D01*
X163700000Y-74939200D02*
X163700000Y-83089200D01*
X163740000Y-74941200D02*
X163740000Y-83087200D01*
X163780000Y-74944200D02*
X163780000Y-83084200D01*
X163820000Y-74946200D02*
X163820000Y-83082200D01*
X163860000Y-74950200D02*
X163860000Y-83078200D01*
X163900000Y-74953200D02*
X163900000Y-83075200D01*
X163940000Y-74958200D02*
X163940000Y-83070200D01*
X163980000Y-74962200D02*
X163980000Y-83066200D01*
X164020000Y-74967200D02*
X164020000Y-83061200D01*
X164060000Y-74972200D02*
X164060000Y-83056200D01*
X164100000Y-74978200D02*
X164100000Y-83050200D01*
X164140000Y-74984200D02*
X164140000Y-83044200D01*
X164180000Y-74991200D02*
X164180000Y-83037200D01*
X164220000Y-74997200D02*
X164220000Y-83031200D01*
X164260000Y-75005200D02*
X164260000Y-83023200D01*
X164300000Y-75012200D02*
X164300000Y-83016200D01*
X164340000Y-75021200D02*
X164340000Y-83007200D01*
X164380000Y-75029200D02*
X164380000Y-82999200D01*
X164420000Y-75038200D02*
X164420000Y-82990200D01*
X164460000Y-75047200D02*
X164460000Y-82981200D01*
X164500000Y-75057200D02*
X164500000Y-82971200D01*
X164540000Y-75067200D02*
X164540000Y-82961200D01*
X164580000Y-75078200D02*
X164580000Y-82950200D01*
X164620000Y-75089200D02*
X164620000Y-82939200D01*
X164660000Y-75101200D02*
X164660000Y-82927200D01*
X164700000Y-75113200D02*
X164700000Y-82915200D01*
X164740000Y-75125200D02*
X164740000Y-82903200D01*
X164780000Y-75138200D02*
X164780000Y-82890200D01*
X164820000Y-75151200D02*
X164820000Y-82877200D01*
X164860000Y-75165200D02*
X164860000Y-82863200D01*
X164900000Y-75179200D02*
X164900000Y-82849200D01*
X164940000Y-75194200D02*
X164940000Y-82834200D01*
X164980000Y-75209200D02*
X164980000Y-77974200D01*
X164980000Y-80054200D02*
X164980000Y-82819200D01*
X165020000Y-75225200D02*
X165020000Y-77974200D01*
X165020000Y-80054200D02*
X165020000Y-82803200D01*
X165060000Y-75241200D02*
X165060000Y-77974200D01*
X165060000Y-80054200D02*
X165060000Y-82787200D01*
X165100000Y-75257200D02*
X165100000Y-77974200D01*
X165100000Y-80054200D02*
X165100000Y-82771200D01*
X165140000Y-75274200D02*
X165140000Y-77974200D01*
X165140000Y-80054200D02*
X165140000Y-82754200D01*
X165180000Y-75292200D02*
X165180000Y-77974200D01*
X165180000Y-80054200D02*
X165180000Y-82736200D01*
X165220000Y-75310200D02*
X165220000Y-77974200D01*
X165220000Y-80054200D02*
X165220000Y-82718200D01*
X165260000Y-75329200D02*
X165260000Y-77974200D01*
X165260000Y-80054200D02*
X165260000Y-82699200D01*
X165300000Y-75348200D02*
X165300000Y-77974200D01*
X165300000Y-80054200D02*
X165300000Y-82680200D01*
X165340000Y-75368200D02*
X165340000Y-77974200D01*
X165340000Y-80054200D02*
X165340000Y-82660200D01*
X165380000Y-75388200D02*
X165380000Y-77974200D01*
X165380000Y-80054200D02*
X165380000Y-82640200D01*
X165420000Y-75409200D02*
X165420000Y-77974200D01*
X165420000Y-80054200D02*
X165420000Y-82619200D01*
X165460000Y-75430200D02*
X165460000Y-77974200D01*
X165460000Y-80054200D02*
X165460000Y-82598200D01*
X165500000Y-75452200D02*
X165500000Y-77974200D01*
X165500000Y-80054200D02*
X165500000Y-82576200D01*
X165540000Y-75475200D02*
X165540000Y-77974200D01*
X165540000Y-80054200D02*
X165540000Y-82553200D01*
X165580000Y-75498200D02*
X165580000Y-77974200D01*
X165580000Y-80054200D02*
X165580000Y-82530200D01*
X165620000Y-75521200D02*
X165620000Y-77974200D01*
X165620000Y-80054200D02*
X165620000Y-82507200D01*
X165660000Y-75546200D02*
X165660000Y-77974200D01*
X165660000Y-80054200D02*
X165660000Y-82482200D01*
X165700000Y-75571200D02*
X165700000Y-77974200D01*
X165700000Y-80054200D02*
X165700000Y-82457200D01*
X165740000Y-75596200D02*
X165740000Y-77974200D01*
X165740000Y-80054200D02*
X165740000Y-82432200D01*
X165780000Y-75622200D02*
X165780000Y-77974200D01*
X165780000Y-80054200D02*
X165780000Y-82406200D01*
X165820000Y-75649200D02*
X165820000Y-77974200D01*
X165820000Y-80054200D02*
X165820000Y-82379200D01*
X165860000Y-75677200D02*
X165860000Y-77974200D01*
X165860000Y-80054200D02*
X165860000Y-82351200D01*
X165900000Y-75705200D02*
X165900000Y-77974200D01*
X165900000Y-80054200D02*
X165900000Y-82323200D01*
X165940000Y-75734200D02*
X165940000Y-77974200D01*
X165940000Y-80054200D02*
X165940000Y-82294200D01*
X165980000Y-75764200D02*
X165980000Y-77974200D01*
X165980000Y-80054200D02*
X165980000Y-82264200D01*
X166020000Y-75795200D02*
X166020000Y-77974200D01*
X166020000Y-80054200D02*
X166020000Y-82233200D01*
X166060000Y-75826200D02*
X166060000Y-77974200D01*
X166060000Y-80054200D02*
X166060000Y-82202200D01*
X166100000Y-75858200D02*
X166100000Y-77974200D01*
X166100000Y-80054200D02*
X166100000Y-82170200D01*
X166140000Y-75891200D02*
X166140000Y-77974200D01*
X166140000Y-80054200D02*
X166140000Y-82137200D01*
X166180000Y-75925200D02*
X166180000Y-77974200D01*
X166180000Y-80054200D02*
X166180000Y-82103200D01*
X166220000Y-75959200D02*
X166220000Y-77974200D01*
X166220000Y-80054200D02*
X166220000Y-82069200D01*
X166260000Y-75995200D02*
X166260000Y-77974200D01*
X166260000Y-80054200D02*
X166260000Y-82033200D01*
X166300000Y-76032200D02*
X166300000Y-77974200D01*
X166300000Y-80054200D02*
X166300000Y-81996200D01*
X166340000Y-76069200D02*
X166340000Y-77974200D01*
X166340000Y-80054200D02*
X166340000Y-81959200D01*
X166380000Y-76108200D02*
X166380000Y-77974200D01*
X166380000Y-80054200D02*
X166380000Y-81920200D01*
X166420000Y-76147200D02*
X166420000Y-77974200D01*
X166420000Y-80054200D02*
X166420000Y-81881200D01*
X166460000Y-76188200D02*
X166460000Y-77974200D01*
X166460000Y-80054200D02*
X166460000Y-81840200D01*
X166500000Y-76230200D02*
X166500000Y-77974200D01*
X166500000Y-80054200D02*
X166500000Y-81798200D01*
X166540000Y-76273200D02*
X166540000Y-77974200D01*
X166540000Y-80054200D02*
X166540000Y-81755200D01*
X166580000Y-76318200D02*
X166580000Y-77974200D01*
X166580000Y-80054200D02*
X166580000Y-81710200D01*
X166620000Y-76363200D02*
X166620000Y-77974200D01*
X166620000Y-80054200D02*
X166620000Y-81665200D01*
X166660000Y-76410200D02*
X166660000Y-77974200D01*
X166660000Y-80054200D02*
X166660000Y-81618200D01*
X166700000Y-76459200D02*
X166700000Y-77974200D01*
X166700000Y-80054200D02*
X166700000Y-81569200D01*
X166740000Y-76509200D02*
X166740000Y-77974200D01*
X166740000Y-80054200D02*
X166740000Y-81519200D01*
X166780000Y-76561200D02*
X166780000Y-77974200D01*
X166780000Y-80054200D02*
X166780000Y-81467200D01*
X166820000Y-76614200D02*
X166820000Y-77974200D01*
X166820000Y-80054200D02*
X166820000Y-81414200D01*
X166860000Y-76670200D02*
X166860000Y-77974200D01*
X166860000Y-80054200D02*
X166860000Y-81358200D01*
X166900000Y-76727200D02*
X166900000Y-77974200D01*
X166900000Y-80054200D02*
X166900000Y-81301200D01*
X166940000Y-76787200D02*
X166940000Y-77974200D01*
X166940000Y-80054200D02*
X166940000Y-81241200D01*
X166980000Y-76849200D02*
X166980000Y-77974200D01*
X166980000Y-80054200D02*
X166980000Y-81179200D01*
X167020000Y-76913200D02*
X167020000Y-77974200D01*
X167020000Y-80054200D02*
X167020000Y-81115200D01*
X167060000Y-76980200D02*
X167060000Y-81048200D01*
X167100000Y-77050200D02*
X167100000Y-80978200D01*
X167140000Y-77124200D02*
X167140000Y-80904200D01*
X167180000Y-77201200D02*
X167180000Y-80827200D01*
X167220000Y-77283200D02*
X167220000Y-80745200D01*
X167260000Y-77370200D02*
X167260000Y-80658200D01*
X167300000Y-77462200D02*
X167300000Y-80566200D01*
X167340000Y-77561200D02*
X167340000Y-80467200D01*
X167380000Y-77668200D02*
X167380000Y-80360200D01*
X167420000Y-77786200D02*
X167420000Y-80242200D01*
X167460000Y-77917200D02*
X167460000Y-80111200D01*
X167500000Y-78067200D02*
X167500000Y-79961200D01*
X167540000Y-78246200D02*
X167540000Y-79782200D01*
X167580000Y-78481200D02*
X167580000Y-79547200D01*
X167620000Y-79014200D02*
G75*
G02*
X159380000Y-79014200I-4120000J0D01*
G01*
X159380000Y-79014200D02*
G75*
G02*
X167620000Y-79014200I4120000J0D01*
G01*
%TO.C,R11*%
X183540000Y-121630000D02*
X190080000Y-121630000D01*
X183540000Y-121960000D02*
X183540000Y-121630000D01*
X183540000Y-124040000D02*
X183540000Y-124370000D01*
X183540000Y-124370000D02*
X190080000Y-124370000D01*
X190080000Y-121630000D02*
X190080000Y-121960000D01*
X190080000Y-124370000D02*
X190080000Y-124040000D01*
%TO.C,D6*%
X170710000Y-57455000D02*
X170710000Y-60545000D01*
X170710000Y-57455170D02*
G75*
G02*
X176260000Y-59000000I2560000J-1544830D01*
G01*
X176260000Y-59000000D02*
G75*
G02*
X170710000Y-60544830I-2990000J0D01*
G01*
X175770000Y-59000000D02*
G75*
G02*
X170770000Y-59000000I-2500000J0D01*
G01*
X170770000Y-59000000D02*
G75*
G02*
X175770000Y-59000000I2500000J0D01*
G01*
%TO.C,R7*%
X198040000Y-89630000D02*
X204580000Y-89630000D01*
X198040000Y-89960000D02*
X198040000Y-89630000D01*
X198040000Y-92040000D02*
X198040000Y-92370000D01*
X198040000Y-92370000D02*
X204580000Y-92370000D01*
X204580000Y-89630000D02*
X204580000Y-89960000D01*
X204580000Y-92370000D02*
X204580000Y-92040000D01*
%TO.C,Q3*%
X180724200Y-111045500D02*
X184324200Y-111045500D01*
X180712747Y-111037656D02*
G75*
G02*
X181704200Y-106745500I1811453J1842156D01*
G01*
X183304200Y-106745500D02*
G75*
G02*
X184332645Y-111023184I-780000J-2450000D01*
G01*
%TO.C,Q5*%
X171470000Y-94850000D02*
X175070000Y-94850000D01*
X171458547Y-94842156D02*
G75*
G02*
X172450000Y-90550000I1811453J1842156D01*
G01*
X174050000Y-90550000D02*
G75*
G02*
X175078445Y-94827684I-780000J-2450000D01*
G01*
%TO.C,SW1*%
X152750000Y-133500000D02*
X152750000Y-135000000D01*
X154000000Y-137500000D02*
X158500000Y-137500000D01*
X158500000Y-131000000D02*
X154000000Y-131000000D01*
X159750000Y-135000000D02*
X159750000Y-133500000D01*
%TO.C,Q2*%
X189970000Y-90850000D02*
X193570000Y-90850000D01*
X189958547Y-90842156D02*
G75*
G02*
X190950000Y-86550000I1811453J1842156D01*
G01*
X192550000Y-86550000D02*
G75*
G02*
X193578445Y-90827684I-780000J-2450000D01*
G01*
%TO.C,BT1*%
X162220000Y-131040000D02*
X162220000Y-133500000D01*
X162220000Y-139500000D02*
X162220000Y-140130000D01*
X162220000Y-140130000D02*
X163660000Y-144080000D01*
X164300000Y-128960000D02*
X162220000Y-131040000D01*
X167800000Y-128960000D02*
X164300000Y-128960000D01*
X181700000Y-128960000D02*
X178200000Y-128960000D01*
X181700000Y-128960000D02*
X183780000Y-131040000D01*
X183780000Y-131040000D02*
X183780000Y-133500000D01*
X183780000Y-139500000D02*
X183780000Y-140130000D01*
X183780000Y-140130000D02*
X182340000Y-144080000D01*
X166996646Y-145066530D02*
G75*
G02*
X163660000Y-144080000I-1306646J1716531D01*
G01*
X182325243Y-144088169D02*
G75*
G02*
X179000000Y-145050000I-2015243J738169D01*
G01*
%TO.C,R2*%
X162040000Y-69130000D02*
X168580000Y-69130000D01*
X162040000Y-69460000D02*
X162040000Y-69130000D01*
X162040000Y-71540000D02*
X162040000Y-71870000D01*
X162040000Y-71870000D02*
X168580000Y-71870000D01*
X168580000Y-69130000D02*
X168580000Y-69460000D01*
X168580000Y-71870000D02*
X168580000Y-71540000D01*
%TO.C,D4*%
X126710000Y-80955000D02*
X126710000Y-84045000D01*
X126710000Y-80955170D02*
G75*
G02*
X132260000Y-82500000I2560000J-1544830D01*
G01*
X132260000Y-82500000D02*
G75*
G02*
X126710000Y-84044830I-2990000J0D01*
G01*
X131770000Y-82500000D02*
G75*
G02*
X126770000Y-82500000I-2500000J0D01*
G01*
X126770000Y-82500000D02*
G75*
G02*
X131770000Y-82500000I2500000J0D01*
G01*
%TO.C,Q6*%
X159470000Y-109850000D02*
X163070000Y-109850000D01*
X159458547Y-109842156D02*
G75*
G02*
X160450000Y-105550000I1811453J1842156D01*
G01*
X162050000Y-105550000D02*
G75*
G02*
X163078445Y-109827684I-780000J-2450000D01*
G01*
%TO.C,D5*%
X213710000Y-80955000D02*
X213710000Y-84045000D01*
X213710000Y-80955170D02*
G75*
G02*
X219260000Y-82500000I2560000J-1544830D01*
G01*
X219260000Y-82500000D02*
G75*
G02*
X213710000Y-84044830I-2990000J0D01*
G01*
X218770000Y-82500000D02*
G75*
G02*
X213770000Y-82500000I-2500000J0D01*
G01*
X213770000Y-82500000D02*
G75*
G02*
X218770000Y-82500000I2500000J0D01*
G01*
%TO.C,R10*%
X200040000Y-98630000D02*
X206580000Y-98630000D01*
X200040000Y-98960000D02*
X200040000Y-98630000D01*
X200040000Y-101040000D02*
X200040000Y-101370000D01*
X200040000Y-101370000D02*
X206580000Y-101370000D01*
X206580000Y-98630000D02*
X206580000Y-98960000D01*
X206580000Y-101370000D02*
X206580000Y-101040000D01*
%TO.C,R8*%
X155040000Y-121630000D02*
X161580000Y-121630000D01*
X155040000Y-121960000D02*
X155040000Y-121630000D01*
X155040000Y-124040000D02*
X155040000Y-124370000D01*
X155040000Y-124370000D02*
X161580000Y-124370000D01*
X161580000Y-121630000D02*
X161580000Y-121960000D01*
X161580000Y-124370000D02*
X161580000Y-124040000D01*
%TO.C,D3*%
X216210000Y-106455000D02*
X216210000Y-109545000D01*
X216210000Y-106455170D02*
G75*
G02*
X221760000Y-108000000I2560000J-1544830D01*
G01*
X221760000Y-108000000D02*
G75*
G02*
X216210000Y-109544830I-2990000J0D01*
G01*
X221270000Y-108000000D02*
G75*
G02*
X216270000Y-108000000I-2500000J0D01*
G01*
X216270000Y-108000000D02*
G75*
G02*
X221270000Y-108000000I2500000J0D01*
G01*
%TO.C,R5*%
X178040000Y-69630000D02*
X184580000Y-69630000D01*
X178040000Y-69960000D02*
X178040000Y-69630000D01*
X178040000Y-72040000D02*
X178040000Y-72370000D01*
X178040000Y-72370000D02*
X184580000Y-72370000D01*
X184580000Y-69630000D02*
X184580000Y-69960000D01*
X184580000Y-72370000D02*
X184580000Y-72040000D01*
%TO.C,D2*%
X124710000Y-105955000D02*
X124710000Y-109045000D01*
X124710000Y-105955170D02*
G75*
G02*
X130260000Y-107500000I2560000J-1544830D01*
G01*
X130260000Y-107500000D02*
G75*
G02*
X124710000Y-109044830I-2990000J0D01*
G01*
X129770000Y-107500000D02*
G75*
G02*
X124770000Y-107500000I-2500000J0D01*
G01*
X124770000Y-107500000D02*
G75*
G02*
X129770000Y-107500000I2500000J0D01*
G01*
%TO.C,Q1*%
X182470000Y-80850000D02*
X186070000Y-80850000D01*
X182458547Y-80842156D02*
G75*
G02*
X183450000Y-76550000I1811453J1842156D01*
G01*
X185050000Y-76550000D02*
G75*
G02*
X186078445Y-80827684I-780000J-2450000D01*
G01*
%TO.C,R1*%
X146968100Y-103441900D02*
X153508100Y-103441900D01*
X153508100Y-103441900D02*
X153508100Y-103111900D01*
X146968100Y-103111900D02*
X146968100Y-103441900D01*
X146968100Y-101031900D02*
X146968100Y-100701900D01*
X146968100Y-100701900D02*
X153508100Y-100701900D01*
X153508100Y-100701900D02*
X153508100Y-101031900D01*
%TD*%
M02*
