M48
; DRILL file KiCad 10.0.6 date 2026-10-04T11:58:40
; FORMAT={-:-/ absolute / metric / decimal}
; #@! TF.CreationDate,2026-10-04T11:58:40+05:45
; #@! TF.GenerationSoftware,Kicad,Pcbnew,10.0.6
; #@! TF.FileFunction,Plated,1,2,PTH
FMAT,2
METRIC
; #@! TA.AperFunction,Plated,PTH,ViaDrill
T1C0.300
; #@! TA.AperFunction,Plated,PTH,ComponentDrill
T2C0.750
; #@! TA.AperFunction,Plated,PTH,ComponentDrill
T3C0.800
; #@! TA.AperFunction,Plated,PTH,ComponentDrill
T4C0.900
; #@! TA.AperFunction,Plated,PTH,ComponentDrill
T5C1.100
%
G90
G05
T1
X152.223Y-115.721
X153.422Y-98.48
X154.625Y-118.365
X162.175Y-98.729
X163.496Y-133.62
X175.766Y-85.985
X179.888Y-80.752
X182.765Y-132.508
X190.813Y-99.974
X193.469Y-108.0
T2
X142.5Y-98.5
X143.77Y-97.23
X145.04Y-98.5
X160.0Y-108.0
X161.27Y-106.73
X162.54Y-108.0
X172.0Y-93.0
X173.27Y-91.73
X174.54Y-93.0
X181.254Y-109.195
X182.524Y-107.925
X183.0Y-79.0
X183.794Y-109.195
X184.27Y-77.73
X185.54Y-79.0
X190.5Y-89.0
X191.77Y-87.73
X193.04Y-89.0
T3
X139.0Y-88.0
X146.428Y-102.072
X146.62Y-88.0
X150.5Y-83.5
X150.5Y-86.04
X150.5Y-88.58
X150.5Y-91.12
X154.048Y-102.072
X154.5Y-123.0
X158.12Y-83.5
X158.12Y-86.04
X158.12Y-88.58
X158.12Y-91.12
X161.0Y-79.014
X161.5Y-70.5
X162.12Y-123.0
X166.0Y-79.014
X168.5Y-123.0
X169.12Y-70.5
X176.12Y-123.0
X177.5Y-71.0
X183.0Y-123.0
X185.12Y-71.0
X188.0Y-98.0
X188.0Y-134.0
X190.62Y-123.0
X191.4Y-134.0
X195.62Y-98.0
X197.5Y-91.0
X199.5Y-100.0
X205.12Y-91.0
X207.12Y-100.0
T4
X126.0Y-107.5
X128.0Y-82.5
X128.54Y-107.5
X130.54Y-82.5
X131.5Y-116.5
X134.04Y-116.5
X172.0Y-59.0
X174.54Y-59.0
X215.0Y-82.5
X217.5Y-108.0
X217.54Y-82.5
X220.04Y-108.0
T5
X153.0Y-132.0
X153.0Y-136.5
X159.5Y-132.0
X159.5Y-136.5
M30
