%TF.GenerationSoftware,KiCad,Pcbnew,10.0.6*%
%TF.CreationDate,2026-10-04T11:57:38+05:45*%
%TF.ProjectId,RCoV(PCB),52436f56-2850-4434-9229-2e6b69636164,rev?*%
%TF.SameCoordinates,Original*%
%TF.FileFunction,Legend,Bot*%
%TF.FilePolarity,Positive*%
%FSLAX46Y46*%
G04 Gerber Fmt 4.6, Leading zero omitted, Abs format (unit mm)*
G04 Created by KiCad (PCBNEW 10.0.6) date 2026-10-04 11:57:38*
%MOMM*%
%LPD*%
G01*
G04 APERTURE LIST*
%ADD10C,0.000000*%
%ADD11C,0.308445*%
%ADD12C,0.166477*%
G04 APERTURE END LIST*
D10*
G36*
X186929201Y-120652486D02*
G01*
X186956627Y-120654560D01*
X186983637Y-120658006D01*
X187010209Y-120662749D01*
X187036335Y-120668772D01*
X187061938Y-120676054D01*
X187087035Y-120684537D01*
X187111532Y-120694199D01*
X187135449Y-120705004D01*
X187158718Y-120716928D01*
X187181320Y-120729932D01*
X187203226Y-120743971D01*
X187224393Y-120759011D01*
X187244788Y-120775042D01*
X187264367Y-120791995D01*
X187283113Y-120809880D01*
X187300989Y-120828618D01*
X187317943Y-120848206D01*
X187333971Y-120868592D01*
X187349023Y-120889767D01*
X187363061Y-120911665D01*
X187376066Y-120934265D01*
X187387978Y-120957545D01*
X187398794Y-120981451D01*
X187408463Y-121005973D01*
X187416938Y-121031045D01*
X187424210Y-121056659D01*
X187430235Y-121082776D01*
X187434985Y-121109348D01*
X187438422Y-121136374D01*
X187440508Y-121163784D01*
X187441216Y-121191553D01*
X187440508Y-121219340D01*
X187438422Y-121246749D01*
X187434985Y-121273759D01*
X187430235Y-121300348D01*
X187424210Y-121326448D01*
X187416938Y-121352079D01*
X187408463Y-121377148D01*
X187398794Y-121401670D01*
X187387978Y-121425571D01*
X187376066Y-121448856D01*
X187363061Y-121471458D01*
X187349023Y-121493349D01*
X187333971Y-121514515D01*
X187317943Y-121534910D01*
X187300989Y-121554490D01*
X187283113Y-121573243D01*
X187264367Y-121591112D01*
X187244788Y-121608082D01*
X187224393Y-121624110D01*
X187203226Y-121639152D01*
X187181320Y-121653191D01*
X187158718Y-121666189D01*
X187135449Y-121678117D01*
X187111532Y-121688917D01*
X187087035Y-121698586D01*
X187061938Y-121707068D01*
X187036335Y-121714351D01*
X187010209Y-121720374D01*
X186983637Y-121725115D01*
X186956627Y-121728545D01*
X186929201Y-121730631D01*
X186901430Y-121731339D01*
X186873654Y-121730631D01*
X186846245Y-121728545D01*
X186819235Y-121725115D01*
X186792646Y-121720374D01*
X186766537Y-121714351D01*
X186740915Y-121707068D01*
X186715834Y-121698586D01*
X186691321Y-121688917D01*
X186667423Y-121678117D01*
X186644136Y-121666189D01*
X186621535Y-121653191D01*
X186599645Y-121639152D01*
X186578479Y-121624110D01*
X186558084Y-121608082D01*
X186538493Y-121591112D01*
X186519743Y-121573243D01*
X186501882Y-121554490D01*
X186484912Y-121534910D01*
X186468898Y-121514515D01*
X186453833Y-121493349D01*
X186439792Y-121471458D01*
X186426805Y-121448856D01*
X186414891Y-121425571D01*
X186404077Y-121401670D01*
X186394408Y-121377148D01*
X186385915Y-121352079D01*
X186378643Y-121326448D01*
X186372620Y-121300348D01*
X186367868Y-121273759D01*
X186364438Y-121246749D01*
X186362364Y-121219340D01*
X186361655Y-121191553D01*
X186362364Y-121163784D01*
X186364438Y-121136374D01*
X186367868Y-121109348D01*
X186372620Y-121082776D01*
X186378643Y-121056659D01*
X186385915Y-121031045D01*
X186394408Y-121005973D01*
X186404077Y-120981451D01*
X186414891Y-120957545D01*
X186426805Y-120934265D01*
X186439792Y-120911665D01*
X186453833Y-120889767D01*
X186468898Y-120868592D01*
X186484912Y-120848206D01*
X186501882Y-120828618D01*
X186519743Y-120809880D01*
X186538493Y-120791995D01*
X186558084Y-120775042D01*
X186578479Y-120759011D01*
X186599645Y-120743971D01*
X186621535Y-120729932D01*
X186644136Y-120716928D01*
X186667423Y-120705004D01*
X186691321Y-120694199D01*
X186715834Y-120684537D01*
X186740915Y-120676054D01*
X186766537Y-120668772D01*
X186792646Y-120662749D01*
X186819235Y-120658006D01*
X186846245Y-120654560D01*
X186873654Y-120652486D01*
X186901430Y-120651784D01*
X186929201Y-120652486D01*
G37*
G36*
X160541758Y-122626524D02*
G01*
X160569167Y-122628610D01*
X160596178Y-122632056D01*
X160622755Y-122636799D01*
X160648883Y-122642822D01*
X160674486Y-122650103D01*
X160699567Y-122658587D01*
X160724080Y-122668249D01*
X160747997Y-122679054D01*
X160771266Y-122690977D01*
X160793866Y-122703980D01*
X160815775Y-122718021D01*
X160836934Y-122733061D01*
X160857318Y-122749091D01*
X160876908Y-122766045D01*
X160895662Y-122783930D01*
X160913531Y-122802665D01*
X160930500Y-122822256D01*
X160946520Y-122842642D01*
X160961571Y-122863806D01*
X160975610Y-122885715D01*
X160988598Y-122908315D01*
X161000527Y-122931595D01*
X161011343Y-122955501D01*
X161021004Y-122980023D01*
X161029486Y-123005094D01*
X161036758Y-123030709D01*
X161042793Y-123056825D01*
X161047534Y-123083398D01*
X161050963Y-123110408D01*
X161053056Y-123137833D01*
X161053757Y-123165602D01*
X161053056Y-123193389D01*
X161050963Y-123220799D01*
X161047534Y-123247809D01*
X161042793Y-123274398D01*
X161036758Y-123300498D01*
X161029486Y-123326127D01*
X161021004Y-123351198D01*
X161011343Y-123375720D01*
X161000527Y-123399621D01*
X160988598Y-123422906D01*
X160975610Y-123445508D01*
X160961571Y-123467399D01*
X160946520Y-123488565D01*
X160930500Y-123508960D01*
X160913531Y-123528540D01*
X160895662Y-123547293D01*
X160876908Y-123565162D01*
X160857318Y-123582132D01*
X160836934Y-123598160D01*
X160815775Y-123613202D01*
X160793866Y-123627241D01*
X160771266Y-123640239D01*
X160747997Y-123652167D01*
X160724080Y-123662967D01*
X160699567Y-123672636D01*
X160674486Y-123681117D01*
X160648883Y-123688399D01*
X160622755Y-123694424D01*
X160596178Y-123699165D01*
X160569167Y-123702595D01*
X160541758Y-123704680D01*
X160513971Y-123705389D01*
X160486202Y-123704680D01*
X160458792Y-123702595D01*
X160431780Y-123699165D01*
X160405194Y-123694424D01*
X160379077Y-123688399D01*
X160353462Y-123681117D01*
X160328382Y-123672636D01*
X160303869Y-123662967D01*
X160279952Y-123652167D01*
X160256683Y-123640239D01*
X160234083Y-123627241D01*
X160212174Y-123613202D01*
X160191024Y-123598160D01*
X160170631Y-123582132D01*
X160151049Y-123565162D01*
X160132298Y-123547293D01*
X160114427Y-123528540D01*
X160097459Y-123508960D01*
X160081429Y-123488565D01*
X160066378Y-123467399D01*
X160052339Y-123445508D01*
X160039337Y-123422906D01*
X160027422Y-123399621D01*
X160016608Y-123375720D01*
X160006955Y-123351198D01*
X159998463Y-123326127D01*
X159991190Y-123300498D01*
X159985167Y-123274398D01*
X159980415Y-123247809D01*
X159976979Y-123220799D01*
X159974893Y-123193389D01*
X159974203Y-123165602D01*
X159974893Y-123137833D01*
X159976979Y-123110408D01*
X159980415Y-123083398D01*
X159985167Y-123056825D01*
X159991190Y-123030709D01*
X159998463Y-123005094D01*
X160006955Y-122980023D01*
X160016608Y-122955501D01*
X160027422Y-122931595D01*
X160039337Y-122908315D01*
X160052339Y-122885715D01*
X160066378Y-122863806D01*
X160081429Y-122842642D01*
X160097459Y-122822256D01*
X160114427Y-122802665D01*
X160132298Y-122783930D01*
X160151049Y-122766045D01*
X160170631Y-122749091D01*
X160191024Y-122733061D01*
X160212174Y-122718021D01*
X160234083Y-122703980D01*
X160256683Y-122690977D01*
X160279952Y-122679054D01*
X160303869Y-122668249D01*
X160328382Y-122658587D01*
X160353462Y-122650103D01*
X160379077Y-122642822D01*
X160405194Y-122636799D01*
X160431780Y-122632056D01*
X160458792Y-122628610D01*
X160486202Y-122626524D01*
X160513971Y-122625818D01*
X160541758Y-122626524D01*
G37*
G36*
X171676611Y-114113452D02*
G01*
X171704021Y-114115538D01*
X171731042Y-114118975D01*
X171757619Y-114123725D01*
X171783729Y-114129750D01*
X171809350Y-114137022D01*
X171834431Y-114145497D01*
X171858944Y-114155166D01*
X171882843Y-114165982D01*
X171906130Y-114177894D01*
X171928730Y-114190899D01*
X171950623Y-114204938D01*
X171971787Y-114219989D01*
X171992182Y-114236017D01*
X172011772Y-114252971D01*
X172030524Y-114270847D01*
X172048384Y-114289593D01*
X172065353Y-114309172D01*
X172081384Y-114329567D01*
X172096435Y-114350734D01*
X172110474Y-114372640D01*
X172123460Y-114395242D01*
X172135391Y-114418511D01*
X172146189Y-114442428D01*
X172155858Y-114466925D01*
X172164350Y-114492022D01*
X172171623Y-114517625D01*
X172177646Y-114543751D01*
X172182398Y-114570323D01*
X172185828Y-114597333D01*
X172187904Y-114624759D01*
X172188611Y-114652530D01*
X172187904Y-114680306D01*
X172185828Y-114707715D01*
X172182398Y-114734737D01*
X172177646Y-114761314D01*
X172171623Y-114787423D01*
X172164350Y-114813045D01*
X172155858Y-114838126D01*
X172146189Y-114862639D01*
X172135391Y-114886537D01*
X172123460Y-114909824D01*
X172110474Y-114932425D01*
X172096435Y-114954315D01*
X172081384Y-114975482D01*
X172065353Y-114995876D01*
X172048384Y-115015467D01*
X172030524Y-115034218D01*
X172011772Y-115052078D01*
X171992182Y-115069048D01*
X171971787Y-115085062D01*
X171950623Y-115100127D01*
X171928730Y-115114168D01*
X171906130Y-115127155D01*
X171882843Y-115139069D01*
X171858944Y-115149883D01*
X171834431Y-115159552D01*
X171809350Y-115168045D01*
X171783729Y-115175317D01*
X171757619Y-115181340D01*
X171731042Y-115186092D01*
X171704021Y-115189522D01*
X171676611Y-115191596D01*
X171648835Y-115192305D01*
X171621064Y-115191596D01*
X171593639Y-115189522D01*
X171566629Y-115186092D01*
X171540056Y-115181340D01*
X171513931Y-115175317D01*
X171488327Y-115168045D01*
X171463247Y-115159552D01*
X171438734Y-115149883D01*
X171414817Y-115139069D01*
X171391548Y-115127155D01*
X171368946Y-115114168D01*
X171347039Y-115100127D01*
X171325873Y-115085062D01*
X171305478Y-115069048D01*
X171285898Y-115052078D01*
X171267152Y-115034218D01*
X171249276Y-115015467D01*
X171232322Y-114995876D01*
X171216294Y-114975482D01*
X171201243Y-114954315D01*
X171187204Y-114932425D01*
X171174199Y-114909824D01*
X171162287Y-114886537D01*
X171151471Y-114862639D01*
X171141818Y-114838126D01*
X171133327Y-114813045D01*
X171126055Y-114787423D01*
X171120030Y-114761314D01*
X171115280Y-114734737D01*
X171111843Y-114707715D01*
X171109757Y-114680306D01*
X171109049Y-114652530D01*
X171109757Y-114624759D01*
X171111843Y-114597333D01*
X171115280Y-114570323D01*
X171120030Y-114543751D01*
X171126055Y-114517625D01*
X171133327Y-114492022D01*
X171141818Y-114466925D01*
X171151471Y-114442428D01*
X171162287Y-114418511D01*
X171174199Y-114395242D01*
X171187204Y-114372640D01*
X171201243Y-114350734D01*
X171216294Y-114329567D01*
X171232322Y-114309172D01*
X171249276Y-114289593D01*
X171267152Y-114270847D01*
X171285898Y-114252971D01*
X171305478Y-114236017D01*
X171325873Y-114219989D01*
X171347039Y-114204938D01*
X171368946Y-114190899D01*
X171391548Y-114177894D01*
X171414817Y-114165982D01*
X171438734Y-114155166D01*
X171463247Y-114145497D01*
X171488327Y-114137022D01*
X171513931Y-114129750D01*
X171540056Y-114123725D01*
X171566629Y-114118975D01*
X171593639Y-114115538D01*
X171621064Y-114113452D01*
X171648835Y-114112744D01*
X171676611Y-114113452D01*
G37*
G36*
X179634485Y-132990276D02*
G01*
X179661894Y-132992361D01*
X179688921Y-132995798D01*
X179715493Y-133000548D01*
X179741609Y-133006573D01*
X179767224Y-133013846D01*
X179792296Y-133022336D01*
X179816818Y-133031989D01*
X179840723Y-133042805D01*
X179864004Y-133054717D01*
X179886604Y-133067722D01*
X179908501Y-133081761D01*
X179929677Y-133096812D01*
X179950063Y-133112842D01*
X179969653Y-133129795D01*
X179988389Y-133147670D01*
X180006273Y-133166416D01*
X180023227Y-133185998D01*
X180039258Y-133206391D01*
X180054298Y-133227557D01*
X180068339Y-133249466D01*
X180081341Y-133272066D01*
X180093265Y-133295335D01*
X180104070Y-133319252D01*
X180113731Y-133343765D01*
X180122215Y-133368845D01*
X180129496Y-133394460D01*
X180135520Y-133420576D01*
X180140263Y-133447147D01*
X180143708Y-133474173D01*
X180145783Y-133501585D01*
X180146484Y-133529354D01*
X180145783Y-133557130D01*
X180143708Y-133584539D01*
X180140263Y-133611560D01*
X180135520Y-133638138D01*
X180129496Y-133664263D01*
X180122215Y-133689869D01*
X180113731Y-133714950D01*
X180104070Y-133739463D01*
X180093265Y-133763363D01*
X180081341Y-133786649D01*
X180068339Y-133809249D01*
X180054298Y-133831141D01*
X180039258Y-133852317D01*
X180023227Y-133872701D01*
X180006273Y-133892291D01*
X179988389Y-133911042D01*
X179969653Y-133928913D01*
X179950063Y-133945872D01*
X179929677Y-133961902D01*
X179908501Y-133976954D01*
X179886604Y-133990992D01*
X179864004Y-134003979D01*
X179840723Y-134015909D01*
X179816818Y-134026707D01*
X179792296Y-134036376D01*
X179767224Y-134044869D01*
X179741609Y-134052141D01*
X179715493Y-134058164D01*
X179688921Y-134062916D01*
X179661894Y-134066346D01*
X179634485Y-134068423D01*
X179606716Y-134069129D01*
X179578929Y-134068423D01*
X179551520Y-134066346D01*
X179524510Y-134062916D01*
X179497921Y-134058164D01*
X179471821Y-134052141D01*
X179446191Y-134044869D01*
X179421120Y-134036376D01*
X179396598Y-134026707D01*
X179372698Y-134015909D01*
X179349412Y-134003979D01*
X179326810Y-133990992D01*
X179304920Y-133976954D01*
X179283754Y-133961902D01*
X179263359Y-133945872D01*
X179243779Y-133928913D01*
X179225026Y-133911042D01*
X179207157Y-133892291D01*
X179190187Y-133872701D01*
X179174159Y-133852317D01*
X179159116Y-133831141D01*
X179145078Y-133809249D01*
X179132080Y-133786649D01*
X179120152Y-133763363D01*
X179109352Y-133739463D01*
X179099683Y-133714950D01*
X179091201Y-133689869D01*
X179083920Y-133664263D01*
X179077894Y-133638138D01*
X179073154Y-133611560D01*
X179069724Y-133584539D01*
X179067638Y-133557130D01*
X179066930Y-133529354D01*
X179067638Y-133501585D01*
X179069724Y-133474173D01*
X179073154Y-133447147D01*
X179077894Y-133420576D01*
X179083920Y-133394460D01*
X179091201Y-133368845D01*
X179099683Y-133343765D01*
X179109352Y-133319252D01*
X179120152Y-133295335D01*
X179132080Y-133272066D01*
X179145078Y-133249466D01*
X179159116Y-133227557D01*
X179174159Y-133206391D01*
X179190187Y-133185998D01*
X179207157Y-133166416D01*
X179225026Y-133147670D01*
X179243779Y-133129795D01*
X179263359Y-133112842D01*
X179283754Y-133096812D01*
X179304920Y-133081761D01*
X179326810Y-133067722D01*
X179349412Y-133054717D01*
X179372698Y-133042805D01*
X179396598Y-133031989D01*
X179421120Y-133022336D01*
X179446191Y-133013846D01*
X179471821Y-133006573D01*
X179497921Y-133000548D01*
X179524510Y-132995798D01*
X179551520Y-132992361D01*
X179578929Y-132990276D01*
X179606716Y-132989583D01*
X179634485Y-132990276D01*
G37*
D11*
X160478265Y-139915071D02*
X160443022Y-139917748D01*
X160408281Y-139922161D01*
X160374107Y-139928263D01*
X160340539Y-139936013D01*
X160307605Y-139945367D01*
X160275351Y-139956278D01*
X160243842Y-139968696D01*
X160213098Y-139982595D01*
X160183167Y-139997920D01*
X160154106Y-140014630D01*
X160125949Y-140032680D01*
X160098747Y-140052042D01*
X160072524Y-140072639D01*
X160047342Y-140094445D01*
X160023252Y-140117428D01*
X160000270Y-140141534D01*
X159978447Y-140166710D01*
X159957850Y-140192939D01*
X159938504Y-140220141D01*
X159920455Y-140248298D01*
X159903744Y-140277359D01*
X159888403Y-140307290D01*
X159874506Y-140338034D01*
X159862077Y-140369543D01*
X159851175Y-140401781D01*
X159841821Y-140434724D01*
X159834071Y-140468308D01*
X159827969Y-140502473D01*
X159823556Y-140537198D01*
X159820879Y-140572457D01*
X159819966Y-140608163D01*
X159820879Y-140643871D01*
X159823556Y-140679130D01*
X159827969Y-140713852D01*
X159834071Y-140748033D01*
X159841821Y-140781602D01*
X159851175Y-140814545D01*
X159862077Y-140846783D01*
X159874506Y-140878308D01*
X159888403Y-140909051D01*
X159903744Y-140938966D01*
X159920455Y-140968028D01*
X159938504Y-140996185D01*
X159957850Y-141023389D01*
X159978447Y-141049617D01*
X160000270Y-141074792D01*
X160023252Y-141098898D01*
X160047342Y-141121882D01*
X160072524Y-141143687D01*
X160098747Y-141164286D01*
X160125949Y-141183645D01*
X160154106Y-141201695D01*
X160183167Y-141218406D01*
X160213098Y-141233730D01*
X160243842Y-141247630D01*
X160275351Y-141260059D01*
X160307605Y-141270958D01*
X160340539Y-141280312D01*
X160374107Y-141288063D01*
X160408281Y-141294165D01*
X160443022Y-141298577D01*
X160478265Y-141301271D01*
X160513971Y-141302170D01*
X160549695Y-141301271D01*
X160584938Y-141298577D01*
X160619667Y-141294165D01*
X160653841Y-141288063D01*
X160687410Y-141280312D01*
X160720355Y-141270958D01*
X160752591Y-141260059D01*
X160784107Y-141247630D01*
X160814850Y-141233730D01*
X160844782Y-141218406D01*
X160873836Y-141201695D01*
X160902000Y-141183645D01*
X160929213Y-141164286D01*
X160955425Y-141143687D01*
X160980607Y-141121882D01*
X161004706Y-141098898D01*
X161027690Y-141074792D01*
X161049495Y-141049617D01*
X161070110Y-141023389D01*
X161089453Y-140996185D01*
X161107503Y-140968028D01*
X161124214Y-140938966D01*
X161139546Y-140909051D01*
X161153445Y-140878308D01*
X161165858Y-140846783D01*
X161176782Y-140814545D01*
X161186136Y-140781602D01*
X161193887Y-140748033D01*
X161199980Y-140713852D01*
X161204392Y-140679130D01*
X161207070Y-140643871D01*
X161207969Y-140608163D01*
X161207070Y-140572457D01*
X161204392Y-140537198D01*
X161199980Y-140502473D01*
X161193887Y-140468308D01*
X161186136Y-140434724D01*
X161176782Y-140401781D01*
X161165858Y-140369543D01*
X161153445Y-140338034D01*
X161139546Y-140307290D01*
X161124214Y-140277359D01*
X161107503Y-140248298D01*
X161089453Y-140220141D01*
X161070110Y-140192939D01*
X161049495Y-140166710D01*
X161027690Y-140141534D01*
X161004706Y-140117428D01*
X160980607Y-140094445D01*
X160955425Y-140072639D01*
X160929213Y-140052042D01*
X160902000Y-140032680D01*
X160873836Y-140014630D01*
X160844782Y-139997920D01*
X160814850Y-139982595D01*
X160784107Y-139968696D01*
X160752591Y-139956278D01*
X160720355Y-139945367D01*
X160687410Y-139936013D01*
X160653841Y-139928263D01*
X160619667Y-139922161D01*
X160584938Y-139917748D01*
X160549695Y-139915071D01*
X160513971Y-139914167D01*
X160478265Y-139915071D01*
X164614933Y-136846345D02*
X164567945Y-136849904D01*
X164521628Y-136855804D01*
X164476070Y-136863929D01*
X164431297Y-136874266D01*
X164387391Y-136886733D01*
X164344396Y-136901289D01*
X164302373Y-136917849D01*
X164261384Y-136936380D01*
X164221490Y-136956821D01*
X164182733Y-136979099D01*
X164145185Y-137003166D01*
X164108922Y-137028965D01*
X164073959Y-137056430D01*
X164040376Y-137085516D01*
X164008254Y-137116164D01*
X163977608Y-137148300D01*
X163948522Y-137181868D01*
X163921057Y-137216830D01*
X163895258Y-137253109D01*
X163871180Y-137290644D01*
X163848911Y-137329398D01*
X163828472Y-137369304D01*
X163809941Y-137410281D01*
X163793370Y-137452304D01*
X163778825Y-137495299D01*
X163766358Y-137539216D01*
X163756021Y-137583979D01*
X163747878Y-137629552D01*
X163741994Y-137675869D01*
X163738426Y-137722857D01*
X163737222Y-137770476D01*
X163738426Y-137818084D01*
X163741994Y-137865087D01*
X163747878Y-137911388D01*
X163756021Y-137956962D01*
X163766358Y-138001724D01*
X163778825Y-138045642D01*
X163793370Y-138088636D01*
X163809941Y-138130659D01*
X163828472Y-138171648D01*
X163848911Y-138211543D01*
X163871180Y-138250299D01*
X163895258Y-138287832D01*
X163921057Y-138324111D01*
X163948522Y-138359073D01*
X163977608Y-138392640D01*
X164008254Y-138424776D01*
X164040376Y-138455424D01*
X164073959Y-138484510D01*
X164108922Y-138511975D01*
X164145185Y-138537774D01*
X164182733Y-138561841D01*
X164221490Y-138584119D01*
X164261384Y-138604561D01*
X164302373Y-138623091D01*
X164344396Y-138639662D01*
X164387391Y-138654207D01*
X164431297Y-138666674D01*
X164476070Y-138677011D01*
X164521628Y-138685153D01*
X164567945Y-138691036D01*
X164614933Y-138694606D01*
X164662557Y-138695810D01*
X164710176Y-138694606D01*
X164757161Y-138691036D01*
X164803480Y-138685153D01*
X164849043Y-138677011D01*
X164893816Y-138666674D01*
X164937731Y-138654207D01*
X164980717Y-138639662D01*
X165022749Y-138623091D01*
X165063729Y-138604561D01*
X165103632Y-138584119D01*
X165142373Y-138561841D01*
X165179924Y-138537774D01*
X165216202Y-138511975D01*
X165251154Y-138484510D01*
X165284732Y-138455424D01*
X165316868Y-138424776D01*
X165347500Y-138392640D01*
X165376600Y-138359073D01*
X165404051Y-138324111D01*
X165429850Y-138287832D01*
X165453933Y-138250299D01*
X165476211Y-138211543D01*
X165496650Y-138171648D01*
X165515172Y-138130659D01*
X165531743Y-138088636D01*
X165546283Y-138045642D01*
X165558755Y-138001724D01*
X165569101Y-137956962D01*
X165577229Y-137911388D01*
X165583112Y-137865087D01*
X165586687Y-137818084D01*
X165587891Y-137770476D01*
X165586687Y-137722857D01*
X165583112Y-137675869D01*
X165577229Y-137629552D01*
X165569101Y-137583979D01*
X165558755Y-137539216D01*
X165546283Y-137495299D01*
X165531743Y-137452304D01*
X165515172Y-137410281D01*
X165496650Y-137369304D01*
X165476211Y-137329398D01*
X165453933Y-137290644D01*
X165429850Y-137253109D01*
X165404051Y-137216830D01*
X165376600Y-137181868D01*
X165347500Y-137148300D01*
X165316868Y-137116164D01*
X165284732Y-137085516D01*
X165251154Y-137056430D01*
X165216202Y-137028965D01*
X165179924Y-137003166D01*
X165142373Y-136979099D01*
X165103632Y-136956821D01*
X165063729Y-136936380D01*
X165022749Y-136917849D01*
X164980717Y-136901289D01*
X164937731Y-136886733D01*
X164893816Y-136874266D01*
X164849043Y-136863929D01*
X164803480Y-136855804D01*
X164757161Y-136849904D01*
X164710176Y-136846345D01*
X164662557Y-136845141D01*
X164614933Y-136846345D01*
X159686855Y-135196772D02*
X159616362Y-135202129D01*
X159546899Y-135210955D01*
X159478546Y-135223148D01*
X159411407Y-135238648D01*
X159345528Y-135257356D01*
X159281038Y-135279184D01*
X159218003Y-135304025D01*
X159156532Y-135331822D01*
X159096682Y-135362479D01*
X159038547Y-135395899D01*
X158982233Y-135432010D01*
X158927819Y-135470703D01*
X158875378Y-135511899D01*
X158825020Y-135555536D01*
X158776824Y-135601493D01*
X158730858Y-135649698D01*
X158687230Y-135700056D01*
X158646025Y-135752497D01*
X158607332Y-135806911D01*
X158571232Y-135863232D01*
X158537812Y-135921349D01*
X158507155Y-135981209D01*
X158479356Y-136042679D01*
X158454499Y-136105707D01*
X158432689Y-136170206D01*
X158413981Y-136236074D01*
X158398479Y-136303222D01*
X158386277Y-136371577D01*
X158377451Y-136441040D01*
X158372080Y-136511533D01*
X158370278Y-136582963D01*
X158372080Y-136654386D01*
X158377451Y-136724879D01*
X158386277Y-136794343D01*
X158398479Y-136862696D01*
X158413981Y-136929834D01*
X158432689Y-136995714D01*
X158454499Y-137060204D01*
X158479356Y-137123238D01*
X158507155Y-137184709D01*
X158537812Y-137244560D01*
X158571232Y-137302678D01*
X158607332Y-137359008D01*
X158646025Y-137413423D01*
X158687230Y-137465864D01*
X158730858Y-137516221D01*
X158776824Y-137564416D01*
X158825020Y-137610384D01*
X158875378Y-137654011D01*
X158927819Y-137695216D01*
X158982233Y-137733909D01*
X159038547Y-137770009D01*
X159096682Y-137803430D01*
X159156532Y-137834086D01*
X159218003Y-137861886D01*
X159281038Y-137886726D01*
X159345528Y-137908553D01*
X159411407Y-137927261D01*
X159478546Y-137942762D01*
X159546899Y-137954965D01*
X159616362Y-137963790D01*
X159686855Y-137969162D01*
X159758278Y-137970964D01*
X159829708Y-137969162D01*
X159900201Y-137963790D01*
X159969665Y-137954965D01*
X160038020Y-137942762D01*
X160105167Y-137927261D01*
X160171036Y-137908553D01*
X160235535Y-137886726D01*
X160298562Y-137861886D01*
X160360033Y-137834086D01*
X160419893Y-137803430D01*
X160478009Y-137770009D01*
X160534330Y-137733909D01*
X160588745Y-137695216D01*
X160641186Y-137654011D01*
X160691543Y-137610384D01*
X160739748Y-137564416D01*
X160785706Y-137516221D01*
X160829342Y-137465864D01*
X160870538Y-137413423D01*
X160909231Y-137359008D01*
X160945342Y-137302678D01*
X160978763Y-137244560D01*
X161009419Y-137184709D01*
X161037217Y-137123238D01*
X161062057Y-137060204D01*
X161083886Y-136995714D01*
X161102594Y-136929834D01*
X161118093Y-136862696D01*
X161130287Y-136794343D01*
X161139112Y-136724879D01*
X161144470Y-136654386D01*
X161146279Y-136582963D01*
X161144470Y-136511533D01*
X161139112Y-136441040D01*
X161130287Y-136371577D01*
X161118093Y-136303222D01*
X161102594Y-136236074D01*
X161083886Y-136170206D01*
X161062057Y-136105707D01*
X161037217Y-136042679D01*
X161009419Y-135981209D01*
X160978763Y-135921349D01*
X160945342Y-135863232D01*
X160909231Y-135806911D01*
X160870538Y-135752497D01*
X160829342Y-135700056D01*
X160785706Y-135649698D01*
X160739748Y-135601493D01*
X160691543Y-135555536D01*
X160641186Y-135511899D01*
X160588745Y-135470703D01*
X160534330Y-135432010D01*
X160478009Y-135395899D01*
X160419893Y-135362479D01*
X160360033Y-135331822D01*
X160298562Y-135304025D01*
X160235535Y-135279184D01*
X160171036Y-135257356D01*
X160105167Y-135238648D01*
X160038020Y-135223148D01*
X159969665Y-135210955D01*
X159900201Y-135202129D01*
X159829708Y-135196772D01*
X159758278Y-135194963D01*
X159686855Y-135196772D01*
X161251814Y-130407664D02*
X160899372Y-130434462D01*
X160552059Y-130478605D01*
X160210297Y-130539640D01*
X159874538Y-130617130D01*
X159545215Y-130710640D01*
X159222746Y-130819758D01*
X158907586Y-130944023D01*
X158600171Y-131083002D01*
X158300936Y-131236259D01*
X158010311Y-131403363D01*
X157728732Y-131583880D01*
X157456629Y-131777380D01*
X157194466Y-131983397D01*
X156942640Y-132201537D01*
X156701617Y-132431315D01*
X156471839Y-132672338D01*
X156253708Y-132924155D01*
X156047680Y-133186329D01*
X155854191Y-133458421D01*
X155673674Y-133740000D01*
X155506570Y-134030625D01*
X155353302Y-134329871D01*
X155214323Y-134637286D01*
X155090069Y-134952435D01*
X154980951Y-135274906D01*
X154887430Y-135604238D01*
X154809940Y-135939997D01*
X154748916Y-136281748D01*
X154704771Y-136629063D01*
X154677966Y-136981512D01*
X154668942Y-137338638D01*
X154677966Y-137695787D01*
X154704771Y-138048229D01*
X154748916Y-138395542D01*
X154809940Y-138737304D01*
X154887430Y-139073063D01*
X154980951Y-139402386D01*
X155090069Y-139724855D01*
X155214323Y-140040015D01*
X155353302Y-140347430D01*
X155506570Y-140646665D01*
X155673674Y-140937290D01*
X155854191Y-141218869D01*
X156047680Y-141490972D01*
X156253708Y-141753135D01*
X156471839Y-142004961D01*
X156701617Y-142245984D01*
X156942640Y-142475762D01*
X157194466Y-142693893D01*
X157456629Y-142899921D01*
X157728732Y-143093410D01*
X158010311Y-143273927D01*
X158300936Y-143441031D01*
X158600171Y-143594299D01*
X158907586Y-143733278D01*
X159222746Y-143857532D01*
X159545215Y-143966650D01*
X159874538Y-144060171D01*
X160210297Y-144137661D01*
X160552059Y-144198685D01*
X160899372Y-144242830D01*
X161251814Y-144269635D01*
X161608963Y-144278659D01*
X161966089Y-144269635D01*
X162318538Y-144242830D01*
X162665853Y-144198685D01*
X163007604Y-144137661D01*
X163343363Y-144060171D01*
X163672695Y-143966650D01*
X163995166Y-143857532D01*
X164310315Y-143733278D01*
X164617730Y-143594299D01*
X164916976Y-143441031D01*
X165207601Y-143273927D01*
X165489180Y-143093410D01*
X165761272Y-142899921D01*
X166023446Y-142693893D01*
X166275263Y-142475762D01*
X166516286Y-142245984D01*
X166746064Y-142004961D01*
X166964204Y-141753135D01*
X167170221Y-141490972D01*
X167363721Y-141218869D01*
X167544238Y-140937290D01*
X167711342Y-140646665D01*
X167864599Y-140347430D01*
X168003578Y-140040015D01*
X168127843Y-139724855D01*
X168236961Y-139402386D01*
X168330471Y-139073063D01*
X168407961Y-138737304D01*
X168468996Y-138395542D01*
X168513139Y-138048229D01*
X168539937Y-137695787D01*
X168548970Y-137338638D01*
X168539937Y-136981512D01*
X168513139Y-136629063D01*
X168468996Y-136281748D01*
X168407961Y-135939997D01*
X168330471Y-135604238D01*
X168236961Y-135274906D01*
X168127843Y-134952435D01*
X168003578Y-134637286D01*
X167864599Y-134329871D01*
X167711342Y-134030625D01*
X167544238Y-133740000D01*
X167363721Y-133458421D01*
X167170221Y-133186329D01*
X166964204Y-132924155D01*
X166746064Y-132672338D01*
X166516286Y-132431315D01*
X166275263Y-132201537D01*
X166023446Y-131983397D01*
X165761272Y-131777380D01*
X165489180Y-131583880D01*
X165207601Y-131403363D01*
X164916976Y-131236259D01*
X164617730Y-131083002D01*
X164310315Y-130944023D01*
X163995166Y-130819758D01*
X163672695Y-130710640D01*
X163343363Y-130617130D01*
X163007604Y-130539640D01*
X162665853Y-130478605D01*
X162318538Y-130434462D01*
X161966089Y-130407664D01*
X161608963Y-130398631D01*
X161251814Y-130407664D01*
X186330816Y-111891951D02*
X187780502Y-111167099D01*
X184896535Y-112632219D02*
X186330816Y-111891951D01*
X183462272Y-113387899D02*
X184896535Y-112632219D01*
X182058839Y-114159024D02*
X183462272Y-113387899D01*
X180655431Y-114945554D02*
X182058839Y-114159024D01*
X179282837Y-115747507D02*
X180655431Y-114945554D01*
X177910268Y-116564883D02*
X179282837Y-115747507D01*
X176553113Y-117382270D02*
X177910268Y-116564883D01*
X175211374Y-118215069D02*
X176553113Y-117382270D01*
X173869635Y-119078718D02*
X175211374Y-118215069D01*
X172558737Y-119942356D02*
X173869635Y-119078718D01*
X171263276Y-120821428D02*
X172558737Y-119942356D01*
X169967810Y-121715916D02*
X171263276Y-120821428D01*
X168703190Y-122610411D02*
X169967810Y-121715916D01*
X167438560Y-123535745D02*
X168703190Y-122610411D01*
X166189354Y-124476502D02*
X167438560Y-123535745D01*
X164955581Y-125417252D02*
X166189354Y-124476502D01*
X163737222Y-126373432D02*
X164955581Y-125417252D01*
X162534297Y-127360462D02*
X163737222Y-126373432D01*
X161331346Y-128347481D02*
X162534297Y-127360462D01*
X160159267Y-129349918D02*
X161331346Y-128347481D01*
X158987171Y-130352368D02*
X160159267Y-129349918D01*
X157845916Y-131385660D02*
X158987171Y-130352368D01*
X156704676Y-132434376D02*
X157845916Y-131385660D01*
X187055650Y-112616785D02*
X187780502Y-111167099D01*
X186315382Y-114051066D02*
X187055650Y-112616785D01*
X185559702Y-115485329D02*
X186315382Y-114051066D01*
X184788577Y-116888762D02*
X185559702Y-115485329D01*
X184002047Y-118292170D02*
X184788577Y-116888762D01*
X183200094Y-119664764D02*
X184002047Y-118292170D01*
X182382718Y-121037333D02*
X183200094Y-119664764D01*
X181565331Y-122394488D02*
X182382718Y-121037333D01*
X180732532Y-123736227D02*
X181565331Y-122394488D01*
X179868883Y-125077966D02*
X180732532Y-123736227D01*
X179005245Y-126388864D02*
X179868883Y-125077966D01*
X178126173Y-127684325D02*
X179005245Y-126388864D01*
X177231685Y-128979791D02*
X178126173Y-127684325D01*
X176337190Y-130244411D02*
X177231685Y-128979791D01*
X175411856Y-131509041D02*
X176337190Y-130244411D01*
X174471099Y-132758247D02*
X175411856Y-131509041D01*
X173530349Y-133992020D02*
X174471099Y-132758247D01*
X172574169Y-135210379D02*
X173530349Y-133992020D01*
X171587139Y-136413304D02*
X172574169Y-135210379D01*
X170600120Y-137616255D02*
X171587139Y-136413304D01*
X169597683Y-138788334D02*
X170600120Y-137616255D01*
X168595233Y-139960430D02*
X169597683Y-138788334D01*
X167561941Y-141101685D02*
X168595233Y-139960430D01*
X166513225Y-142242925D02*
X167561941Y-141101685D01*
X179853476Y-120034891D02*
X180501195Y-119155819D01*
X179205734Y-120913963D02*
X179853476Y-120034891D01*
X178573424Y-121762178D02*
X179205734Y-120913963D01*
X177941114Y-122610411D02*
X178573424Y-121762178D01*
X177308788Y-123427787D02*
X177941114Y-122610411D01*
X176691910Y-124245172D02*
X177308788Y-123427787D01*
X176075023Y-125031693D02*
X176691910Y-124245172D01*
X175458120Y-125818225D02*
X176075023Y-125031693D01*
X174856665Y-126573914D02*
X175458120Y-125818225D01*
X174239762Y-127329605D02*
X174856665Y-126573914D01*
X173653730Y-128054457D02*
X174239762Y-127329605D01*
X173052259Y-128779302D02*
X173653730Y-128054457D01*
X172466211Y-129473297D02*
X173052259Y-128779302D01*
X171880163Y-130151887D02*
X172466211Y-129473297D01*
X171294115Y-130830460D02*
X171880163Y-130151887D01*
X170723501Y-131478204D02*
X171294115Y-130830460D01*
X170152876Y-132110514D02*
X170723501Y-131478204D01*
X169597683Y-132742823D02*
X170152876Y-132110514D01*
X169027043Y-133344278D02*
X169597683Y-132742823D01*
X168471852Y-133930327D02*
X169027043Y-133344278D01*
X167916658Y-134516372D02*
X168471852Y-133930327D01*
X167376874Y-135071582D02*
X167916658Y-134516372D01*
X166837087Y-135611348D02*
X167376874Y-135071582D01*
X166297321Y-136135711D02*
X166666606Y-135776961D01*
X166837087Y-135611348D01*
X182490665Y-116410663D02*
X183416010Y-115531591D01*
X181565331Y-117274312D02*
X182490665Y-116410663D01*
X180670838Y-118137950D02*
X181565331Y-117274312D01*
X179776359Y-118986176D02*
X180670838Y-118137950D01*
X178897287Y-119834409D02*
X179776359Y-118986176D01*
X178033638Y-120667201D02*
X178897287Y-119834409D01*
X177170000Y-121500000D02*
X178033638Y-120667201D01*
X176337190Y-122332810D02*
X177170000Y-121500000D01*
X175504398Y-123134763D02*
X176337190Y-122332810D01*
X174687022Y-123952148D02*
X175504398Y-123134763D01*
X173885067Y-124738680D02*
X174687022Y-123952148D01*
X173083098Y-125540633D02*
X173885067Y-124738680D01*
X172311991Y-126311747D02*
X173083098Y-125540633D01*
X171540877Y-127082861D02*
X172311991Y-126311747D01*
X170785186Y-127853968D02*
X171540877Y-127082861D01*
X170044918Y-128609659D02*
X170785186Y-127853968D01*
X169320068Y-129365350D02*
X170044918Y-128609659D01*
X168595233Y-130105608D02*
X169320068Y-129365350D01*
X167885803Y-130845892D02*
X168595233Y-130105608D01*
X167191809Y-131570727D02*
X167885803Y-130845892D01*
X166513225Y-132280155D02*
X167191809Y-131570727D01*
X165850069Y-132989583D02*
X166513225Y-132280155D01*
X165202327Y-133698995D02*
X165401592Y-133480762D01*
X165850069Y-132989583D01*
X164554608Y-134392993D02*
X165202327Y-133698995D01*
X175781999Y-122240268D02*
X176522267Y-121715916D01*
X175041731Y-122733790D02*
X175781999Y-122240268D01*
X174316879Y-123242721D02*
X175041731Y-122733790D01*
X173607452Y-123736227D02*
X174316879Y-123242721D01*
X172928878Y-124229740D02*
X173607452Y-123736227D01*
X172250306Y-124707839D02*
X172928878Y-124229740D01*
X171587139Y-125185913D02*
X172250306Y-124707839D01*
X170954829Y-125664014D02*
X171587139Y-125185913D01*
X170322519Y-126142104D02*
X170954829Y-125664014D01*
X169721048Y-126604771D02*
X170322519Y-126142104D01*
X169119585Y-127067438D02*
X169721048Y-126604771D01*
X168533536Y-127530105D02*
X169119585Y-127067438D01*
X167978344Y-127977349D02*
X168533536Y-127530105D01*
X167423136Y-128424584D02*
X167978344Y-127977349D01*
X166898784Y-128871844D02*
X167423136Y-128424584D01*
X166374421Y-129319077D02*
X166898784Y-128871844D01*
X165880915Y-129750898D02*
X166374421Y-129319077D01*
X165387403Y-130182727D02*
X165880915Y-129750898D01*
X164924735Y-130599130D02*
X165387403Y-130182727D01*
X164462068Y-131015534D02*
X164924735Y-130599130D01*
X164030247Y-131431923D02*
X164462068Y-131015534D01*
X163613841Y-131848329D02*
X164030247Y-131431923D01*
X163197449Y-132249302D02*
X163613841Y-131848329D01*
X162811890Y-132650280D02*
X163197449Y-132249302D01*
X179051507Y-136243662D02*
X181241477Y-134069127D01*
X168363892Y-115747507D02*
X171201591Y-112909809D01*
D10*
G36*
X181696059Y-102098917D02*
G01*
X181712969Y-102100209D01*
X181729629Y-102102321D01*
X181746024Y-102105249D01*
X181762136Y-102108967D01*
X181777934Y-102113451D01*
X181793408Y-102118683D01*
X181808527Y-102124643D01*
X181823273Y-102131317D01*
X181837632Y-102138666D01*
X181851580Y-102146687D01*
X181865082Y-102155348D01*
X181878143Y-102164629D01*
X181890718Y-102174514D01*
X181902797Y-102184979D01*
X181914364Y-102196005D01*
X181925383Y-102207566D01*
X181935846Y-102219649D01*
X181945727Y-102232222D01*
X181955018Y-102245284D01*
X181963676Y-102258786D01*
X181971692Y-102272731D01*
X181979042Y-102287090D01*
X181985713Y-102301834D01*
X181991678Y-102316957D01*
X181996915Y-102332428D01*
X182001396Y-102348232D01*
X182005112Y-102364334D01*
X182008041Y-102380733D01*
X182010159Y-102397396D01*
X182011450Y-102414301D01*
X182011877Y-102431434D01*
X182011450Y-102448572D01*
X182010159Y-102465477D01*
X182008041Y-102482143D01*
X182005112Y-102498536D01*
X182001396Y-102514649D01*
X181996915Y-102530446D01*
X181991678Y-102545923D01*
X181985713Y-102561043D01*
X181979042Y-102575785D01*
X181971692Y-102590145D01*
X181963676Y-102604084D01*
X181955018Y-102617587D01*
X181945727Y-102630655D01*
X181935846Y-102643225D01*
X181925383Y-102655305D01*
X181914364Y-102666873D01*
X181902797Y-102677897D01*
X181890718Y-102688357D01*
X181878143Y-102698246D01*
X181865082Y-102707528D01*
X181851580Y-102716191D01*
X181837632Y-102724203D01*
X181823273Y-102731555D01*
X181808527Y-102738226D01*
X181793408Y-102744189D01*
X181777934Y-102749420D01*
X181762136Y-102753912D01*
X181746024Y-102757623D01*
X181729629Y-102760560D01*
X181712969Y-102762673D01*
X181696059Y-102763961D01*
X181678925Y-102764394D01*
X181661793Y-102763961D01*
X181644887Y-102762673D01*
X181628218Y-102760560D01*
X181611826Y-102757623D01*
X181595713Y-102753912D01*
X181579914Y-102749420D01*
X181564447Y-102744189D01*
X181549331Y-102738226D01*
X181534575Y-102731555D01*
X181520226Y-102724203D01*
X181506278Y-102716191D01*
X181492766Y-102707528D01*
X181479713Y-102698246D01*
X181467139Y-102688357D01*
X181455054Y-102677897D01*
X181443490Y-102666873D01*
X181432470Y-102655305D01*
X181422003Y-102643225D01*
X181412120Y-102630655D01*
X181402836Y-102617587D01*
X181394173Y-102604084D01*
X181386159Y-102590145D01*
X181378807Y-102575785D01*
X181372137Y-102561043D01*
X181366175Y-102545923D01*
X181360944Y-102530446D01*
X181356456Y-102514649D01*
X181352739Y-102498536D01*
X181349818Y-102482143D01*
X181347691Y-102465477D01*
X181346406Y-102448572D01*
X181345977Y-102431434D01*
X181346406Y-102414301D01*
X181347691Y-102397396D01*
X181349818Y-102380733D01*
X181352739Y-102364334D01*
X181356456Y-102348232D01*
X181360944Y-102332428D01*
X181366175Y-102316957D01*
X181372137Y-102301834D01*
X181378807Y-102287090D01*
X181386159Y-102272731D01*
X181394173Y-102258786D01*
X181402836Y-102245284D01*
X181412120Y-102232222D01*
X181422003Y-102219649D01*
X181432470Y-102207566D01*
X181443490Y-102196005D01*
X181455054Y-102184979D01*
X181467139Y-102174514D01*
X181479713Y-102164629D01*
X181492766Y-102155348D01*
X181506278Y-102146687D01*
X181520226Y-102138666D01*
X181534575Y-102131317D01*
X181549331Y-102124643D01*
X181564447Y-102118683D01*
X181579914Y-102113451D01*
X181595713Y-102108967D01*
X181611826Y-102105249D01*
X181628218Y-102102321D01*
X181644887Y-102100209D01*
X181661793Y-102098917D01*
X181678925Y-102098484D01*
X181696059Y-102098917D01*
G37*
G36*
X158389363Y-98769387D02*
G01*
X158406272Y-98770672D01*
X158422937Y-98772786D01*
X158439332Y-98775719D01*
X158455438Y-98779440D01*
X158471236Y-98783927D01*
X158486708Y-98789160D01*
X158501833Y-98795120D01*
X158516579Y-98801790D01*
X158530932Y-98809143D01*
X158544877Y-98817158D01*
X158558385Y-98825817D01*
X158571442Y-98835103D01*
X158584015Y-98844985D01*
X158596103Y-98855452D01*
X158607661Y-98866479D01*
X158618685Y-98878037D01*
X158629145Y-98890123D01*
X158639042Y-98902702D01*
X158648321Y-98915750D01*
X158656981Y-98929258D01*
X158664999Y-98943204D01*
X158672349Y-98957558D01*
X158679019Y-98972310D01*
X158684982Y-98987432D01*
X158690213Y-99002897D01*
X158694701Y-99018705D01*
X158698420Y-99034804D01*
X158701350Y-99051203D01*
X158703465Y-99067869D01*
X158704751Y-99084775D01*
X158705183Y-99101910D01*
X158704751Y-99119042D01*
X158703465Y-99135947D01*
X158701350Y-99152614D01*
X158698420Y-99169008D01*
X158694701Y-99185121D01*
X158690213Y-99200919D01*
X158684982Y-99216390D01*
X158679019Y-99231511D01*
X158672349Y-99246259D01*
X158664999Y-99260614D01*
X158656981Y-99274553D01*
X158648321Y-99288068D01*
X158639042Y-99301121D01*
X158629145Y-99313702D01*
X158618685Y-99325774D01*
X158607661Y-99337340D01*
X158596103Y-99348364D01*
X158584015Y-99358834D01*
X158571442Y-99368715D01*
X158558385Y-99378000D01*
X158544877Y-99386660D01*
X158530932Y-99394678D01*
X158516579Y-99402031D01*
X158501833Y-99408696D01*
X158486708Y-99414657D01*
X158471236Y-99419898D01*
X158455438Y-99424378D01*
X158439332Y-99428102D01*
X158422937Y-99431028D01*
X158406272Y-99433145D01*
X158389363Y-99434430D01*
X158372230Y-99434867D01*
X158355095Y-99434430D01*
X158338188Y-99433145D01*
X158321524Y-99431028D01*
X158305122Y-99428102D01*
X158289020Y-99424378D01*
X158273219Y-99419898D01*
X158257750Y-99414657D01*
X158242633Y-99408696D01*
X158227882Y-99402031D01*
X158213528Y-99394678D01*
X158199583Y-99386660D01*
X158186075Y-99378000D01*
X158173021Y-99368715D01*
X158160443Y-99358834D01*
X158148361Y-99348364D01*
X158136799Y-99337340D01*
X158125772Y-99325774D01*
X158115305Y-99313702D01*
X158105420Y-99301121D01*
X158096138Y-99288068D01*
X158087479Y-99274553D01*
X158079465Y-99260614D01*
X158072107Y-99246259D01*
X158065441Y-99231511D01*
X158059479Y-99216390D01*
X158054244Y-99200919D01*
X158049755Y-99185121D01*
X158046042Y-99169008D01*
X158043113Y-99152614D01*
X158040995Y-99135947D01*
X158039709Y-99119042D01*
X158039273Y-99101910D01*
X158039709Y-99084775D01*
X158040995Y-99067869D01*
X158043113Y-99051203D01*
X158046042Y-99034804D01*
X158049755Y-99018705D01*
X158054244Y-99002897D01*
X158059479Y-98987432D01*
X158065441Y-98972310D01*
X158072107Y-98957558D01*
X158079465Y-98943204D01*
X158087479Y-98929258D01*
X158096138Y-98915750D01*
X158105420Y-98902702D01*
X158115305Y-98890123D01*
X158125772Y-98878037D01*
X158136799Y-98866479D01*
X158148361Y-98855452D01*
X158160443Y-98844985D01*
X158173021Y-98835103D01*
X158186075Y-98825817D01*
X158199583Y-98817158D01*
X158213528Y-98809143D01*
X158227882Y-98801790D01*
X158242633Y-98795120D01*
X158257750Y-98789160D01*
X158273219Y-98783927D01*
X158289020Y-98779440D01*
X158305122Y-98775719D01*
X158321524Y-98772786D01*
X158338188Y-98770672D01*
X158355095Y-98769387D01*
X158372230Y-98768953D01*
X158389363Y-98769387D01*
G37*
G36*
X171707473Y-73797931D02*
G01*
X171724384Y-73799215D01*
X171741046Y-73801333D01*
X171757444Y-73804260D01*
X171773557Y-73807977D01*
X171789356Y-73812466D01*
X171804825Y-73817698D01*
X171819945Y-73823661D01*
X171834691Y-73830331D01*
X171849048Y-73837679D01*
X171862996Y-73845698D01*
X171876501Y-73854361D01*
X171889550Y-73863642D01*
X171902130Y-73873525D01*
X171914213Y-73883997D01*
X171925775Y-73895016D01*
X171936803Y-73906576D01*
X171947271Y-73918659D01*
X171957151Y-73931238D01*
X171966434Y-73944289D01*
X171975093Y-73957800D01*
X171983107Y-73971744D01*
X171990464Y-73986097D01*
X171997132Y-74000850D01*
X172003094Y-74015969D01*
X172008323Y-74031437D01*
X172012814Y-74047239D01*
X172016530Y-74063346D01*
X172019459Y-74079744D01*
X172021575Y-74096405D01*
X172022862Y-74113315D01*
X172023296Y-74130448D01*
X172022862Y-74147583D01*
X172021575Y-74164491D01*
X172019459Y-74181154D01*
X172016530Y-74197547D01*
X172012814Y-74213661D01*
X172008323Y-74229460D01*
X172003094Y-74244928D01*
X171997132Y-74260047D01*
X171990464Y-74274794D01*
X171983107Y-74289155D01*
X171975093Y-74303094D01*
X171966434Y-74316604D01*
X171957151Y-74329660D01*
X171947271Y-74342235D01*
X171936803Y-74354316D01*
X171925775Y-74365881D01*
X171914213Y-74376908D01*
X171902130Y-74387370D01*
X171889550Y-74397255D01*
X171876501Y-74406538D01*
X171862996Y-74415201D01*
X171849048Y-74423215D01*
X171834691Y-74430565D01*
X171819945Y-74437234D01*
X171804825Y-74443197D01*
X171789356Y-74448431D01*
X171773557Y-74452916D01*
X171757444Y-74456637D01*
X171741046Y-74459563D01*
X171724384Y-74461679D01*
X171707473Y-74462970D01*
X171690343Y-74463403D01*
X171673206Y-74462970D01*
X171656299Y-74461679D01*
X171639641Y-74459563D01*
X171623243Y-74456637D01*
X171607132Y-74452916D01*
X171591330Y-74448431D01*
X171575862Y-74443197D01*
X171560743Y-74437234D01*
X171545995Y-74430565D01*
X171531636Y-74423215D01*
X171517696Y-74415201D01*
X171504186Y-74406538D01*
X171491131Y-74397255D01*
X171478557Y-74387370D01*
X171466471Y-74376908D01*
X171454910Y-74365881D01*
X171443886Y-74354316D01*
X171433421Y-74342235D01*
X171423538Y-74329660D01*
X171414253Y-74316604D01*
X171405594Y-74303094D01*
X171397578Y-74289155D01*
X171390221Y-74274794D01*
X171383558Y-74260047D01*
X171377596Y-74244928D01*
X171372357Y-74229460D01*
X171367873Y-74213661D01*
X171364151Y-74197547D01*
X171361226Y-74181154D01*
X171359107Y-74164491D01*
X171357826Y-74147583D01*
X171357391Y-74130448D01*
X171357826Y-74113315D01*
X171359107Y-74096405D01*
X171361226Y-74079744D01*
X171364151Y-74063346D01*
X171367873Y-74047239D01*
X171372357Y-74031437D01*
X171377596Y-74015969D01*
X171383558Y-74000850D01*
X171390221Y-73986097D01*
X171397578Y-73971744D01*
X171405594Y-73957800D01*
X171414253Y-73944289D01*
X171423538Y-73931238D01*
X171433421Y-73918659D01*
X171443886Y-73906576D01*
X171454910Y-73895016D01*
X171466471Y-73883997D01*
X171478557Y-73873525D01*
X171491131Y-73863642D01*
X171504186Y-73854361D01*
X171517696Y-73845698D01*
X171531636Y-73837679D01*
X171545995Y-73830331D01*
X171560743Y-73823661D01*
X171575862Y-73817698D01*
X171591330Y-73812466D01*
X171607132Y-73807977D01*
X171623243Y-73804260D01*
X171639641Y-73801333D01*
X171656299Y-73799215D01*
X171673206Y-73797931D01*
X171690343Y-73797494D01*
X171707473Y-73797931D01*
G37*
G36*
X193349408Y-92110330D02*
G01*
X193366321Y-92111618D01*
X193382980Y-92113740D01*
X193399377Y-92116666D01*
X193415486Y-92120381D01*
X193431282Y-92124872D01*
X193446751Y-92130104D01*
X193461874Y-92136069D01*
X193476628Y-92142732D01*
X193490980Y-92150091D01*
X193504925Y-92158103D01*
X193518433Y-92166763D01*
X193531484Y-92176046D01*
X193544063Y-92185931D01*
X193556145Y-92196400D01*
X193567712Y-92207420D01*
X193578728Y-92218985D01*
X193589196Y-92231065D01*
X193599081Y-92243645D01*
X193608362Y-92256695D01*
X193617027Y-92270207D01*
X193625037Y-92284146D01*
X193632401Y-92298505D01*
X193639063Y-92313252D01*
X193645030Y-92328373D01*
X193650261Y-92343843D01*
X193654742Y-92359645D01*
X193658469Y-92375752D01*
X193661390Y-92392153D01*
X193663512Y-92408814D01*
X193664802Y-92425719D01*
X193665229Y-92442854D01*
X193664802Y-92459987D01*
X193663512Y-92476897D01*
X193661390Y-92493558D01*
X193658469Y-92509955D01*
X193654742Y-92526065D01*
X193650261Y-92541866D01*
X193645030Y-92557332D01*
X193639063Y-92572450D01*
X193632401Y-92587204D01*
X193625037Y-92601559D01*
X193617027Y-92615502D01*
X193608362Y-92629015D01*
X193599081Y-92642065D01*
X193589196Y-92654641D01*
X193578728Y-92666726D01*
X193567712Y-92678285D01*
X193556145Y-92689312D01*
X193544063Y-92699781D01*
X193531484Y-92709659D01*
X193518433Y-92718941D01*
X193504925Y-92727607D01*
X193490980Y-92735620D01*
X193476628Y-92742972D01*
X193461874Y-92749646D01*
X193446751Y-92755604D01*
X193431282Y-92760838D01*
X193415486Y-92765323D01*
X193399377Y-92769042D01*
X193382980Y-92771971D01*
X193366321Y-92774090D01*
X193349408Y-92775375D01*
X193332275Y-92775812D01*
X193315137Y-92775375D01*
X193298233Y-92774090D01*
X193281567Y-92771971D01*
X193265175Y-92769042D01*
X193249064Y-92765323D01*
X193233260Y-92760838D01*
X193217797Y-92755604D01*
X193202673Y-92749646D01*
X193187924Y-92742972D01*
X193173566Y-92735620D01*
X193159626Y-92727607D01*
X193146116Y-92718941D01*
X193133063Y-92709659D01*
X193120484Y-92699781D01*
X193108406Y-92689312D01*
X193096842Y-92678285D01*
X193085819Y-92666726D01*
X193075350Y-92654641D01*
X193065471Y-92642065D01*
X193056185Y-92629015D01*
X193047526Y-92615502D01*
X193039512Y-92601559D01*
X193032155Y-92587204D01*
X193025487Y-92572450D01*
X193019526Y-92557332D01*
X193014291Y-92541866D01*
X193009806Y-92526065D01*
X193006088Y-92509955D01*
X193003155Y-92493558D01*
X193001038Y-92476897D01*
X192999756Y-92459987D01*
X192999322Y-92442854D01*
X192999756Y-92425719D01*
X193001038Y-92408814D01*
X193003155Y-92392153D01*
X193006088Y-92375752D01*
X193009806Y-92359645D01*
X193014291Y-92343843D01*
X193019526Y-92328373D01*
X193025487Y-92313252D01*
X193032155Y-92298505D01*
X193039512Y-92284146D01*
X193047526Y-92270207D01*
X193056185Y-92256695D01*
X193065471Y-92243645D01*
X193075350Y-92231065D01*
X193085819Y-92218985D01*
X193096842Y-92207420D01*
X193108406Y-92196400D01*
X193120484Y-92185931D01*
X193133063Y-92176046D01*
X193146116Y-92166763D01*
X193159626Y-92158103D01*
X193173566Y-92150091D01*
X193187924Y-92142732D01*
X193202673Y-92136069D01*
X193217797Y-92130104D01*
X193233260Y-92124872D01*
X193249064Y-92120381D01*
X193265175Y-92116666D01*
X193281567Y-92113740D01*
X193298233Y-92111618D01*
X193315137Y-92110330D01*
X193332275Y-92109902D01*
X193349408Y-92110330D01*
G37*
G36*
X160054125Y-83786514D02*
G01*
X160071038Y-83787800D01*
X160087697Y-83789916D01*
X160104095Y-83792844D01*
X160120208Y-83796564D01*
X160136003Y-83801049D01*
X160151475Y-83806286D01*
X160166594Y-83812243D01*
X160181340Y-83818912D01*
X160195699Y-83826264D01*
X160209647Y-83834282D01*
X160223155Y-83842944D01*
X160236206Y-83852227D01*
X160248785Y-83862109D01*
X160260863Y-83872572D01*
X160272427Y-83883599D01*
X160283456Y-83895164D01*
X160293919Y-83907242D01*
X160303804Y-83919824D01*
X160313089Y-83932876D01*
X160321745Y-83946385D01*
X160329765Y-83960329D01*
X160337118Y-83974686D01*
X160343781Y-83989432D01*
X160349744Y-84004549D01*
X160354975Y-84020022D01*
X160359465Y-84035824D01*
X160363179Y-84051930D01*
X160366115Y-84068322D01*
X160368227Y-84084989D01*
X160369516Y-84101896D01*
X160369946Y-84119035D01*
X160369516Y-84136170D01*
X160368227Y-84153074D01*
X160366115Y-84169739D01*
X160363179Y-84186133D01*
X160359465Y-84202242D01*
X160354975Y-84218049D01*
X160349744Y-84233511D01*
X160343781Y-84248634D01*
X160337118Y-84263378D01*
X160329765Y-84277740D01*
X160321745Y-84291682D01*
X160313089Y-84305191D01*
X160303804Y-84318241D01*
X160293919Y-84330822D01*
X160283456Y-84342902D01*
X160272427Y-84354465D01*
X160260863Y-84365490D01*
X160248785Y-84375954D01*
X160236206Y-84385840D01*
X160223155Y-84395124D01*
X160209647Y-84403782D01*
X160195699Y-84411798D01*
X160181340Y-84419152D01*
X160166594Y-84425822D01*
X160151475Y-84431785D01*
X160136003Y-84437015D01*
X160120208Y-84441503D01*
X160104095Y-84445221D01*
X160087697Y-84448152D01*
X160071038Y-84450264D01*
X160054125Y-84451550D01*
X160036998Y-84451984D01*
X160019856Y-84451550D01*
X160002955Y-84450264D01*
X159986287Y-84448152D01*
X159969897Y-84445221D01*
X159953787Y-84441503D01*
X159937985Y-84437015D01*
X159922516Y-84431785D01*
X159907391Y-84425822D01*
X159892642Y-84419152D01*
X159878287Y-84411798D01*
X159864344Y-84403782D01*
X159850834Y-84395124D01*
X159837780Y-84385840D01*
X159825203Y-84375954D01*
X159813126Y-84365490D01*
X159801562Y-84354465D01*
X159790531Y-84342902D01*
X159780069Y-84330822D01*
X159770185Y-84318241D01*
X159760907Y-84305191D01*
X159752242Y-84291682D01*
X159744224Y-84277740D01*
X159736870Y-84263378D01*
X159730203Y-84248634D01*
X159724242Y-84233511D01*
X159719011Y-84218049D01*
X159714520Y-84202242D01*
X159710803Y-84186133D01*
X159707875Y-84169739D01*
X159705759Y-84153074D01*
X159704475Y-84136170D01*
X159704041Y-84119035D01*
X159704475Y-84101896D01*
X159705759Y-84084989D01*
X159707875Y-84068322D01*
X159710803Y-84051930D01*
X159714520Y-84035824D01*
X159719011Y-84020022D01*
X159724242Y-84004549D01*
X159730203Y-83989432D01*
X159736870Y-83974686D01*
X159744224Y-83960329D01*
X159752242Y-83946385D01*
X159760907Y-83932876D01*
X159770185Y-83919824D01*
X159780069Y-83907242D01*
X159790531Y-83895164D01*
X159801562Y-83883599D01*
X159813126Y-83872572D01*
X159825203Y-83862109D01*
X159837780Y-83852227D01*
X159850834Y-83842944D01*
X159864344Y-83834282D01*
X159878287Y-83826264D01*
X159892642Y-83818912D01*
X159907391Y-83812243D01*
X159922516Y-83806286D01*
X159937985Y-83801049D01*
X159953787Y-83796564D01*
X159969897Y-83792844D01*
X159986287Y-83789916D01*
X160002955Y-83787800D01*
X160019856Y-83786514D01*
X160036998Y-83786081D01*
X160054125Y-83786514D01*
G37*
G36*
X180031298Y-70468399D02*
G01*
X180048208Y-70469683D01*
X180064867Y-70471804D01*
X180081264Y-70474734D01*
X180097376Y-70478456D01*
X180113174Y-70482932D01*
X180128647Y-70488173D01*
X180143764Y-70494132D01*
X180158511Y-70500801D01*
X180172866Y-70508155D01*
X180186810Y-70516172D01*
X180200320Y-70524830D01*
X180213369Y-70534114D01*
X180225952Y-70543995D01*
X180238034Y-70554461D01*
X180249598Y-70565489D01*
X180260622Y-70577056D01*
X180271095Y-70589128D01*
X180280970Y-70601712D01*
X180290251Y-70614762D01*
X180298915Y-70628271D01*
X180306929Y-70642222D01*
X180314282Y-70656572D01*
X180320955Y-70671322D01*
X180326915Y-70686439D01*
X180332146Y-70701907D01*
X180336632Y-70717713D01*
X180340351Y-70733822D01*
X180343278Y-70750213D01*
X180345397Y-70766882D01*
X180346683Y-70783784D01*
X180347115Y-70800922D01*
X180346683Y-70818052D01*
X180345397Y-70834962D01*
X180343278Y-70851626D01*
X180340351Y-70868025D01*
X180336632Y-70884130D01*
X180332146Y-70899930D01*
X180326915Y-70915400D01*
X180320955Y-70930524D01*
X180314282Y-70945272D01*
X180306929Y-70959630D01*
X180298915Y-70973568D01*
X180290251Y-70987074D01*
X180280970Y-71000128D01*
X180271095Y-71012708D01*
X180260622Y-71024792D01*
X180249598Y-71036355D01*
X180238034Y-71047375D01*
X180225952Y-71057845D01*
X180213369Y-71067725D01*
X180200320Y-71077011D01*
X180186810Y-71085668D01*
X180172866Y-71093691D01*
X180158511Y-71101037D01*
X180143764Y-71107707D01*
X180128647Y-71113668D01*
X180113174Y-71118902D01*
X180097376Y-71123392D01*
X180081264Y-71127109D01*
X180064867Y-71130036D01*
X180048208Y-71132151D01*
X180031298Y-71133437D01*
X180014166Y-71133868D01*
X179997030Y-71133437D01*
X179980122Y-71132151D01*
X179963460Y-71130036D01*
X179947059Y-71127109D01*
X179930950Y-71123392D01*
X179915151Y-71118902D01*
X179899681Y-71113668D01*
X179884562Y-71107707D01*
X179869812Y-71101037D01*
X179855456Y-71093691D01*
X179841511Y-71085668D01*
X179828005Y-71077011D01*
X179814952Y-71067725D01*
X179802373Y-71057845D01*
X179790293Y-71047375D01*
X179778730Y-71036355D01*
X179767706Y-71024792D01*
X179757239Y-71012708D01*
X179747358Y-71000128D01*
X179738075Y-70987074D01*
X179729416Y-70973568D01*
X179721402Y-70959630D01*
X179714046Y-70945272D01*
X179707377Y-70930524D01*
X179701412Y-70915400D01*
X179696179Y-70899930D01*
X179691691Y-70884130D01*
X179687973Y-70868025D01*
X179685047Y-70851626D01*
X179682931Y-70834962D01*
X179681640Y-70818052D01*
X179681212Y-70800922D01*
X179681640Y-70783784D01*
X179682931Y-70766882D01*
X179685047Y-70750213D01*
X179687973Y-70733822D01*
X179691691Y-70717713D01*
X179696179Y-70701907D01*
X179701412Y-70686439D01*
X179707377Y-70671322D01*
X179714046Y-70656572D01*
X179721402Y-70642222D01*
X179729416Y-70628271D01*
X179738075Y-70614762D01*
X179747358Y-70601712D01*
X179757239Y-70589128D01*
X179767706Y-70577056D01*
X179778730Y-70565489D01*
X179790293Y-70554461D01*
X179802373Y-70543995D01*
X179814952Y-70534114D01*
X179828005Y-70524830D01*
X179841511Y-70516172D01*
X179855456Y-70508155D01*
X179869812Y-70500801D01*
X179884562Y-70494132D01*
X179899681Y-70488173D01*
X179915151Y-70482932D01*
X179930950Y-70478456D01*
X179947059Y-70474734D01*
X179963460Y-70471804D01*
X179980122Y-70469683D01*
X179997030Y-70468399D01*
X180014166Y-70467974D01*
X180031298Y-70468399D01*
G37*
G36*
X166713187Y-111255120D02*
G01*
X166730095Y-111256408D01*
X166746754Y-111258520D01*
X166763150Y-111261450D01*
X166779258Y-111265165D01*
X166795062Y-111269657D01*
X166810531Y-111274891D01*
X166825650Y-111280852D01*
X166840398Y-111287523D01*
X166854754Y-111294870D01*
X166868697Y-111302893D01*
X166882209Y-111311548D01*
X166895259Y-111320833D01*
X166907835Y-111330716D01*
X166919921Y-111341184D01*
X166931484Y-111352206D01*
X166942508Y-111363769D01*
X166952973Y-111375852D01*
X166962857Y-111388430D01*
X166972143Y-111401487D01*
X166980800Y-111414993D01*
X166988819Y-111428931D01*
X166996172Y-111443289D01*
X167002842Y-111458037D01*
X167008803Y-111473161D01*
X167014035Y-111488631D01*
X167018520Y-111504430D01*
X167022241Y-111520536D01*
X167025169Y-111536934D01*
X167027286Y-111553599D01*
X167028573Y-111570508D01*
X167028999Y-111587639D01*
X167028573Y-111604773D01*
X167027286Y-111621679D01*
X167025169Y-111638348D01*
X167022241Y-111654739D01*
X167018520Y-111670846D01*
X167014035Y-111686653D01*
X167008803Y-111702122D01*
X167002842Y-111717239D01*
X166996172Y-111731987D01*
X166988819Y-111746337D01*
X166980800Y-111760291D01*
X166972143Y-111773797D01*
X166962857Y-111786849D01*
X166952973Y-111799430D01*
X166942508Y-111811506D01*
X166931484Y-111823073D01*
X166919921Y-111834101D01*
X166907835Y-111844567D01*
X166895259Y-111854448D01*
X166882209Y-111863730D01*
X166868697Y-111872389D01*
X166854754Y-111880405D01*
X166840398Y-111887761D01*
X166825650Y-111894430D01*
X166810531Y-111900389D01*
X166795062Y-111905630D01*
X166779258Y-111910106D01*
X166763150Y-111913827D01*
X166746754Y-111916758D01*
X166730095Y-111918878D01*
X166713187Y-111920161D01*
X166696051Y-111920588D01*
X166678915Y-111920161D01*
X166662007Y-111918878D01*
X166645344Y-111916758D01*
X166628949Y-111913827D01*
X166612844Y-111910106D01*
X166597040Y-111905630D01*
X166581570Y-111900389D01*
X166566453Y-111894430D01*
X166551700Y-111887761D01*
X166537350Y-111880405D01*
X166523400Y-111872389D01*
X166509894Y-111863730D01*
X166496845Y-111854448D01*
X166484263Y-111844567D01*
X166472183Y-111834101D01*
X166460621Y-111823073D01*
X166449590Y-111811506D01*
X166439129Y-111799430D01*
X166429242Y-111786849D01*
X166419961Y-111773797D01*
X166411301Y-111760291D01*
X166403288Y-111746337D01*
X166395927Y-111731987D01*
X166389263Y-111717239D01*
X166383298Y-111702122D01*
X166378069Y-111686653D01*
X166373583Y-111670846D01*
X166369855Y-111654739D01*
X166366935Y-111638348D01*
X166364815Y-111621679D01*
X166363527Y-111604773D01*
X166363098Y-111587639D01*
X166363527Y-111570508D01*
X166364815Y-111553599D01*
X166366935Y-111536934D01*
X166369855Y-111520536D01*
X166373583Y-111504430D01*
X166378069Y-111488631D01*
X166383298Y-111473161D01*
X166389263Y-111458037D01*
X166395927Y-111443289D01*
X166403288Y-111428931D01*
X166411301Y-111414993D01*
X166419961Y-111401487D01*
X166429242Y-111388430D01*
X166439129Y-111375852D01*
X166449590Y-111363769D01*
X166460621Y-111352206D01*
X166472183Y-111341184D01*
X166484263Y-111330716D01*
X166496845Y-111320833D01*
X166509894Y-111311548D01*
X166523400Y-111302893D01*
X166537350Y-111294870D01*
X166551700Y-111287523D01*
X166566453Y-111280852D01*
X166581570Y-111274891D01*
X166597040Y-111269657D01*
X166612844Y-111265165D01*
X166628949Y-111261450D01*
X166645344Y-111258520D01*
X166662007Y-111256408D01*
X166678915Y-111255120D01*
X166696051Y-111254691D01*
X166713187Y-111255120D01*
G37*
G36*
X188355116Y-108757971D02*
G01*
X188372025Y-108759254D01*
X188388683Y-108761376D01*
X188405081Y-108764301D01*
X188421192Y-108768023D01*
X188436995Y-108772507D01*
X188452463Y-108777747D01*
X188467586Y-108783710D01*
X188482334Y-108790375D01*
X188496688Y-108797727D01*
X188510636Y-108805745D01*
X188524139Y-108814406D01*
X188537194Y-108823689D01*
X188549770Y-108833573D01*
X188561855Y-108844037D01*
X188573416Y-108855059D01*
X188584440Y-108866622D01*
X188594905Y-108878707D01*
X188604786Y-108891283D01*
X188614072Y-108904336D01*
X188622733Y-108917845D01*
X188630747Y-108931787D01*
X188638103Y-108946147D01*
X188644769Y-108960892D01*
X188650733Y-108976012D01*
X188655965Y-108991483D01*
X188660454Y-109007284D01*
X188664170Y-109023390D01*
X188667104Y-109039788D01*
X188669216Y-109056452D01*
X188670498Y-109073357D01*
X188670939Y-109090495D01*
X188670498Y-109107627D01*
X188669216Y-109124536D01*
X188667104Y-109141200D01*
X188664170Y-109157595D01*
X188660454Y-109173706D01*
X188655965Y-109189502D01*
X188650733Y-109204971D01*
X188644769Y-109220096D01*
X188638103Y-109234839D01*
X188630747Y-109249200D01*
X188622733Y-109263140D01*
X188614072Y-109276649D01*
X188604786Y-109289708D01*
X188594905Y-109302281D01*
X188584440Y-109314365D01*
X188573416Y-109325928D01*
X188561855Y-109336946D01*
X188549770Y-109347416D01*
X188537194Y-109357303D01*
X188524139Y-109366581D01*
X188510636Y-109375247D01*
X188496688Y-109383257D01*
X188482334Y-109390614D01*
X188467586Y-109397281D01*
X188452463Y-109403245D01*
X188436995Y-109408477D01*
X188421192Y-109412967D01*
X188405081Y-109416680D01*
X188388683Y-109419610D01*
X188372025Y-109421728D01*
X188355116Y-109423017D01*
X188337979Y-109423453D01*
X188320853Y-109423017D01*
X188303944Y-109421728D01*
X188287275Y-109419610D01*
X188270881Y-109416680D01*
X188254770Y-109412967D01*
X188238974Y-109408477D01*
X188223503Y-109403245D01*
X188208383Y-109397281D01*
X188193636Y-109390614D01*
X188179281Y-109383257D01*
X188165337Y-109375247D01*
X188151832Y-109366581D01*
X188138771Y-109357303D01*
X188126197Y-109347416D01*
X188114111Y-109336946D01*
X188102549Y-109325928D01*
X188091524Y-109314365D01*
X188081061Y-109302281D01*
X188071177Y-109289708D01*
X188061893Y-109276649D01*
X188053235Y-109263140D01*
X188045215Y-109249200D01*
X188037867Y-109234839D01*
X188031191Y-109220096D01*
X188025236Y-109204971D01*
X188019996Y-109189502D01*
X188015510Y-109173706D01*
X188011794Y-109157595D01*
X188008867Y-109141200D01*
X188006750Y-109124536D01*
X188005463Y-109107627D01*
X188005030Y-109090495D01*
X188005463Y-109073357D01*
X188006750Y-109056452D01*
X188008867Y-109039788D01*
X188011794Y-109023390D01*
X188015510Y-109007284D01*
X188019996Y-108991483D01*
X188025236Y-108976012D01*
X188031191Y-108960892D01*
X188037867Y-108946147D01*
X188045215Y-108931787D01*
X188053235Y-108917845D01*
X188061893Y-108904336D01*
X188071177Y-108891283D01*
X188081061Y-108878707D01*
X188091524Y-108866622D01*
X188102549Y-108855059D01*
X188114111Y-108844037D01*
X188126197Y-108833573D01*
X188138771Y-108823689D01*
X188151832Y-108814406D01*
X188165337Y-108805745D01*
X188179281Y-108797727D01*
X188193636Y-108790375D01*
X188208383Y-108783710D01*
X188223503Y-108777747D01*
X188238974Y-108772507D01*
X188254770Y-108768023D01*
X188270881Y-108764301D01*
X188287275Y-108761376D01*
X188303944Y-108759254D01*
X188320853Y-108757971D01*
X188337979Y-108757535D01*
X188355116Y-108757971D01*
G37*
G36*
X152562691Y-108757971D02*
G01*
X152579598Y-108759254D01*
X152596263Y-108761376D01*
X152612658Y-108764301D01*
X152628765Y-108768023D01*
X152644570Y-108772507D01*
X152660034Y-108777747D01*
X152675158Y-108783710D01*
X152689906Y-108790375D01*
X152704260Y-108797727D01*
X152718209Y-108805745D01*
X152731712Y-108814406D01*
X152744768Y-108823689D01*
X152757346Y-108833573D01*
X152769427Y-108844037D01*
X152780991Y-108855059D01*
X152792016Y-108866622D01*
X152802475Y-108878707D01*
X152812368Y-108891283D01*
X152821647Y-108904336D01*
X152830304Y-108917845D01*
X152838322Y-108931787D01*
X152845680Y-108946147D01*
X152852340Y-108960892D01*
X152858307Y-108976012D01*
X152863540Y-108991483D01*
X152868022Y-109007284D01*
X152871744Y-109023390D01*
X152874674Y-109039788D01*
X152876790Y-109056452D01*
X152878078Y-109073357D01*
X152878509Y-109090495D01*
X152878078Y-109107627D01*
X152876790Y-109124536D01*
X152874674Y-109141200D01*
X152871744Y-109157595D01*
X152868022Y-109173706D01*
X152863540Y-109189502D01*
X152858307Y-109204971D01*
X152852340Y-109220096D01*
X152845680Y-109234839D01*
X152838322Y-109249200D01*
X152830304Y-109263140D01*
X152821647Y-109276649D01*
X152812368Y-109289708D01*
X152802475Y-109302281D01*
X152792016Y-109314365D01*
X152780991Y-109325928D01*
X152769427Y-109336946D01*
X152757346Y-109347416D01*
X152744768Y-109357303D01*
X152731712Y-109366581D01*
X152718209Y-109375247D01*
X152704260Y-109383257D01*
X152689906Y-109390614D01*
X152675158Y-109397281D01*
X152660034Y-109403245D01*
X152644570Y-109408477D01*
X152628765Y-109412967D01*
X152612658Y-109416680D01*
X152596263Y-109419610D01*
X152579598Y-109421728D01*
X152562691Y-109423017D01*
X152545555Y-109423453D01*
X152528426Y-109423017D01*
X152511512Y-109421728D01*
X152494850Y-109419610D01*
X152478452Y-109416680D01*
X152462344Y-109412967D01*
X152446548Y-109408477D01*
X152431074Y-109403245D01*
X152415956Y-109397281D01*
X152401205Y-109390614D01*
X152386846Y-109383257D01*
X152372910Y-109375247D01*
X152359404Y-109366581D01*
X152346345Y-109357303D01*
X152333764Y-109347416D01*
X152321689Y-109336946D01*
X152310125Y-109325928D01*
X152299098Y-109314365D01*
X152288628Y-109302281D01*
X152278749Y-109289708D01*
X152269464Y-109276649D01*
X152260805Y-109263140D01*
X152252790Y-109249200D01*
X152245437Y-109234839D01*
X152238768Y-109220096D01*
X152232803Y-109204971D01*
X152227568Y-109189502D01*
X152223086Y-109173706D01*
X152219364Y-109157595D01*
X152216441Y-109141200D01*
X152214322Y-109124536D01*
X152213033Y-109107627D01*
X152212605Y-109090495D01*
X152213033Y-109073357D01*
X152214322Y-109056452D01*
X152216441Y-109039788D01*
X152219364Y-109023390D01*
X152223086Y-109007284D01*
X152227568Y-108991483D01*
X152232803Y-108976012D01*
X152238768Y-108960892D01*
X152245437Y-108946147D01*
X152252790Y-108931787D01*
X152260805Y-108917845D01*
X152269464Y-108904336D01*
X152278749Y-108891283D01*
X152288628Y-108878707D01*
X152299098Y-108866622D01*
X152310125Y-108855059D01*
X152321689Y-108844037D01*
X152333764Y-108833573D01*
X152346345Y-108823689D01*
X152359404Y-108814406D01*
X152372910Y-108805745D01*
X152386846Y-108797727D01*
X152401205Y-108790375D01*
X152415956Y-108783710D01*
X152431074Y-108777747D01*
X152446548Y-108772507D01*
X152462344Y-108768023D01*
X152478452Y-108764301D01*
X152494850Y-108761376D01*
X152511512Y-108759254D01*
X152528426Y-108757971D01*
X152545555Y-108757535D01*
X152562691Y-108757971D01*
G37*
G36*
X155059839Y-72133162D02*
G01*
X155076748Y-72134452D01*
X155093409Y-72136566D01*
X155109808Y-72139498D01*
X155125914Y-72143212D01*
X155141711Y-72147698D01*
X155157183Y-72152932D01*
X155172300Y-72158895D01*
X155187052Y-72165564D01*
X155201410Y-72172913D01*
X155215351Y-72180932D01*
X155228860Y-72189594D01*
X155241915Y-72198883D01*
X155254490Y-72208764D01*
X155266570Y-72219224D01*
X155278135Y-72230249D01*
X155289164Y-72241815D01*
X155299627Y-72253896D01*
X155309513Y-72266478D01*
X155318787Y-72279526D01*
X155327455Y-72293034D01*
X155335472Y-72306984D01*
X155342821Y-72321334D01*
X155349486Y-72336082D01*
X155355451Y-72351207D01*
X155360688Y-72366679D01*
X155365173Y-72382476D01*
X155368894Y-72398589D01*
X155371821Y-72414980D01*
X155373935Y-72431639D01*
X155375228Y-72448551D01*
X155375658Y-72465689D01*
X155375228Y-72482820D01*
X155373935Y-72499726D01*
X155371821Y-72516392D01*
X155368894Y-72532787D01*
X155365173Y-72548896D01*
X155360688Y-72564697D01*
X155355451Y-72580165D01*
X155349486Y-72595287D01*
X155342821Y-72610033D01*
X155335472Y-72624384D01*
X155327455Y-72638332D01*
X155318787Y-72651842D01*
X155309513Y-72664897D01*
X155299627Y-72677476D01*
X155289164Y-72689551D01*
X155278135Y-72701122D01*
X155266570Y-72712140D01*
X155254490Y-72722604D01*
X155241915Y-72732493D01*
X155228860Y-72741775D01*
X155215351Y-72750431D01*
X155201410Y-72758452D01*
X155187052Y-72765808D01*
X155172300Y-72772477D01*
X155157183Y-72778434D01*
X155141711Y-72783670D01*
X155125914Y-72788155D01*
X155109808Y-72791875D01*
X155093409Y-72794800D01*
X155076748Y-72796913D01*
X155059839Y-72798203D01*
X155042699Y-72798635D01*
X155025568Y-72798203D01*
X155008657Y-72796913D01*
X154991995Y-72794800D01*
X154975604Y-72791875D01*
X154959490Y-72788155D01*
X154943689Y-72783670D01*
X154928219Y-72778434D01*
X154913103Y-72772477D01*
X154898356Y-72765808D01*
X154883994Y-72758452D01*
X154870050Y-72750431D01*
X154856549Y-72741775D01*
X154843488Y-72732493D01*
X154830914Y-72722604D01*
X154818833Y-72712140D01*
X154807267Y-72701122D01*
X154796244Y-72689551D01*
X154785775Y-72677476D01*
X154775895Y-72664897D01*
X154766608Y-72651842D01*
X154757952Y-72638332D01*
X154749936Y-72624384D01*
X154742578Y-72610033D01*
X154735914Y-72595287D01*
X154729950Y-72580165D01*
X154724713Y-72564697D01*
X154720233Y-72548896D01*
X154716511Y-72532787D01*
X154713587Y-72516392D01*
X154711473Y-72499726D01*
X154710180Y-72482820D01*
X154709748Y-72465689D01*
X154710180Y-72448551D01*
X154711473Y-72431639D01*
X154713587Y-72414980D01*
X154716511Y-72398589D01*
X154720233Y-72382476D01*
X154724713Y-72366679D01*
X154729950Y-72351207D01*
X154735914Y-72336082D01*
X154742578Y-72321334D01*
X154749936Y-72306984D01*
X154757952Y-72293034D01*
X154766608Y-72279526D01*
X154775895Y-72266478D01*
X154785775Y-72253896D01*
X154796244Y-72241815D01*
X154807267Y-72230249D01*
X154818833Y-72219224D01*
X154830914Y-72208764D01*
X154843488Y-72198883D01*
X154856549Y-72189594D01*
X154870050Y-72180932D01*
X154883994Y-72172913D01*
X154898356Y-72165564D01*
X154913103Y-72158895D01*
X154928219Y-72152932D01*
X154943689Y-72147698D01*
X154959490Y-72143212D01*
X154975604Y-72139498D01*
X154991995Y-72136566D01*
X155008657Y-72134452D01*
X155025568Y-72133162D01*
X155042699Y-72132732D01*
X155059839Y-72133162D01*
G37*
G36*
X190852261Y-72965545D02*
G01*
X190869166Y-72966834D01*
X190885840Y-72968952D01*
X190902233Y-72971882D01*
X190918341Y-72975594D01*
X190934134Y-72980085D01*
X190949606Y-72985317D01*
X190964735Y-72991281D01*
X190979475Y-72997948D01*
X190993837Y-73005304D01*
X191007781Y-73013315D01*
X191021286Y-73021979D01*
X191034342Y-73031258D01*
X191046918Y-73041145D01*
X191058998Y-73051615D01*
X191070562Y-73062633D01*
X191081585Y-73074195D01*
X191092048Y-73086279D01*
X191101933Y-73098852D01*
X191111214Y-73111912D01*
X191119879Y-73125421D01*
X191127895Y-73139359D01*
X191135250Y-73153722D01*
X191141916Y-73168464D01*
X191147875Y-73183590D01*
X191153112Y-73199060D01*
X191157603Y-73214855D01*
X191161316Y-73230964D01*
X191164242Y-73247359D01*
X191166367Y-73264024D01*
X191167651Y-73280934D01*
X191168085Y-73298066D01*
X191167651Y-73315205D01*
X191166367Y-73332109D01*
X191164242Y-73348772D01*
X191161316Y-73365171D01*
X191157603Y-73381277D01*
X191153112Y-73397078D01*
X191147875Y-73412549D01*
X191141916Y-73427668D01*
X191135250Y-73442413D01*
X191127895Y-73456771D01*
X191119879Y-73470716D01*
X191111214Y-73484224D01*
X191101933Y-73497277D01*
X191092048Y-73509852D01*
X191081585Y-73521937D01*
X191070562Y-73533501D01*
X191058998Y-73544522D01*
X191046918Y-73554987D01*
X191034342Y-73564869D01*
X191021286Y-73574153D01*
X191007781Y-73582811D01*
X190993837Y-73590834D01*
X190979475Y-73598185D01*
X190964735Y-73604849D01*
X190949606Y-73610812D01*
X190934134Y-73616049D01*
X190918341Y-73620534D01*
X190902233Y-73624253D01*
X190885840Y-73627183D01*
X190869166Y-73629305D01*
X190852261Y-73630588D01*
X190835129Y-73631022D01*
X190817996Y-73630588D01*
X190801087Y-73629305D01*
X190784423Y-73627183D01*
X190768033Y-73624253D01*
X190751922Y-73620534D01*
X190736120Y-73616049D01*
X190720651Y-73610812D01*
X190705528Y-73604849D01*
X190690781Y-73598185D01*
X190676425Y-73590834D01*
X190662480Y-73582811D01*
X190648968Y-73574153D01*
X190635917Y-73564869D01*
X190623336Y-73554987D01*
X190611263Y-73544522D01*
X190599697Y-73533501D01*
X190588674Y-73521937D01*
X190578208Y-73509852D01*
X190568324Y-73497277D01*
X190559037Y-73484224D01*
X190550383Y-73470716D01*
X190542367Y-73456771D01*
X190535015Y-73442413D01*
X190528339Y-73427668D01*
X190522379Y-73412549D01*
X190517146Y-73397078D01*
X190512655Y-73381277D01*
X190508942Y-73365171D01*
X190506011Y-73348772D01*
X190503900Y-73332109D01*
X190502614Y-73315205D01*
X190502171Y-73298066D01*
X190502614Y-73280934D01*
X190503900Y-73264024D01*
X190506011Y-73247359D01*
X190508942Y-73230964D01*
X190512655Y-73214855D01*
X190517146Y-73199060D01*
X190522379Y-73183590D01*
X190528339Y-73168464D01*
X190535015Y-73153722D01*
X190542367Y-73139359D01*
X190550383Y-73125421D01*
X190559037Y-73111912D01*
X190568324Y-73098852D01*
X190578208Y-73086279D01*
X190588674Y-73074195D01*
X190599697Y-73062633D01*
X190611263Y-73051615D01*
X190623336Y-73041145D01*
X190635917Y-73031258D01*
X190648968Y-73021979D01*
X190662480Y-73013315D01*
X190676425Y-73005304D01*
X190690781Y-72997948D01*
X190705528Y-72991281D01*
X190720651Y-72985317D01*
X190736120Y-72980085D01*
X190751922Y-72975594D01*
X190768033Y-72971882D01*
X190784423Y-72968952D01*
X190801087Y-72966834D01*
X190817996Y-72965545D01*
X190835129Y-72965109D01*
X190852261Y-72965545D01*
G37*
G36*
X173397937Y-89946788D02*
G01*
X173440209Y-89950000D01*
X173481868Y-89955295D01*
X173522865Y-89962617D01*
X173563128Y-89971910D01*
X173602628Y-89983129D01*
X173641306Y-89996216D01*
X173679106Y-90011117D01*
X173715980Y-90027791D01*
X173751867Y-90046170D01*
X173786727Y-90066214D01*
X173820500Y-90087861D01*
X173853132Y-90111073D01*
X173884578Y-90135781D01*
X173914784Y-90161943D01*
X173943687Y-90189508D01*
X173971252Y-90218414D01*
X173997414Y-90248616D01*
X174022122Y-90280060D01*
X174045330Y-90312699D01*
X174066983Y-90346467D01*
X174087024Y-90381329D01*
X174105406Y-90417217D01*
X174122075Y-90454093D01*
X174136979Y-90491891D01*
X174150066Y-90530561D01*
X174161280Y-90570066D01*
X174170577Y-90610335D01*
X174177896Y-90651326D01*
X174183192Y-90692985D01*
X174186408Y-90735255D01*
X174187489Y-90778090D01*
X174186408Y-90820921D01*
X174183192Y-90863199D01*
X174177896Y-90904850D01*
X174170577Y-90945846D01*
X174161280Y-90986113D01*
X174150066Y-91025610D01*
X174136979Y-91064294D01*
X174122075Y-91102089D01*
X174105406Y-91138960D01*
X174087024Y-91174852D01*
X174066983Y-91209705D01*
X174045330Y-91243482D01*
X174022122Y-91276117D01*
X173997414Y-91307562D01*
X173971252Y-91337764D01*
X173943687Y-91366673D01*
X173914784Y-91394230D01*
X173884578Y-91420393D01*
X173853132Y-91445107D01*
X173820500Y-91468317D01*
X173786727Y-91489962D01*
X173751867Y-91510006D01*
X173715980Y-91528390D01*
X173679106Y-91545060D01*
X173641306Y-91559964D01*
X173602628Y-91573049D01*
X173563128Y-91584261D01*
X173522865Y-91593563D01*
X173481868Y-91600878D01*
X173440209Y-91606175D01*
X173397937Y-91609388D01*
X173355111Y-91610471D01*
X173312272Y-91609388D01*
X173270000Y-91606175D01*
X173228340Y-91600878D01*
X173187350Y-91593563D01*
X173147082Y-91584261D01*
X173107578Y-91573049D01*
X173068904Y-91559964D01*
X173031107Y-91545060D01*
X172994236Y-91528390D01*
X172958344Y-91510006D01*
X172923485Y-91489962D01*
X172889718Y-91468317D01*
X172857079Y-91445107D01*
X172825637Y-91420393D01*
X172795433Y-91394230D01*
X172766523Y-91366673D01*
X172738959Y-91337764D01*
X172712802Y-91307562D01*
X172688090Y-91276117D01*
X172664880Y-91243482D01*
X172643228Y-91209705D01*
X172623186Y-91174852D01*
X172604801Y-91138960D01*
X172588136Y-91102089D01*
X172573230Y-91064294D01*
X172560144Y-91025610D01*
X172548931Y-90986113D01*
X172539636Y-90945846D01*
X172532314Y-90904850D01*
X172527023Y-90863199D01*
X172523806Y-90820921D01*
X172522723Y-90778090D01*
X172523806Y-90735255D01*
X172527023Y-90692985D01*
X172532314Y-90651326D01*
X172539636Y-90610335D01*
X172548931Y-90570066D01*
X172560144Y-90530561D01*
X172573230Y-90491891D01*
X172588136Y-90454093D01*
X172604801Y-90417217D01*
X172623186Y-90381329D01*
X172643228Y-90346467D01*
X172664880Y-90312699D01*
X172688090Y-90280060D01*
X172712802Y-90248616D01*
X172738959Y-90218414D01*
X172766523Y-90189508D01*
X172795433Y-90161943D01*
X172825637Y-90135781D01*
X172857079Y-90111073D01*
X172889718Y-90087861D01*
X172923485Y-90066214D01*
X172958344Y-90046170D01*
X172994236Y-90027791D01*
X173031107Y-90011117D01*
X173068904Y-89996216D01*
X173107578Y-89983129D01*
X173147082Y-89971910D01*
X173187350Y-89962617D01*
X173228340Y-89955295D01*
X173270000Y-89950000D01*
X173312272Y-89946788D01*
X173355111Y-89945704D01*
X173397937Y-89946788D01*
G37*
D12*
X173355111Y-90778090D02*
X161909850Y-85792121D01*
X161610192Y-86482998D02*
X162209510Y-85109568D01*
X162217836Y-86749357D02*
X162817149Y-85375928D01*
X162991947Y-86632824D02*
X163266630Y-86016863D01*
X163441439Y-87282082D02*
X163716811Y-86651018D01*
X164040750Y-85908653D01*
X164215553Y-87165552D02*
X164481919Y-86549587D01*
X164656711Y-87806486D02*
X165036281Y-86936644D01*
X165256030Y-86433057D01*
X165439160Y-87698279D02*
X165705516Y-87082310D01*
X165880315Y-88339213D02*
X166277686Y-87428565D01*
X166479627Y-86965783D01*
X166496275Y-88605573D02*
X167087270Y-87232142D01*
X167270391Y-88497361D02*
X167536758Y-87881399D01*
X167878034Y-88763722D02*
X168144394Y-88139437D01*
X168485675Y-89030086D02*
X168760354Y-88405800D01*
X173355111Y-90778090D02*
X161243951Y-77043786D01*
X160686254Y-77534892D02*
X161809967Y-76544356D01*
X161435399Y-77767956D02*
X161934826Y-77318470D01*
X161560250Y-78533749D02*
X162683969Y-77543214D01*
X162001417Y-79033182D02*
X162474934Y-78615782D01*
X163125129Y-78042643D01*
X162442579Y-79532607D02*
X163566299Y-78542072D01*
X162883744Y-80032039D02*
X164007456Y-79041503D01*
X163632886Y-80265103D02*
X164140636Y-79815616D01*
X163766068Y-81030897D02*
X164889782Y-80040360D01*
X164515211Y-81263960D02*
X165022965Y-80814480D01*
X164648391Y-82029754D02*
X165772105Y-81039221D01*
X165397532Y-82262824D02*
X165905282Y-81813334D01*
X165838695Y-82762253D02*
X166338133Y-82312761D01*
X173355111Y-90778090D02*
X171174262Y-81888249D01*
X170450093Y-82063050D02*
X171906760Y-81705121D01*
X170608240Y-82712305D02*
X172064915Y-82354385D01*
X170766398Y-83353244D02*
X172223064Y-83003641D01*
X171324093Y-83902613D02*
X171981676Y-83744461D01*
X171082705Y-84651753D02*
X172539371Y-84293830D01*
X171640393Y-85201129D02*
X172297980Y-85034652D01*
X171399009Y-85941952D02*
X172855681Y-85584028D01*
X171557161Y-86591204D02*
X173013831Y-86233288D01*
X172114857Y-87140579D02*
X172772441Y-86982430D01*
X172273011Y-87789838D02*
X172930590Y-87623360D01*
X172031618Y-88530658D02*
X173488285Y-88172736D01*
X172189778Y-89179918D02*
X173646444Y-88821992D01*
X173355111Y-90778090D02*
X174911662Y-75037750D01*
X174170841Y-74962831D02*
X175660803Y-75112661D01*
X174104252Y-75628732D02*
X175594215Y-75778565D01*
X174445525Y-76327936D02*
X175119759Y-76394522D01*
X174378938Y-76993844D02*
X175053165Y-77060439D01*
X173904479Y-77618129D02*
X175394448Y-77767956D01*
X173837892Y-78275709D02*
X175327857Y-78425539D01*
X173771297Y-78941614D02*
X175269586Y-79091446D01*
X173713033Y-79607526D02*
X175203001Y-79749034D01*
X174054308Y-80306725D02*
X174720212Y-80373312D01*
X173579850Y-80931010D02*
X175069814Y-81080840D01*
X173921129Y-81630211D02*
X174595355Y-81696798D01*
X173446669Y-82254498D02*
X174936634Y-82404326D01*
X173355111Y-90778090D02*
X183368665Y-73489519D01*
X182719404Y-73114942D02*
X184017927Y-73864085D01*
X182386451Y-73689283D02*
X183684967Y-74446752D01*
X182411423Y-74471727D02*
X182994085Y-74812999D01*
X181720545Y-74846302D02*
X183010736Y-75595441D01*
X181737194Y-75628732D02*
X182328187Y-75961691D01*
X181046316Y-75994985D02*
X182344831Y-76744128D01*
X180713361Y-76569326D02*
X182011877Y-77326792D01*
X180380414Y-77151992D02*
X181678925Y-77901138D01*
X180047465Y-77726338D02*
X181345977Y-78475484D01*
X180072432Y-78508781D02*
X180655094Y-78850055D01*
X179739470Y-79083118D02*
X180322144Y-79424397D01*
X179048600Y-79457689D02*
X180347115Y-80206838D01*
X173355111Y-90778090D02*
X179481439Y-86466348D01*
X179048600Y-85858713D02*
X179914272Y-87082310D01*
X178740621Y-86574559D02*
X179131839Y-87123936D01*
X177958178Y-86624499D02*
X178823859Y-87848106D01*
X177417133Y-87007398D02*
X178282808Y-88231003D01*
X177109151Y-87723249D02*
X177500368Y-88272619D01*
X176568097Y-88106141D02*
X176950995Y-88655515D01*
X175785661Y-88156084D02*
X176643012Y-89379686D01*
X175477683Y-88871934D02*
X175860579Y-89421308D01*
X174695246Y-88921875D02*
X175552599Y-90145480D01*
X173355111Y-90778090D02*
X187014497Y-87082310D01*
X186814725Y-86358139D02*
X187205941Y-87798159D01*
X186173791Y-86532940D02*
X186565008Y-87972960D01*
X185532851Y-86707740D02*
X185924074Y-88147764D01*
X184891923Y-86874216D02*
X185283141Y-88322560D01*
X184350873Y-87448564D02*
X184533996Y-88097815D01*
X183601732Y-87223817D02*
X183992947Y-88672160D01*
X183069007Y-87798159D02*
X183243807Y-88447416D01*
X182319862Y-87573417D02*
X182711084Y-89021760D01*
X181678925Y-87748219D02*
X182070149Y-89196563D01*
X181137877Y-88322560D02*
X181321006Y-88971820D01*
X180388737Y-88097815D02*
X180779955Y-89546169D01*
X179856008Y-88672160D02*
X180030811Y-89321421D01*
X173355111Y-90778090D02*
X183934682Y-93050491D01*
X184092835Y-92317995D02*
X183776530Y-93782988D01*
X183352015Y-92584358D02*
X183210512Y-93241939D01*
X182785991Y-92034987D02*
X182478012Y-93499974D01*
X182136741Y-91901804D02*
X181820431Y-93366797D01*
X181404242Y-92159846D02*
X181262736Y-92817427D01*
X180746656Y-92018337D02*
X180605151Y-92684244D01*
X180188964Y-91477286D02*
X179872660Y-92942280D01*
X179531386Y-91335788D02*
X179223399Y-92800776D01*
X178798882Y-91602147D02*
X178657381Y-92259731D01*
X178149628Y-91460640D02*
X178008120Y-92118226D01*
X177583608Y-90919591D02*
X177267304Y-92384587D01*
X176842791Y-91185955D02*
X176701278Y-91843542D01*
X173355111Y-90778090D02*
X181142657Y-96710242D01*
X188587698Y-102381492D01*
X189037184Y-101782181D02*
X188129886Y-102972487D01*
X188263069Y-101707266D02*
X187846877Y-102239992D01*
X187730344Y-101307722D02*
X187322480Y-101840448D01*
X187447330Y-100575227D02*
X186540036Y-101765531D01*
X186922931Y-100167354D02*
X186015638Y-101357665D01*
X186390211Y-99767816D02*
X185482914Y-100958122D01*
X185607774Y-99692905D02*
X185199904Y-100225621D01*
X185333085Y-98960404D02*
X184425787Y-100150707D01*
X184550646Y-98885492D02*
X184142778Y-99418214D01*
X184267635Y-98152997D02*
X183360338Y-99343304D01*
X183493516Y-98078079D02*
X183085652Y-98610806D01*
X182960791Y-97670209D02*
X182552928Y-98211259D01*
X173355111Y-90778090D02*
X177142444Y-98186294D01*
X177808350Y-97845014D02*
X176977019Y-98271070D01*
X176476541Y-98527564D01*
X177508698Y-97254020D02*
X176176880Y-97936575D01*
X177200712Y-96663031D02*
X175868901Y-97345578D01*
X176534806Y-96255159D02*
X175935491Y-96563144D01*
X176601398Y-95481048D02*
X175261258Y-96155272D01*
X176293416Y-94881731D02*
X174961605Y-95564290D01*
X175627506Y-94482186D02*
X175028197Y-94781848D01*
X175319530Y-93882877D02*
X174720212Y-94190851D01*
X175019872Y-93291877D02*
X174420554Y-93599864D01*
X175086460Y-92509445D02*
X173746323Y-93191999D01*
X174412231Y-92109902D02*
X173812918Y-92417876D01*
X173355111Y-90778090D02*
X176260116Y-107167691D01*
X177000938Y-107042831D02*
X175527627Y-107300870D01*
X176884403Y-106385253D02*
X176286704Y-106489935D01*
X175411094Y-106643291D01*
X176767872Y-105727666D02*
X175294559Y-105985706D01*
X176651338Y-105070090D02*
X175178025Y-105336456D01*
X176534806Y-104412507D02*
X175061486Y-104678873D01*
X176418268Y-103763250D02*
X174944957Y-104021285D01*
X176301740Y-103105667D02*
X174828428Y-103363702D01*
X175777337Y-102523000D02*
X175119759Y-102639526D01*
X176068672Y-101790505D02*
X174595355Y-102056864D01*
X175952138Y-101141249D02*
X174478824Y-101399283D01*
X175427738Y-100550254D02*
X174770155Y-100675113D01*
X175311205Y-99900993D02*
X175035219Y-99949903D01*
X174653623Y-100017526D01*
X173355111Y-90778090D02*
X170133783Y-101981944D01*
X170857959Y-102181723D02*
X169417939Y-101773853D01*
X170641540Y-101432576D02*
X170474726Y-101383389D01*
X169992283Y-101241124D01*
X170824664Y-100791641D02*
X170183733Y-100608523D01*
X171016114Y-100150707D02*
X170730090Y-100070038D01*
X170366855Y-99967593D01*
X171590454Y-99626309D02*
X170150433Y-99210121D01*
X171773582Y-98985376D02*
X170584623Y-98641749D01*
X170333559Y-98569188D01*
X171956701Y-98344442D02*
X170516684Y-97928248D01*
X171748612Y-97595297D02*
X171099355Y-97403846D01*
X171931732Y-96954360D02*
X171282476Y-96762912D01*
X172114857Y-96313431D02*
X171465599Y-96121982D01*
X172697524Y-95789030D02*
X171257502Y-95372836D01*
X172481105Y-95031561D02*
X171831848Y-94848435D01*
X173355111Y-90778090D02*
X164148959Y-102597916D01*
X164739958Y-103064041D02*
X163557974Y-102140105D01*
X165147819Y-102531323D02*
X163965840Y-101615703D01*
X165231060Y-101757208D02*
X164698332Y-101341018D01*
X165971877Y-101482523D02*
X164789897Y-100566899D01*
X166055119Y-100708407D02*
X165962363Y-100635944D01*
X165522388Y-100292214D01*
X166787610Y-100433722D02*
X165605628Y-99509779D01*
X167195478Y-99909320D02*
X166013498Y-98985376D01*
X167278717Y-99126881D02*
X167082773Y-98973799D01*
X166745991Y-98710686D01*
X167686584Y-98602481D02*
X167153861Y-98186294D01*
X168094450Y-98078079D02*
X167941003Y-97956294D01*
X167570053Y-97661888D01*
X168510642Y-97553676D02*
X167977919Y-97137484D01*
X168918511Y-97029280D02*
X168385785Y-96613089D01*
X173355111Y-90778090D02*
X164024103Y-94340683D01*
X164290467Y-95039885D02*
X163757742Y-93641487D01*
X164764925Y-94415599D02*
X164523534Y-93791311D01*
X165539036Y-94565425D02*
X164997989Y-93167026D01*
X166013498Y-93941143D02*
X165772105Y-93316853D01*
X166629459Y-93708072D02*
X166388071Y-93075466D01*
X167253746Y-93466684D02*
X167012357Y-92842392D01*
X168027861Y-93616514D02*
X167486813Y-92218111D01*
X168502316Y-92992227D02*
X168260925Y-92367937D01*
X169118283Y-92759161D02*
X168876888Y-92126550D01*
X169742566Y-92517768D02*
X169501176Y-91885157D01*
X170366855Y-92284702D02*
X170125461Y-91652094D01*
X171132649Y-92426205D02*
X170599921Y-91027806D01*
X173355111Y-90778090D02*
X149216029Y-90778090D01*
X149216029Y-91527231D02*
X149216029Y-90028948D01*
X149881935Y-91119365D02*
X149881935Y-90436811D01*
X150547835Y-91119365D02*
X150547835Y-90436811D01*
X151213744Y-91527231D02*
X151213744Y-90028948D01*
X151879652Y-91119365D02*
X151879652Y-90436811D01*
X152545555Y-91119365D02*
X152545555Y-90436811D01*
X153211461Y-91119365D02*
X153211461Y-90436811D01*
X153877367Y-91119365D02*
X153877367Y-90436811D01*
X154543273Y-91527231D02*
X154543273Y-90028948D01*
X155209179Y-91119365D02*
X155209179Y-90436811D01*
X155875087Y-91119365D02*
X155875087Y-90436811D01*
X156540989Y-91527231D02*
X156540989Y-90028948D01*
M02*
