%TF.GenerationSoftware,KiCad,Pcbnew,10.0.6*%
%TF.CreationDate,2026-10-04T11:57:37+05:45*%
%TF.ProjectId,RCoV(PCB),52436f56-2850-4434-9229-2e6b69636164,rev?*%
%TF.SameCoordinates,Original*%
%TF.FileFunction,Copper,L1,Top*%
%TF.FilePolarity,Positive*%
%FSLAX46Y46*%
G04 Gerber Fmt 4.6, Leading zero omitted, Abs format (unit mm)*
G04 Created by KiCad (PCBNEW 10.0.6) date 2026-10-04 11:57:37*
%MOMM*%
%LPD*%
G01*
G04 APERTURE LIST*
G04 Aperture macros list*
%AMRoundRect*
0 Rectangle with rounded corners*
0 $1 Rounding radius*
0 $2 $3 $4 $5 $6 $7 $8 $9 X,Y pos of 4 corners*
0 Add a 4 corners polygon primitive as box body*
4,1,4,$2,$3,$4,$5,$6,$7,$8,$9,$2,$3,0*
0 Add four circle primitives for the rounded corners*
1,1,$1+$1,$2,$3*
1,1,$1+$1,$4,$5*
1,1,$1+$1,$6,$7*
1,1,$1+$1,$8,$9*
0 Add four rect primitives between the rounded corners*
20,1,$1+$1,$2,$3,$4,$5,0*
20,1,$1+$1,$4,$5,$6,$7,0*
20,1,$1+$1,$6,$7,$8,$9,0*
20,1,$1+$1,$8,$9,$2,$3,0*%
G04 Aperture macros list end*
%TA.AperFunction,ComponentPad*%
%ADD10C,1.500000*%
%TD*%
%TA.AperFunction,ComponentPad*%
%ADD11C,1.600000*%
%TD*%
%TA.AperFunction,ComponentPad*%
%ADD12RoundRect,0.250000X-0.550000X-0.550000X0.550000X-0.550000X0.550000X0.550000X-0.550000X0.550000X0*%
%TD*%
%TA.AperFunction,ComponentPad*%
%ADD13R,1.100000X1.800000*%
%TD*%
%TA.AperFunction,ComponentPad*%
%ADD14RoundRect,0.275000X-0.275000X-0.625000X0.275000X-0.625000X0.275000X0.625000X-0.275000X0.625000X0*%
%TD*%
%TA.AperFunction,ComponentPad*%
%ADD15R,1.800000X1.800000*%
%TD*%
%TA.AperFunction,ComponentPad*%
%ADD16C,1.800000*%
%TD*%
%TA.AperFunction,ComponentPad*%
%ADD17C,2.000000*%
%TD*%
%TA.AperFunction,SMDPad,CuDef*%
%ADD18R,1.270000X5.080000*%
%TD*%
%TA.AperFunction,SMDPad,CuDef*%
%ADD19C,17.800000*%
%TD*%
%TA.AperFunction,ViaPad*%
%ADD20C,0.600000*%
%TD*%
%TA.AperFunction,Conductor*%
%ADD21C,0.400000*%
%TD*%
G04 APERTURE END LIST*
D10*
%TO.P,R9,1*%
%TO.N,Net-(R8-Pad2)*%
X188000000Y-134000000D03*
%TO.P,R9,2*%
%TO.N,Net-(U1-THRES)*%
X191400000Y-134000000D03*
%TD*%
D11*
%TO.P,R3,1*%
%TO.N,Net-(D3-K)*%
X188000000Y-98000000D03*
%TO.P,R3,2*%
%TO.N,Net-(Q3-C)*%
X195620000Y-98000000D03*
%TD*%
D12*
%TO.P,U1,1,GND_1*%
%TO.N,/GND*%
X150500000Y-83500000D03*
D11*
%TO.P,U1,2,TRIG_2*%
%TO.N,Net-(U1-THRES)*%
X150500000Y-86040000D03*
%TO.P,U1,3,OUT_3*%
%TO.N,Net-(U1-OUT)*%
X150500000Y-88580000D03*
%TO.P,U1,4,~{RST}_4*%
%TO.N,Net-(U1-~{RST})*%
X150500000Y-91120000D03*
%TO.P,U1,5,CONT_5*%
%TO.N,unconnected-(U1-CONT-Pad5)*%
X158120000Y-91120000D03*
%TO.P,U1,6,THRES_6*%
%TO.N,Net-(U1-THRES)*%
X158120000Y-88580000D03*
%TO.P,U1,7,DISCH_7*%
%TO.N,Net-(U1-DISCH)*%
X158120000Y-86040000D03*
%TO.P,U1,8,VCC_8*%
%TO.N,/+3V*%
X158120000Y-83500000D03*
%TD*%
%TO.P,R4,1*%
%TO.N,Net-(D4-K)*%
X139000000Y-88000000D03*
%TO.P,R4,2*%
%TO.N,Net-(Q4-C)*%
X146620000Y-88000000D03*
%TD*%
%TO.P,R6,1*%
%TO.N,Net-(D6-K)*%
X168500000Y-123000000D03*
%TO.P,R6,2*%
%TO.N,Net-(Q6-C)*%
X176120000Y-123000000D03*
%TD*%
D13*
%TO.P,Q4,1,E_1*%
%TO.N,/GND*%
X142500000Y-98900000D03*
D14*
%TO.P,Q4,2,B_2*%
%TO.N,/B*%
X143770000Y-96830000D03*
%TO.P,Q4,3,C_3*%
%TO.N,Net-(Q4-C)*%
X145040000Y-98900000D03*
%TD*%
D15*
%TO.P,D1,1,K_1*%
%TO.N,Net-(D1-K)*%
X131500000Y-116500000D03*
D16*
%TO.P,D1,2,A_2*%
%TO.N,/+3V*%
X134040000Y-116500000D03*
%TD*%
D12*
%TO.P,C1,1*%
%TO.N,Net-(U1-THRES)*%
X161000000Y-79014200D03*
D11*
%TO.P,C1,2*%
%TO.N,/GND*%
X166000000Y-79014200D03*
%TD*%
%TO.P,R11,1*%
%TO.N,Net-(U1-OUT)*%
X183000000Y-123000000D03*
%TO.P,R11,2*%
%TO.N,/B*%
X190620000Y-123000000D03*
%TD*%
D15*
%TO.P,D6,1,K_1*%
%TO.N,Net-(D6-K)*%
X172000000Y-59000000D03*
D16*
%TO.P,D6,2,A_2*%
%TO.N,/+3V*%
X174540000Y-59000000D03*
%TD*%
D11*
%TO.P,R7,1*%
%TO.N,/+3V*%
X197500000Y-91000000D03*
%TO.P,R7,2*%
%TO.N,Net-(U1-DISCH)*%
X205120000Y-91000000D03*
%TD*%
D13*
%TO.P,Q3,1,E_1*%
%TO.N,/GND*%
X181254200Y-109595500D03*
D14*
%TO.P,Q3,2,B_2*%
%TO.N,/B*%
X182524200Y-107525500D03*
%TO.P,Q3,3,C_3*%
%TO.N,Net-(Q3-C)*%
X183794200Y-109595500D03*
%TD*%
D13*
%TO.P,Q5,1,E_1*%
%TO.N,/GND*%
X172000000Y-93400000D03*
D14*
%TO.P,Q5,2,B_2*%
%TO.N,/B*%
X173270000Y-91330000D03*
%TO.P,Q5,3,C_3*%
%TO.N,Net-(Q5-C)*%
X174540000Y-93400000D03*
%TD*%
D17*
%TO.P,SW1,1,1_1*%
%TO.N,Net-(U1-~{RST})*%
X153000000Y-132000000D03*
X159500000Y-132000000D03*
%TO.P,SW1,2,2_2*%
%TO.N,/+3V*%
X153000000Y-136500000D03*
X159500000Y-136500000D03*
%TD*%
D13*
%TO.P,Q2,1,E_1*%
%TO.N,/GND*%
X190500000Y-89400000D03*
D14*
%TO.P,Q2,2,B_2*%
%TO.N,/B*%
X191770000Y-87330000D03*
%TO.P,Q2,3,C_3*%
%TO.N,Net-(Q2-C)*%
X193040000Y-89400000D03*
%TD*%
D18*
%TO.P,BT1,1,+_1*%
%TO.N,/+3V*%
X162015000Y-136500000D03*
X183985000Y-136500000D03*
D19*
%TO.P,BT1,2,-_2*%
%TO.N,/GND*%
X173000000Y-136500000D03*
%TD*%
D11*
%TO.P,R2,1*%
%TO.N,Net-(D2-K)*%
X161500000Y-70500000D03*
%TO.P,R2,2*%
%TO.N,Net-(Q2-C)*%
X169120000Y-70500000D03*
%TD*%
D15*
%TO.P,D4,1,K_1*%
%TO.N,Net-(D4-K)*%
X128000000Y-82500000D03*
D16*
%TO.P,D4,2,A_2*%
%TO.N,/+3V*%
X130540000Y-82500000D03*
%TD*%
D13*
%TO.P,Q6,1,E_1*%
%TO.N,/GND*%
X160000000Y-108400000D03*
D14*
%TO.P,Q6,2,B_2*%
%TO.N,/B*%
X161270000Y-106330000D03*
%TO.P,Q6,3,C_3*%
%TO.N,Net-(Q6-C)*%
X162540000Y-108400000D03*
%TD*%
D15*
%TO.P,D5,1,K_1*%
%TO.N,Net-(D5-K)*%
X215000000Y-82500000D03*
D16*
%TO.P,D5,2,A_2*%
%TO.N,/+3V*%
X217540000Y-82500000D03*
%TD*%
D11*
%TO.P,R10,1*%
%TO.N,/GND*%
X199500000Y-100000000D03*
%TO.P,R10,2*%
%TO.N,Net-(U1-~{RST})*%
X207120000Y-100000000D03*
%TD*%
%TO.P,R8,1*%
%TO.N,Net-(U1-DISCH)*%
X154500000Y-123000000D03*
%TO.P,R8,2*%
%TO.N,Net-(R8-Pad2)*%
X162120000Y-123000000D03*
%TD*%
D15*
%TO.P,D3,1,K_1*%
%TO.N,Net-(D3-K)*%
X217500000Y-108000000D03*
D16*
%TO.P,D3,2,A_2*%
%TO.N,/+3V*%
X220040000Y-108000000D03*
%TD*%
D11*
%TO.P,R5,1*%
%TO.N,Net-(D5-K)*%
X177500000Y-71000000D03*
%TO.P,R5,2*%
%TO.N,Net-(Q5-C)*%
X185120000Y-71000000D03*
%TD*%
D15*
%TO.P,D2,1,K_1*%
%TO.N,Net-(D2-K)*%
X126000000Y-107500000D03*
D16*
%TO.P,D2,2,A_2*%
%TO.N,/+3V*%
X128540000Y-107500000D03*
%TD*%
D13*
%TO.P,Q1,1,E_1*%
%TO.N,/GND*%
X183000000Y-79400000D03*
D14*
%TO.P,Q1,2,B_2*%
%TO.N,/B*%
X184270000Y-77330000D03*
%TO.P,Q1,3,C_3*%
%TO.N,Net-(Q1-C)*%
X185540000Y-79400000D03*
%TD*%
D11*
%TO.P,R1,1*%
%TO.N,Net-(D1-K)*%
X146428100Y-102071900D03*
%TO.P,R1,2*%
%TO.N,Net-(Q1-C)*%
X154048100Y-102071900D03*
%TD*%
D20*
%TO.N,Net-(Q5-C)*%
X175765500Y-85985400D03*
%TO.N,Net-(Q1-C)*%
X179888200Y-80751700D03*
X162175000Y-98728700D03*
%TO.N,Net-(D6-K)*%
X154625300Y-118365500D03*
%TO.N,/+3V*%
X182764700Y-132508300D03*
%TO.N,Net-(U1-~{RST})*%
X153422100Y-98480300D03*
%TO.N,Net-(U1-OUT)*%
X152222700Y-115721300D03*
%TO.N,/GND*%
X163496000Y-133620100D03*
X190813100Y-99974400D03*
%TO.N,Net-(Q3-C)*%
X193468800Y-108000000D03*
%TD*%
%TO.N,/+3V*%
D21*
X145000000Y-103437588D02*
X143709411Y-102146999D01*
X143695127Y-105000000D02*
X145000000Y-103695127D01*
X145000000Y-103695127D02*
X145000000Y-103437588D01*
X143523330Y-105000000D02*
X143695127Y-105000000D01*
X134540000Y-116000000D02*
X134540000Y-113983330D01*
X134040000Y-116500000D02*
X134540000Y-116000000D01*
%TO.N,Net-(D1-K)*%
X131500000Y-116500000D02*
X132000000Y-116500000D01*
%TO.N,/+3V*%
X134540000Y-113983330D02*
X143523330Y-105000000D01*
%TO.N,Net-(R8-Pad2)*%
X164892500Y-125772500D02*
X162120000Y-123000000D01*
X179772500Y-125772500D02*
X164892500Y-125772500D01*
X188000000Y-134000000D02*
X179772500Y-125772500D01*
%TO.N,/+3V*%
X160000000Y-137000000D02*
X159500000Y-136500000D01*
X161135100Y-138491700D02*
X160000000Y-137356600D01*
X151550000Y-130899390D02*
X151550000Y-134550000D01*
X160000000Y-137356600D02*
X160000000Y-137000000D01*
X160699390Y-121750000D02*
X151550000Y-130899390D01*
X167982233Y-124250000D02*
X165482233Y-121750000D01*
X165482233Y-121750000D02*
X160699390Y-121750000D01*
X184250000Y-123517767D02*
X183517767Y-124250000D01*
X174676905Y-112909138D02*
X184250000Y-122482233D01*
X162015000Y-138491700D02*
X161135100Y-138491700D01*
X157428700Y-112909138D02*
X174676905Y-112909138D01*
X148028561Y-99528561D02*
X148028561Y-103508999D01*
X183517767Y-124250000D02*
X167982233Y-124250000D01*
X148000000Y-99500000D02*
X148028561Y-99528561D01*
X143824128Y-102146999D02*
X148000000Y-99500000D01*
X153000000Y-136000000D02*
X153000000Y-136500000D01*
X140000000Y-102146999D02*
X143824128Y-102146999D01*
X162015000Y-136500000D02*
X162015000Y-138491700D01*
X148028561Y-103508999D02*
X157428700Y-112909138D01*
X184250000Y-122482233D02*
X184250000Y-123517767D01*
X151550000Y-134550000D02*
X153000000Y-136000000D01*
%TO.N,/GND*%
X171120100Y-133620100D02*
X163496000Y-133620100D01*
X173000000Y-135500000D02*
X171120100Y-133620100D01*
X173000000Y-136500000D02*
X173000000Y-135500000D01*
%TO.N,/+3V*%
X183985000Y-132508300D02*
X182764700Y-132508300D01*
X183985000Y-136500000D02*
X183985000Y-132508300D01*
%TO.N,Net-(U1-DISCH)*%
X186492600Y-85968600D02*
X200088600Y-85968600D01*
X158881800Y-86801800D02*
X185659400Y-86801800D01*
X158120000Y-86040000D02*
X158881800Y-86801800D01*
%TO.N,/GND*%
X156238500Y-77761500D02*
X164747300Y-77761500D01*
X150500000Y-83500000D02*
X156238500Y-77761500D01*
X164747300Y-77761500D02*
X166000000Y-79014200D01*
%TO.N,Net-(U1-DISCH)*%
X185659400Y-86801800D02*
X186492600Y-85968600D01*
X200088600Y-85968600D02*
X205120000Y-91000000D01*
%TO.N,/+3V*%
X133893001Y-102146999D02*
X140000000Y-102146999D01*
%TO.N,Net-(D1-K)*%
X146428100Y-102274345D02*
X146428100Y-102071900D01*
%TO.N,/+3V*%
X141332234Y-100814765D02*
X140000000Y-102146999D01*
X141332234Y-88564467D02*
X141332234Y-100814765D01*
X130540000Y-82500000D02*
X135267767Y-82500000D01*
X135267767Y-82500000D02*
X141332234Y-88564467D01*
%TO.N,Net-(Q5-C)*%
X175765500Y-80354500D02*
X185120000Y-71000000D01*
X175765500Y-85985400D02*
X175765500Y-80354500D01*
%TO.N,Net-(Q1-C)*%
X183788300Y-80751700D02*
X179888200Y-80751700D01*
X185540000Y-79000000D02*
X183788300Y-80751700D01*
X157391300Y-98728700D02*
X154048100Y-102071900D01*
X162175000Y-98728700D02*
X157391300Y-98728700D01*
%TO.N,/B*%
X144039900Y-96960100D02*
X143770000Y-97230000D01*
X155749500Y-96960100D02*
X144039900Y-96960100D01*
X160979600Y-91730000D02*
X155749500Y-96960100D01*
X173270000Y-91730000D02*
X160979600Y-91730000D01*
X177270000Y-87730000D02*
X191770000Y-87730000D01*
X173270000Y-91730000D02*
X177270000Y-87730000D01*
X181328700Y-106730000D02*
X182524200Y-107925500D01*
X161270000Y-106730000D02*
X181328700Y-106730000D01*
%TO.N,Net-(D6-K)*%
X163865500Y-118365500D02*
X154625300Y-118365500D01*
X168500000Y-123000000D02*
X163865500Y-118365500D01*
%TO.N,/+3V*%
X159500000Y-136500000D02*
X153000000Y-136500000D01*
%TO.N,Net-(U1-~{RST})*%
X159500000Y-132000000D02*
X153000000Y-132000000D01*
X154175700Y-97726700D02*
X153422100Y-98480300D01*
X186161800Y-97726700D02*
X154175700Y-97726700D01*
X187170100Y-96718400D02*
X186161800Y-97726700D01*
X203838400Y-96718400D02*
X187170100Y-96718400D01*
X207120000Y-100000000D02*
X203838400Y-96718400D01*
%TO.N,Net-(U1-OUT)*%
X175721300Y-115721300D02*
X152222700Y-115721300D01*
X183000000Y-123000000D02*
X175721300Y-115721300D01*
%TO.N,/GND*%
X199474400Y-99974400D02*
X199500000Y-100000000D01*
X190813100Y-99974400D02*
X199474400Y-99974400D01*
X160000000Y-108000000D02*
X161001700Y-108000000D01*
X179694600Y-109753400D02*
X180252500Y-109195500D01*
X161878600Y-109753400D02*
X179694600Y-109753400D01*
X161001700Y-108876500D02*
X161878600Y-109753400D01*
X161001700Y-108000000D02*
X161001700Y-108876500D01*
X181254200Y-109195500D02*
X180252500Y-109195500D01*
%TO.N,Net-(Q3-C)*%
X184989700Y-108000000D02*
X183794200Y-109195500D01*
X193468800Y-108000000D02*
X184989700Y-108000000D01*
%TO.N,Net-(D3-K)*%
X217500000Y-108000000D02*
X216148300Y-108000000D01*
X209855100Y-101706800D02*
X216148300Y-108000000D01*
X191482500Y-101706800D02*
X209855100Y-101706800D01*
X188000000Y-98224300D02*
X191482500Y-101706800D01*
X188000000Y-98000000D02*
X188000000Y-98224300D01*
%TO.N,Net-(U1-THRES)*%
X155580000Y-86040000D02*
X150500000Y-86040000D01*
X158120000Y-88580000D02*
X155580000Y-86040000D01*
%TO.N,/+3V*%
X128540000Y-107500000D02*
X133893001Y-102146999D01*
%TD*%
M02*
